<svg xmlns="http://www.w3.org/2000/svg" xmlns:xlink="http://www.w3.org/1999/xlink" width="610" height="176.896" viewBox="0 0 610 176.896">
  <defs>
    <clipPath id="clip-path">
      <path id="Trazado_165200" data-name="Trazado 165200" d="M0,0H610V176.9H0Z" transform="translate(541 4520)" fill="#ffbfc1"/>
    </clipPath>
  </defs>
  <g id="Grupo_167788" data-name="Grupo 167788" transform="translate(-541 -4520)">
    <path id="Trazado_156666" data-name="Trazado 156666" d="M0,0H610V176.9H0Z" transform="translate(541 4520)" fill="#ffbfc1"/>
    <g id="Enmascarar_grupo_245" data-name="Enmascarar grupo 245" clip-path="url(#clip-path)">
      <g id="Grupo_165968" data-name="Grupo 165968" transform="translate(-405.998 -1459.197)">
        <g id="Grupo_165967" data-name="Grupo 165967" transform="translate(918.977 5967.978)">
          <path id="Trazado_153264" data-name="Trazado 153264" d="M253.8,156.282s1.966,12.074-1.211,15.253c-6.063,6.066-24.681,8.888-14.859,34.831H323.4s4.24-10.329-5.33-16.334c0,0-3.331-2.326-1.288-9.33s-3.048-11.983-9.3-19.463L295.2,141.269Z" transform="translate(-38.935 -87.159)" fill="#f46eab"/>
          <path id="Trazado_153265" data-name="Trazado 153265" d="M257.405,151.579c0,15.426,13.1,27.93,29.264,27.93s29.264-12.5,29.264-27.93-13.1-27.93-29.264-27.93-29.264,12.5-29.264,27.93" transform="translate(-42.661 -84.239)" fill="#f46eab"/>
          <path id="Trazado_153266" data-name="Trazado 153266" d="M315.212,170.383a7.573,7.573,0,1,0,5.051-9.444,7.573,7.573,0,0,0-5.051,9.444" transform="translate(-52.187 -90.365)" fill="#f29b5f"/>
          <path id="Trazado_153267" data-name="Trazado 153267" d="M299.706,187.351l-.73,33.578-24.324-1.36,4.964-49.419Z" transform="translate(-45.519 -91.946)" fill="#ffaf78"/>
          <path id="Trazado_153268" data-name="Trazado 153268" d="M302.083,200.406s-10.849-1.118-11.317-13.469l11.513,6.092Z" transform="translate(-48.19 -94.728)" fill="#2f1a2a"/>
          <path id="Trazado_153269" data-name="Trazado 153269" d="M313.984,136.06a11.06,11.06,0,0,1,3.616,6.325c1.449,7.245,4.294,20.009,1.729,27.7-3.335,10-11.456,17.092-24.58,14.6,0,0-15.728-1.588-18.962-21.507-5.153-31.739,21.839-40.939,38.2-27.114" transform="translate(-45.6 -85.261)" fill="#ffaf78"/>
          <path id="Trazado_153270" data-name="Trazado 153270" d="M322.7,162.884a1.733,1.733,0,1,0,1.235-2.116,1.734,1.734,0,0,0-1.235,2.116" transform="translate(-53.474 -90.381)" fill="#2f1a2a"/>
          <path id="Trazado_153271" data-name="Trazado 153271" d="M305.152,163.236a1.733,1.733,0,1,0,1.236-2.116,1.734,1.734,0,0,0-1.236,2.116" transform="translate(-50.564 -90.439)" fill="#2f1a2a"/>
          <path id="Trazado_153272" data-name="Trazado 153272" d="M318.449,168.3l1.209,3.292a.792.792,0,0,1-.567.934l-1.869.345" transform="translate(-52.575 -91.639)" fill="none" stroke="#2f1a2a" stroke-linecap="round" stroke-linejoin="round" stroke-width="0.893"/>
          <path id="Trazado_153273" data-name="Trazado 153273" d="M302.389,146.963s5.373-.951,5.659,1.519c0,0,.152,1.676-4.545,2.4s-6.576.607-7.155-.932,3.5-2.763,6.041-2.991" transform="translate(-49.106 -88.073)" fill="#2f1a2a"/>
          <path id="Trazado_153274" data-name="Trazado 153274" d="M326.013,147.059s-4.68-1.02-5.352,1.344c0,0-.423,1.617,3.691,2.4,3,.567,4.112.052,4.417-1.032.361-1.285-.986-2.471-2.756-2.709" transform="translate(-53.143 -88.082)" fill="#2f1a2a"/>
          <path id="Trazado_153275" data-name="Trazado 153275" d="M319.157,176.981l-13.291.152a6.1,6.1,0,0,0,6.428,5.742c6.117,0,6.863-5.894,6.863-5.894" transform="translate(-50.692 -93.077)" fill="#221914"/>
          <path id="Trazado_153276" data-name="Trazado 153276" d="M305.2,187.15a4.683,4.683,0,1,0,2.3-6.209,4.682,4.682,0,0,0-2.3,6.209" transform="translate(-50.511 -93.664)" fill="#e275c2"/>
          <path id="Trazado_153277" data-name="Trazado 153277" d="M319.876,178.5l-15.085-.023v-2.55l15.085-.553Z" transform="translate(-50.514 -92.812)" fill="#fff"/>
          <path id="Trazado_153278" data-name="Trazado 153278" d="M305.867,177.132a6.094,6.094,0,0,0,6.427,5.743c6.117,0,6.863-5.895,6.863-5.895Z" transform="translate(-50.693 -93.078)" fill="none"/>
          <path id="Trazado_153279" data-name="Trazado 153279" d="M311.076,160.877a9.2,9.2,0,1,1-9.088-9.5,9.3,9.3,0,0,1,9.088,9.5" transform="translate(-48.508 -88.833)" fill="#fff"/>
          <rect id="Rectángulo_41170" data-name="Rectángulo 41170" width="18.394" height="18.797" transform="translate(244.175 62.54)" fill="none"/>
          <path id="Trazado_153280" data-name="Trazado 153280" d="M336.242,161.155c-.058,4.984-3.633,8.984-7.985,8.934s-7.835-4.131-7.777-9.116,3.632-8.983,7.985-8.933,7.835,4.131,7.777,9.115" transform="translate(-53.114 -88.944)" fill="#fff"/>
          <rect id="Rectángulo_41171" data-name="Rectángulo 41171" width="15.763" height="18.05" transform="translate(267.364 63.095)" fill="none"/>
          <path id="Trazado_153281" data-name="Trazado 153281" d="M311.076,160.877a9.2,9.2,0,1,1-9.088-9.5A9.3,9.3,0,0,1,311.076,160.877Z" transform="translate(-48.508 -88.833)" fill="none" stroke="#fff" stroke-linecap="round" stroke-linejoin="round" stroke-width="1.261"/>
          <path id="Trazado_153282" data-name="Trazado 153282" d="M336.242,161.155c-.058,4.984-3.633,8.984-7.985,8.934s-7.835-4.131-7.777-9.116,3.632-8.983,7.985-8.933S336.3,156.171,336.242,161.155Z" transform="translate(-53.114 -88.944)" fill="none" stroke="#fff" stroke-linecap="round" stroke-linejoin="round" stroke-width="1.261"/>
          <path id="Trazado_153283" data-name="Trazado 153283" d="M314.73,162.559a3.3,3.3,0,0,1,4.8-.014" transform="translate(-52.161 -90.516)" fill="none" stroke="#fff" stroke-linecap="round" stroke-linejoin="round" stroke-width="1.261"/>
          <line id="Línea_477" data-name="Línea 477" x1="8.219" y2="3.126" transform="translate(235.957 71.832)" fill="none" stroke="#fff" stroke-linecap="round" stroke-linejoin="round" stroke-width="1.261"/>
          <path id="Trazado_153284" data-name="Trazado 153284" d="M277.422,158.105c1.25.523,24.168-13.268,12.54-28.277,0,0-17.433,4.092-16.428,28.266Z" transform="translate(-45.327 -85.263)" fill="#f46eab"/>
          <path id="Trazado_153285" data-name="Trazado 153285" d="M293.657,134.321s15.426-3.763,24.4,3.927c0,0-4.35-13.889-25.564-14.6l-7.984,17.761Z" transform="translate(-47.153 -84.239)" fill="#f46eab"/>
          <path id="Trazado_153286" data-name="Trazado 153286" d="M251.608,121.313a11.756,11.756,0,1,0,11.756-11.756,11.756,11.756,0,0,0-11.756,11.756" transform="translate(-41.7 -81.903)" fill="#f46eab"/>
          <path id="Trazado_153287" data-name="Trazado 153287" d="M282.582,154.263l-1.5,15.848L275.619,155.6Z" transform="translate(-45.68 -89.312)" fill="#f46eab"/>
          <path id="Trazado_153288" data-name="Trazado 153288" d="M262.327,172.8a9.189,9.189,0,1,0,6.129-11.46,9.19,9.19,0,0,0-6.129,11.46" transform="translate(-43.411 -90.42)" fill="#ffaf78"/>
          <path id="Trazado_153289" data-name="Trazado 153289" d="M267.979,168.7s6.737-1.936,8.53,5.479" transform="translate(-44.413 -91.668)" fill="none" stroke="#2f1a2a" stroke-linecap="round" stroke-linejoin="round" stroke-width="0.893"/>
          <path id="Trazado_153290" data-name="Trazado 153290" d="M327.126,236.087s13.131,7.785,13.131,28.009V322.07a14.678,14.678,0,0,1-29.355.1l-.519-76.381Z" transform="translate(-51.441 -102.874)" fill="#a8527e"/>
          <path id="Trazado_153291" data-name="Trazado 153291" d="M374.78,294.1l6.3,8.16-48.307,42.977a11.88,11.88,0,1,1-12.22-20.263Z" transform="translate(-52.017 -112.488)" fill="#ffaf78"/>
          <path id="Trazado_153292" data-name="Trazado 153292" d="M386.883,290.6l3.44-5.971a22.944,22.944,0,0,1,7.306-7.738l5.3-3.47a2.431,2.431,0,0,1,3.56,1.057,3.115,3.115,0,0,1-.626,3.428l-4.7,4.8,25.295-7.246a1.883,1.883,0,0,1,2.412,1.475l.131.75a1.884,1.884,0,0,1-1.17,2.078l-14.845,4.761,17.808-3.11a1.883,1.883,0,0,1,2.309,1.619l.063.556a1.882,1.882,0,0,1-1.432,2.043l-18.433,3.785,15.285-.309a1.883,1.883,0,0,1,1.937,2.2l-.042.239a1.884,1.884,0,0,1-1.613,1.544l-15.911,2.057,9.768,0a1.883,1.883,0,0,1,.173,3.758l-35.574,3.293Z" transform="translate(-64.12 -108.996)" fill="#ffaf78"/>
          <path id="Trazado_153293" data-name="Trazado 153293" d="M254.352,225.51s-23.988,5.213-33.175,27.553-2.808,99.117-2.808,99.117,45.629,21.463,85.455-2.721L311.519,234s-8.906-6.4-16.167-10.513Z" transform="translate(-35.834 -100.785)" fill="#a8527e"/>
          <path id="Trazado_153294" data-name="Trazado 153294" d="M280.314,217.361s-6.721,1.5-18.384,7.133c0,0,17.438,13.549,31.222,29.848,0,0,10.722-11.016,9.776-31.871l-13.618-5.109Z" transform="translate(-43.41 -99.77)" fill="#ffaf78"/>
          <line id="Línea_478" data-name="Línea 478" x1="3.31" y2="49.656" transform="translate(270.57 160.309)" fill="none" stroke="#873964" stroke-linecap="round" stroke-linejoin="round" stroke-width="1.7"/>
          <path id="Trazado_153297" data-name="Trazado 153297" d="M140.2,354.925s30.442,6.135,55.339-6.012l8.292-104.486L174.224,214.3l-29.3-6.224-16.136,58.743Z" transform="translate(-21.345 -98.231)" fill="#fafbfd"/>
          <path id="Trazado_153298" data-name="Trazado 153298" d="M140.2,208.075s4.237,104.312,3.126,155.951l-22.546-2.676a23.269,23.269,0,0,1-20.517-23.783l2.333-80.317,2.557-34.722a7.894,7.894,0,0,1,4.92-6.751,118.261,118.261,0,0,1,30.127-7.7" transform="translate(-16.615 -98.231)" fill="#fca428"/>
          <path id="Trazado_153299" data-name="Trazado 153299" d="M46.358,345.452,38.293,359.6s-15.849.994-30.446,7.884a1.973,1.973,0,0,0,1.412,3.671l10.88-3.288a172.358,172.358,0,0,0-18.9,9.14,2.465,2.465,0,0,0,2.116,4.437l17.588-6.83L4.52,383.686a2.724,2.724,0,0,0,2.5,4.838l15.9-7.676-12.4,8.71a3.151,3.151,0,0,0,3.555,5.2c4.878-3.219,17.167-10.744,25.145-10.531a38.15,38.15,0,0,1-5.261,6.264,3.555,3.555,0,0,0,4.457,5.514l9.368-6.475A9.22,9.22,0,0,0,51.44,384.4l3.113-11.316L68.135,360.23Z" transform="translate(0 -120.999)" fill="#fc9753"/>
          <path id="Trazado_153300" data-name="Trazado 153300" d="M101.79,216.739s-4.35-.249-18.595,18.015c-14.663,18.8-40.146,102.717-40.146,102.717l25.6,19.435,43.456-94.59Z" transform="translate(-7.135 -99.667)" fill="#fca428"/>
          <line id="Línea_479" data-name="Línea 479" y1="32.945" x2="15.136" transform="translate(85.066 173.024)" fill="none" stroke="#d3750d" stroke-linecap="round" stroke-linejoin="round" stroke-width="1.748"/>
          <path id="Trazado_153301" data-name="Trazado 153301" d="M209.775,218.531s22.442,7,30.889,89.79l-18.23,12.917Z" transform="translate(-34.767 -99.964)" fill="#fca428"/>
          <path id="Trazado_153302" data-name="Trazado 153302" d="M300.327,283.815s-8.191-6.309-.571-16.865l11.428-16.477a2.963,2.963,0,0,1,5.169,2.792l-3.524,9.753L334.5,248.346a3.211,3.211,0,0,1,3.915,5.089l-13.957,10.831.272.855,16.021-9.128a3.094,3.094,0,0,1,2.589,5.62l-15.471,9.91.225,1.087,15.1-6.463c3.737-1.793,4.9-.04,5.27,1.343.344,1.292-2.468,3.05-3.736,3.471l-15.615,7.894.17,1.009,14.48-5.558a2.23,2.23,0,0,1,.7,4.4l-16.521,7.038s-15.088,10.3-21.929,4.488Z" transform="translate(-49.142 -104.8)" fill="#fc9753"/>
          <path id="Trazado_153303" data-name="Trazado 153303" d="M315.861,266.058s4.769,8.515-1.054,16.092" transform="translate(-52.174 -107.841)" fill="none" stroke="#e07832" stroke-linecap="round" stroke-linejoin="round" stroke-width="1.6"/>
          <path id="Trazado_153304" data-name="Trazado 153304" d="M273.307,290.6l24.865-10.487,10.749,15.076-27.874,15Z" transform="translate(-45.296 -110.171)" fill="#fc9753"/>
          <path id="Trazado_153305" data-name="Trazado 153305" d="M212.2,305.847,275.06,280.43l12.579,27.24-54.861,36.24a19.1,19.1,0,0,1-25.484-5.394c-6.6-9.4-5.234-27.281,4.909-32.669" transform="translate(-33.685 -110.222)" fill="#fca428"/>
          <line id="Línea_480" data-name="Línea 480" x1="7.633" y2="3.086" transform="translate(194.918 185.906)" fill="none" stroke="#d3750d" stroke-linecap="round" stroke-linejoin="round" stroke-width="1.748"/>
          <path id="Trazado_153306" data-name="Trazado 153306" d="M183.251,214.674s7.267,8.522,10.239,45.312,3.969,99.69,3.969,99.69a26.9,26.9,0,0,0,21.5-27.17c-.828-27.241-2.789-71.633-7.075-90.408l-3.994-20.38c-.22-.964-1.158-3.863-1.158-3.863s-3.218-2.932-23.208-7.518Z" transform="translate(-30.371 -98.606)" fill="#fca428"/>
          <path id="Trazado_153307" data-name="Trazado 153307" d="M224.8,341.876s.194-52.239-6.058-90.226" transform="translate(-36.253 -105.453)" fill="none" stroke="#d3750d" stroke-linecap="round" stroke-linejoin="round" stroke-width="1.748"/>
          <path id="Trazado_153308" data-name="Trazado 153308" d="M145.06,164.872s-7.162,11.576,3.355,11.229a11.586,11.586,0,0,0,3.4-10.4Z" transform="translate(-23.647 -91.071)" fill="#793625"/>
          <path id="Trazado_153309" data-name="Trazado 153309" d="M210.484,122.021a18.461,18.461,0,0,0-2.186-6.9c-15.143-27.989-48.071-5.65-48.071-5.65l5.766,19.612c13.728-8.3,30.06-11.695,44.491-7.066" transform="translate(-26.555 -80.49)" fill="#793625"/>
          <path id="Trazado_153310" data-name="Trazado 153310" d="M167.139,132.569l6.435,25.444S213.84,146.45,211.63,125.5c-14.43-4.629-28.717-6.6-44.491,7.066" transform="translate(-27.701 -83.972)" fill="#6b2a1d"/>
          <path id="Trazado_153311" data-name="Trazado 153311" d="M190.069,159.522a8.256,8.256,0,1,0,5.9-10.071,8.255,8.255,0,0,0-5.9,10.071" transform="translate(-31.456 -88.47)" fill="#e8803a"/>
          <path id="Trazado_153312" data-name="Trazado 153312" d="M176.091,178.372l1.522,24.527a11.378,11.378,0,0,1-19.624,7.1l-9.857-10.427,2.932-42.8Z" transform="translate(-24.551 -89.729)" fill="#fc9753"/>
          <path id="Trazado_153313" data-name="Trazado 153313" d="M179.12,193.818s-16.049-.688-17.245-16.87l16.493,4.769Z" transform="translate(-26.828 -93.072)" fill="#2f1a2a"/>
          <path id="Trazado_153314" data-name="Trazado 153314" d="M192.694,117.349s5.261,33.479,1.147,44.023-13.255,17-27.406,13.868c0,0-16.506-1.281-19.5-25.247-4.5-36.079,29.461-52.263,45.755-32.644" transform="translate(-24.285 -81.798)" fill="#fc9753"/>
          <path id="Trazado_153315" data-name="Trazado 153315" d="M198.562,151.667A1.889,1.889,0,1,0,200,149.414a1.888,1.888,0,0,0-1.436,2.253" transform="translate(-32.901 -88.502)" fill="#171717"/>
          <path id="Trazado_153316" data-name="Trazado 153316" d="M179.426,151.3a1.889,1.889,0,1,0,1.436-2.253,1.889,1.889,0,0,0-1.436,2.253" transform="translate(-29.73 -88.441)" fill="#171717"/>
          <path id="Trazado_153317" data-name="Trazado 153317" d="M194.18,153.776,196,160.231l-3.056,1.523" transform="translate(-31.977 -89.232)" fill="none" stroke="#2f1a2a" stroke-linecap="round" stroke-linejoin="round" stroke-width="0.983"/>
          <path id="Trazado_153318" data-name="Trazado 153318" d="M176.628,135.537s5.869-1.421,6.288,1.754c0,0,.239,2.155-4.9,3.264s-7.206,1.02-7.908-.942,3.733-3.69,6.516-4.075" transform="translate(-28.181 -86.157)" fill="#221914"/>
          <path id="Trazado_153319" data-name="Trazado 153319" d="M203.05,135.025s-5.464-1.353-6.054,1.756c0,0-.36,2.127,4.434,3.163,3.491.753,4.735.078,5-1.348.315-1.69-1.327-3.254-3.381-3.571" transform="translate(-32.648 -86.076)" fill="#221914"/>
          <path id="Trazado_153320" data-name="Trazado 153320" d="M182.058,166.655l10.951.806s-.108,4.279-5.691,3.9-5.26-4.708-5.26-4.708" transform="translate(-30.172 -91.366)" fill="#fff"/>
          <path id="Trazado_153321" data-name="Trazado 153321" d="M153.23,147.825l1.611-12.187s9.653-3.071,11.959-21.31c0,0-4.051-8.391-16.425-4.553s-23.116,12.788-9.548,35.253Z" transform="translate(-22.295 -81.773)" fill="#793625"/>
          <path id="Trazado_153322" data-name="Trazado 153322" d="M133.642,159.151a10.018,10.018,0,1,0,7.166-12.222,10.019,10.019,0,0,0-7.166,12.222" transform="translate(-22.095 -88.043)" fill="#fc9753"/>
          <path id="Trazado_153323" data-name="Trazado 153323" d="M140.051,154.863s7.422-1.82,9.057,6.333" transform="translate(-23.211 -89.383)" fill="none" stroke="#2f1a2a" stroke-linecap="round" stroke-linejoin="round" stroke-width="0.983"/>
          <path id="Trazado_153324" data-name="Trazado 153324" d="M171.323,113.985a38.08,38.08,0,0,1,24.372,5.761l-2.561-10.83L177.106,106.7l-15.293,5.757,3.773.357Z" transform="translate(-26.818 -81.43)" fill="#793625"/>
          <path id="Trazado_153325" data-name="Trazado 153325" d="M202.138,121.611s18.457.046,18.532,13.494a.232.232,0,0,0,.461.041c.865-5-.063-18.668-20.435-17.073Z" transform="translate(-33.262 -83.293)" fill="#793625"/>
          <path id="Trazado_153328" data-name="Trazado 153328" d="M512.046,141.393s3.521,21.9,11.41,34.2a5.1,5.1,0,0,1-1.592,6.93c-8.908,5.756-33.97,16.672-65.979,4.173a5.111,5.111,0,0,1-3.157-5.349c.656-5.92,5.794-17.543,13.346-27.969Z" transform="translate(-75.027 -87.179)" fill="#f76b2c"/>
          <path id="Trazado_153329" data-name="Trazado 153329" d="M467.755,163.843a7.4,7.4,0,1,1-4.936-9.228,7.4,7.4,0,0,1,4.936,9.228" transform="translate(-75.123 -89.318)" fill="#f4ab7a"/>
          <path id="Trazado_153330" data-name="Trazado 153330" d="M480.984,180.424l.713,29.96,23.342-2.724-4.425-44.044Z" transform="translate(-79.715 -90.863)" fill="#ffb98a"/>
          <path id="Trazado_153331" data-name="Trazado 153331" d="M481.276,194.585s10.615-.536,11.072-12.6L481.1,187.932Z" transform="translate(-79.735 -93.906)" fill="#2f1a2a"/>
          <path id="Trazado_153332" data-name="Trazado 153332" d="M463.119,130.306a10.806,10.806,0,0,0-3.534,6.18c-1.416,7.079-4.2,21.8-1.689,29.318,3.258,9.773,11.194,15.952,24.018,13.513,0,0,14.863-.677,18.528-22.517,5.2-30.985-21.339-40-37.323-26.495" transform="translate(-75.721 -84.333)" fill="#ffb98a"/>
          <path id="Trazado_153333" data-name="Trazado 153333" d="M462.7,158.267a1.693,1.693,0,1,1-1.207-2.068,1.694,1.694,0,0,1,1.207,2.068" transform="translate(-76.133 -89.624)" fill="#2f1a2a"/>
          <path id="Trazado_153334" data-name="Trazado 153334" d="M479.853,158.611a1.693,1.693,0,1,1-1.207-2.068,1.693,1.693,0,0,1,1.207,2.068" transform="translate(-78.976 -89.681)" fill="#2f1a2a"/>
          <path id="Trazado_153335" data-name="Trazado 153335" d="M466.47,163.21l-1.674,4.031,2.713.731" transform="translate(-77.032 -90.795)" fill="none" stroke="#2f1a2a" stroke-linecap="round" stroke-linejoin="round" stroke-width="0.873"/>
          <path id="Trazado_153336" data-name="Trazado 153336" d="M479.475,146.652s-5.25-.929-5.529,1.484c0,0-.149,1.638,4.441,2.348s6.425.593,6.99-.91-3.42-2.7-5.9-2.922" transform="translate(-78.549 -88.022)" fill="#f76b2c"/>
          <path id="Trazado_153337" data-name="Trazado 153337" d="M458.555,146.745s4.573-1,5.229,1.313c0,0,.413,1.58-3.607,2.342-2.927.555-4.018.051-4.316-1.009-.352-1.255.964-2.414,2.693-2.646" transform="translate(-75.542 -88.031)" fill="#f76b2c"/>
          <path id="Trazado_153338" data-name="Trazado 153338" d="M466.581,172.639l9.428.156s.022,3.8-4.784,3.749-4.644-3.905-4.644-3.905" transform="translate(-77.328 -92.358)" fill="#fff"/>
          <path id="Trazado_153339" data-name="Trazado 153339" d="M495.395,153.459s-7.761-6.866-6.216-20.225a129.38,129.38,0,0,1-28.825,1.176s3.49-20.651,33.243-15.7c30.915,5.146,19.512,40.9,8.024,51.368Z" transform="translate(-76.296 -83.294)" fill="#f76b2c"/>
          <path id="Trazado_153340" data-name="Trazado 153340" d="M516.787,165.417a8.98,8.98,0,1,1-5.989-11.2,8.98,8.98,0,0,1,5.989,11.2" transform="translate(-82.736 -89.241)" fill="#ffb98a"/>
          <path id="Trazado_153341" data-name="Trazado 153341" d="M513.178,161.409s-6.583-1.891-8.334,5.354" transform="translate(-83.67 -90.46)" fill="none" stroke="#2f1a2a" stroke-linecap="round" stroke-linejoin="round" stroke-width="0.873"/>
          <path id="Trazado_153342" data-name="Trazado 153342" d="M480.913,118.042c.041-.038-25.858.441-29.1,21.018l40.982.919,2.454-13.7Z" transform="translate(-74.881 -83.309)" fill="#f76b2c"/>
          <path id="Trazado_153343" data-name="Trazado 153343" d="M444.221,280.027l2.852,38.767-16,48.779h17.751l27.68-26.738-2.973-58.32Z" transform="translate(-71.444 -110.156)" fill="#ffb98a"/>
          <path id="Trazado_153344" data-name="Trazado 153344" d="M452.218,224.182s-20.234,14.616-14.276,61.505h33.11Z" transform="translate(-72.4 -100.9)" fill="#fff"/>
          <path id="Trazado_153345" data-name="Trazado 153345" d="M462.953,325.828l-11.137,49c41.567,11.743,80.211,0,80.211,0s-2.165-18.818-16.613-49.332Z" transform="translate(-74.882 -117.691)" fill="#2f1a2a"/>
          <path id="Trazado_153346" data-name="Trazado 153346" d="M511.134,213.584l-40.668.68s-8.908,2.988-15.195,8.161l1.275,34.294,6.979,50.562,52.461-.334L526.3,228.379Z" transform="translate(-75.454 -99.144)" fill="#fff"/>
          <path id="Trazado_153347" data-name="Trazado 153347" d="M491.967,206.49a84.841,84.841,0,0,1,22.176,5.918s-3.394,13.2-22.906,13.256a25.261,25.261,0,0,1-9.564-1.709c-4.055-1.64-8.8-4.86-8.2-10.866Z" transform="translate(-78.463 -97.968)" fill="#ffb98a"/>
          <line id="Línea_481" data-name="Línea 481" x1="3.783" y1="27.674" transform="translate(380.275 156.278)" fill="none" stroke="#dbdbdb" stroke-linecap="round" stroke-linejoin="round" stroke-width="1.748"/>
          <path id="Trazado_153348" data-name="Trazado 153348" d="M551.592,318.416c.092-1.037-1.855-48.677-1.855-48.677h-22.5l-.351,35.5Z" transform="translate(-87.323 -108.451)" fill="#ffb98a"/>
          <path id="Trazado_153349" data-name="Trazado 153349" d="M522.232,213.584s27.929,7.749,31.33,25.1,11.621,46.307,11.621,46.307l-42.951.124,3.229-58.276Z" transform="translate(-86.552 -99.144)" fill="#fff"/>
          <line id="Línea_482" data-name="Línea 482" x1="3.632" y1="25.769" transform="translate(433.605 163.224)" fill="none" stroke="#dbdbdb" stroke-linecap="round" stroke-linejoin="round" stroke-width="1.748"/>
          <path id="Trazado_153350" data-name="Trazado 153350" d="M483.941,269.781l-5.353,10.386,45.628,45.81a11.88,11.88,0,1,0,13.419-19.49l-6.4-4.375L520,294.429Z" transform="translate(-79.318 -108.458)" fill="#ffb98a"/>
          <path id="Trazado_153351" data-name="Trazado 153351" d="M481.826,266.458l-.023-6.89a22.945,22.945,0,0,0-2.5-10.343l-2.875-5.641a2.431,2.431,0,0,0-3.616-.848,3.113,3.113,0,0,0-1.157,3.287l1.7,6.5L456.9,234.682a2.491,2.491,0,0,0-3.325.189,2.262,2.262,0,0,0-.219,2.63l8.824,10.734-12.071-10.644a2.253,2.253,0,0,0-3.116.354,2.422,2.422,0,0,0,.232,2.866l13.954,12.283-13.116-7.854a1.883,1.883,0,0,0-2.776.953l-.082.229a1.882,1.882,0,0,0,.635,2.141l12.793,9.682-8.481-4.845a1.883,1.883,0,0,0-2.016,3.177l27.55,19.745Z" transform="translate(-73.768 -102.55)" fill="#ffb98a"/>
          <line id="Línea_483" data-name="Línea 483" x2="13" y2="8.887" transform="translate(441.524 186.549)" fill="none" stroke="#f2a36d" stroke-linecap="round" stroke-linejoin="round" stroke-width="1.6"/>
          <path id="Trazado_153356" data-name="Trazado 153356" d="M623.809,152.993a8.5,8.5,0,1,1-6.417-10.161,8.5,8.5,0,0,1,6.417,10.161" transform="translate(-100.603 -87.383)" fill="#8c4d41"/>
          <path id="Trazado_153357" data-name="Trazado 153357" d="M637.557,172.886l.765,33.416,30.433-2.179-6.183-54.306Z" transform="translate(-105.665 -88.576)" fill="#9b5e4e"/>
          <path id="Trazado_153358" data-name="Trazado 153358" d="M637.868,190.048s16.543-1.373,17.341-21.154L637.557,177Z" transform="translate(-105.665 -91.737)" fill="#221914"/>
          <path id="Trazado_153359" data-name="Trazado 153359" d="M626.94,108.68a22.12,22.12,0,0,0-13.619,18.407c-.979,9.4-1.849,23.968,1.072,31.1,4.518,11.032,14.109,17.5,28.615,13.567,0,0,16.982-2.07,19.438-27.674,2.905-30.3-18.363-42.172-35.506-35.4" transform="translate(-101.494 -81.452)" fill="#9b5e4e"/>
          <path id="Trazado_153360" data-name="Trazado 153360" d="M618.732,146.147a1.945,1.945,0,1,1-1.554-2.268,1.945,1.945,0,0,1,1.554,2.268" transform="translate(-101.906 -87.586)" fill="#221914"/>
          <path id="Trazado_153361" data-name="Trazado 153361" d="M638.408,145.121a1.944,1.944,0,1,1-1.554-2.268,1.945,1.945,0,0,1,1.554,2.268" transform="translate(-105.167 -87.416)" fill="#221914"/>
          <path id="Trazado_153362" data-name="Trazado 153362" d="M623.538,148.164l-1.378,5.6a1.077,1.077,0,0,0,.843,1.315l2.055.4" transform="translate(-103.108 -88.302)" fill="none" stroke="#2f1a2a" stroke-linecap="round" stroke-linejoin="round" stroke-width="1.012"/>
          <path id="Trazado_153363" data-name="Trazado 153363" d="M640.007,130.4s-6.087-1.263-6.411,2.017c0,0-.172,2.226,5.149,3.192s7.448.806,8.105-1.237-3.966-3.67-6.844-3.972" transform="translate(-105.009 -85.318)" fill="#221914"/>
          <path id="Trazado_153364" data-name="Trazado 153364" d="M613.51,130.731s5.576-1.578,6.288,1.6c0,0,.444,2.177-4.454,3.4-3.566.894-4.87.24-5.192-1.217-.382-1.728,1.254-3.393,3.358-3.788" transform="translate(-101.114 -85.348)" fill="#221914"/>
          <path id="Trazado_153365" data-name="Trazado 153365" d="M622.639,161.626l11.843.449s-.26,5.126-6.079,5.126c-5.785,0-5.764-5.575-5.764-5.575" transform="translate(-103.192 -90.533)" fill="#221914"/>
          <path id="Trazado_153366" data-name="Trazado 153366" d="M635.559,170.936a4.428,4.428,0,1,1-2.177-5.872,4.429,4.429,0,0,1,2.177,5.872" transform="translate(-103.933 -91.036)" fill="#e275c2"/>
          <path id="Trazado_153367" data-name="Trazado 153367" d="M628.4,167.2c5.819,0,6.079-5.126,6.079-5.126l-11.843-.449s-.021,5.575,5.764,5.575" transform="translate(-103.192 -90.533)" fill="none"/>
          <path id="Trazado_153368" data-name="Trazado 153368" d="M655.5,142.98s-6.874-12.943-4.381-27.019c0,0-20.986,3.52-33.12-.345,0,0,2.851-17.309,31.076-15.072,38.651,3.065,27.356,44.254,8.924,51.3Z" transform="translate(-102.424 -80.376)" fill="#221914"/>
          <path id="Trazado_153369" data-name="Trazado 153369" d="M681.594,154a10.313,10.313,0,1,1-7.788-12.331A10.313,10.313,0,0,1,681.594,154" transform="translate(-109.587 -87.183)" fill="#9b5e4e"/>
          <path id="Trazado_153370" data-name="Trazado 153370" d="M677.076,149.75s-7.7-1.621-9.1,6.823" transform="translate(-110.706 -88.544)" fill="none" stroke="#2f1a2a" stroke-linecap="round" stroke-linejoin="round" stroke-width="1.012"/>
          <path id="Trazado_153371" data-name="Trazado 153371" d="M583.458,280.027v49.537l-23.234,40.7,22.832-2.695,27.68-26.738-2.973-58.32Z" transform="translate(-92.848 -110.156)" fill="#9b5e4e"/>
          <path id="Trazado_153372" data-name="Trazado 153372" d="M602.864,221.747s-18.02,10.518-20.91,36.528V295.26l29.41-1.006Z" transform="translate(-96.449 -100.497)" fill="#f46eab"/>
          <path id="Trazado_153373" data-name="Trazado 153373" d="M628.757,211.63s-14.761,2.816-22.174,8.44L604.391,352.9c47.41,28.594,101.614.834,101.614.834L691.3,220.756s-1.92-7.5-22.522-9.1Z" transform="translate(-100.168 -98.82)" fill="#f46eab"/>
          <path id="Trazado_153374" data-name="Trazado 153374" d="M673.6,211.328s-17-3.754-40.023-.026c0,0-2.187,13.684,16.3,14.261,20.022.625,23.722-14.235,23.722-14.235" transform="translate(-104.992 -98.492)" fill="#9b5e4e"/>
          <line id="Línea_484" data-name="Línea 484" x1="0.174" y1="46.591" transform="translate(505.057 148.171)" fill="none" stroke="#e03f90" stroke-linecap="round" stroke-linejoin="round" stroke-width="1.7"/>
          <path id="Trazado_153375" data-name="Trazado 153375" d="M644.852,299.62s-3.286-9.485-15.008-11.921l-8.245-8.1a3.6,3.6,0,0,0-5.439,4.668l4.06,5.64-2.227-.959a17.1,17.1,0,0,1-8.282-7.583l-5.2-9.643a3.417,3.417,0,0,0-6.2,2.852l5.211,13.5a19.473,19.473,0,0,0,11.464,11.273l26.335,11.715Z" transform="translate(-99.122 -108.483)" fill="#9b5e4e"/>
          <path id="Trazado_153376" data-name="Trazado 153376" d="M653.443,305.518l73.236,28.022c6.334,2.739,9.4,13.519,6.571,19.814a12.37,12.37,0,0,1-18.205,5.179l-65.13-41.566Z" transform="translate(-107.713 -114.381)" fill="#9b5e4e"/>
          <path id="Trazado_153377" data-name="Trazado 153377" d="M742.386,341.845l-7.659-59.191-35.52-2.626,12.447,52.742Z" transform="translate(-115.882 -110.156)" fill="#9b5e4e"/>
          <path id="Trazado_153378" data-name="Trazado 153378" d="M696.17,214.719s44.388,7.313,49.626,79.376H691.211l-3.591-46.632Z" transform="translate(-113.962 -99.332)" fill="#f46eab"/>
          <path id="Trazado_153379" data-name="Trazado 153379" d="M702.937,302.472H692.655l-6.385-37.208" transform="translate(-113.738 -107.709)" fill="none" stroke="#e03f90" stroke-linecap="round" stroke-linejoin="round" stroke-width="1.7"/>
          <path id="Trazado_153380" data-name="Trazado 153380" d="M86.308,111.363H40.29A21.512,21.512,0,0,1,18.778,89.851V77.32A21.512,21.512,0,0,1,40.29,55.808H86.308A21.511,21.511,0,0,1,107.819,77.32V89.851a21.511,21.511,0,0,1-21.512,21.512" transform="translate(-8.413 -21.149)" fill="#fc83b9"/>
          <path id="Trazado_153381" data-name="Trazado 153381" d="M86.625,115.363l11.2,14.156a1.817,1.817,0,0,0,3.181-1.594l-3.932-14.8Z" transform="translate(-19.539 -30.67)" fill="#fc83b9"/>
          <path id="Trazado_165202" data-name="Trazado 165202" d="M7.98-10.92A4.729,4.729,0,0,0,4.56-9.64v-5.2H1.44V0H4.56V-5.32c0-1.98,1.08-2.9,2.58-2.9,1.38,0,2.18.8,2.18,2.54V0h3.12V-6.16C12.44-9.44,10.52-10.92,7.98-10.92Zm11.82,0a8.271,8.271,0,0,0-4.64,1.3l1.12,2.18a5.174,5.174,0,0,1,3.1-1c1.68,0,2.48.78,2.48,2.12H19.38C16.1-6.32,14.76-5,14.76-3.1c0,1.86,1.5,3.26,4.02,3.26a3.531,3.531,0,0,0,3.28-1.5V0h2.92V-6.14C24.98-9.4,23.08-10.92,19.8-10.92Zm-.24,8.98c-1.1,0-1.76-.52-1.76-1.3,0-.72.46-1.26,1.92-1.26h2.14v1.1A2.3,2.3,0,0,1,19.56-1.94ZM28,0h3.12V-14.84H28Zm6.2,0h3.12V-14.84H34.2ZM45.52.16c3.42,0,5.9-2.3,5.9-5.54s-2.48-5.54-5.9-5.54S39.6-8.62,39.6-5.38,42.1.16,45.52.16Zm0-2.56a2.73,2.73,0,0,1-2.76-2.98,2.73,2.73,0,0,1,2.76-2.98,2.715,2.715,0,0,1,2.74,2.98A2.715,2.715,0,0,1,45.52-2.4ZM53.9-4.86h2.48L57-14H53.28ZM55.14.16a1.838,1.838,0,0,0,1.92-1.82,1.8,1.8,0,0,0-1.92-1.78,1.8,1.8,0,0,0-1.92,1.78A1.838,1.838,0,0,0,55.14.16Z" transform="translate(24.02 67.616)" fill="#fafbfd"/>
          <path id="Trazado_153382" data-name="Trazado 153382" d="M223.9,51.806h41.977a18.544,18.544,0,0,0,18.545-18.544V18.545A18.545,18.545,0,0,0,265.876,0H223.9a18.544,18.544,0,0,0-18.544,18.545V33.262A18.544,18.544,0,0,0,223.9,51.806" transform="translate(69.36 0)" fill="#fafbfd"/>
          <path id="Trazado_153383" data-name="Trazado 153383" d="M275.49,55.905l-11.2,14.157a1.817,1.817,0,0,1-3.181-1.594l3.932-14.8Z" transform="translate(31.837 -8.894)" fill="#fafbfd"/>
          <path id="Trazado_165201" data-name="Trazado 165201" d="M6.308.152a4.742,4.742,0,0,0,4.579-2.584l-2.3-1.254a2.515,2.515,0,0,1-2.3,1.406A2.616,2.616,0,0,1,3.61-5.111,2.616,2.616,0,0,1,6.289-7.942a2.549,2.549,0,0,1,2.3,1.406l2.3-1.235a4.7,4.7,0,0,0-4.579-2.6c-3.325,0-5.7,2.185-5.7,5.263S2.983.152,6.308.152Zm7.961-11.8a1.7,1.7,0,0,0,1.843-1.71,1.664,1.664,0,0,0-1.843-1.6A1.694,1.694,0,0,0,12.426-13.3,1.694,1.694,0,0,0,14.269-11.647ZM12.787,0h2.964V-10.222H12.787ZM22.8-10.374a7.858,7.858,0,0,0-4.408,1.235l1.064,2.071a4.915,4.915,0,0,1,2.945-.95c1.6,0,2.356.741,2.356,2.014H22.4c-3.116,0-4.389,1.254-4.389,3.059,0,1.767,1.425,3.1,3.819,3.1a3.355,3.355,0,0,0,3.116-1.425V0h2.774V-5.833C27.721-8.93,25.916-10.374,22.8-10.374Zm-.228,8.531c-1.045,0-1.672-.494-1.672-1.235,0-.684.437-1.2,1.824-1.2h2.033V-3.23A2.184,2.184,0,0,1,22.572-1.843Zm13.11,2c3.249,0,5.605-2.185,5.605-5.263s-2.356-5.263-5.605-5.263-5.624,2.185-5.624,5.263S32.433.152,35.682.152Zm0-2.432A2.594,2.594,0,0,1,33.06-5.111a2.594,2.594,0,0,1,2.622-2.831,2.58,2.58,0,0,1,2.6,2.831A2.58,2.58,0,0,1,35.682-2.28Zm7.961-2.337H46l.589-8.683H43.054ZM44.821.152a1.746,1.746,0,0,0,1.824-1.729,1.706,1.706,0,0,0-1.824-1.691A1.706,1.706,0,0,0,43-1.577,1.746,1.746,0,0,0,44.821.152Z" transform="translate(290.02 33.615)" fill="#221914"/>
          <path id="Trazado_153384" data-name="Trazado 153384" d="M472.283,74.523h42.285a19.768,19.768,0,0,0,19.768-19.767V43.241a19.767,19.767,0,0,0-19.768-19.767H472.283a19.766,19.766,0,0,0-19.767,19.767V54.756a19.767,19.767,0,0,0,19.767,19.767" transform="translate(-33.385 -22.364)" fill="#fc83b9"/>
          <path id="Trazado_153385" data-name="Trazado 153385" d="M494.128,82.847,483.833,95.855a1.67,1.67,0,0,1-2.923-1.465l3.613-13.6Z" transform="translate(-39.998 -35.741)" fill="#fc83b9"/>
          <path id="Trazado_165203" data-name="Trazado 165203" d="M7.4-4.987A4.725,4.725,0,0,0,3.981-3.709V-8.9H.864V5.923H3.981V.608c0-1.978,1.079-2.9,2.578-2.9,1.379,0,2.178.8,2.178,2.538V5.923h3.117V-.232C11.854-3.509,9.936-4.987,7.4-4.987ZM25.643.588a5.322,5.322,0,0,0-5.6-5.575A5.473,5.473,0,0,0,14.312.548c0,3.2,2.418,5.535,6.135,5.535a5.631,5.631,0,0,0,4.436-1.738l-1.659-1.8a3.644,3.644,0,0,1-2.7,1.039A2.867,2.867,0,0,1,17.45,1.427h8.133C25.6,1.167,25.643.828,25.643.588ZM20.067-2.629A2.555,2.555,0,0,1,22.705-.391h-5.3A2.545,2.545,0,0,1,20.067-2.629Zm7.853,8.553h3.117V-8.9H27.921Zm6.215,0h3.117V-8.9H34.135Zm11.31.16c3.417,0,5.895-2.3,5.895-5.535s-2.478-5.535-5.895-5.535S39.53-2.689,39.53.548,42.028,6.083,45.445,6.083Zm0-2.558A2.728,2.728,0,0,1,42.688.548,2.728,2.728,0,0,1,45.445-2.43,2.713,2.713,0,0,1,48.183.548,2.713,2.713,0,0,1,45.445,3.525Zm8.393-2.458h2.478l.619-9.132H53.219Zm1.239,5.016A1.837,1.837,0,0,0,57,4.265a1.924,1.924,0,0,0-3.837,0A1.837,1.837,0,0,0,55.077,6.083Z" transform="translate(433.477 25.71)" fill="#fafbfd"/>
          <path id="Trazado_153386" data-name="Trazado 153386" d="M659.131,42.4h33.212a16.418,16.418,0,0,0,16.419-16.418V16.418A16.419,16.419,0,0,0,692.343,0H659.131a16.418,16.418,0,0,0-16.418,16.418v9.565A16.418,16.418,0,0,0,659.131,42.4" transform="translate(-66.28 56.404)" fill="#fafbfd"/>
          <path id="Trazado_153387" data-name="Trazado 153387" d="M676.983,59.024l-8.551,10.8A1.387,1.387,0,0,1,666,68.612l3-11.3Z" transform="translate(-74.722 35.584)" fill="#fafbfd"/>
          <path id="Trazado_165204" data-name="Trazado 165204" d="M6.783-9.282A4.02,4.02,0,0,0,3.876-8.194v-4.42H1.224V0H3.876V-4.522c0-1.683.918-2.465,2.193-2.465,1.173,0,1.853.68,1.853,2.159V0h2.652V-5.236C10.574-8.024,8.942-9.282,6.783-9.282ZM17.7.136a4.694,4.694,0,0,0,5.015-4.709A4.694,4.694,0,0,0,17.7-9.282a4.708,4.708,0,0,0-5.032,4.709A4.708,4.708,0,0,0,17.7.136Zm0-2.176a2.321,2.321,0,0,1-2.346-2.533A2.321,2.321,0,0,1,17.7-7.106a2.308,2.308,0,0,1,2.329,2.533A2.308,2.308,0,0,1,17.7-2.04ZM24.65,0H27.3V-12.614H24.65Zm8.959-9.282a7.031,7.031,0,0,0-3.944,1.1l.952,1.853a4.4,4.4,0,0,1,2.635-.85c1.428,0,2.108.663,2.108,1.8H33.252c-2.788,0-3.927,1.122-3.927,2.737,0,1.581,1.275,2.771,3.417,2.771A3,3,0,0,0,35.53-1.139V0h2.482V-5.219C38.012-7.99,36.4-9.282,33.609-9.282Zm-.2,7.633c-.935,0-1.5-.442-1.5-1.1,0-.612.391-1.071,1.632-1.071H35.36v.935A1.954,1.954,0,0,1,33.4-1.649Zm7.361-2.482h2.108L43.4-11.9H40.239ZM41.82.136a1.563,1.563,0,0,0,1.632-1.547A1.526,1.526,0,0,0,41.82-2.924a1.526,1.526,0,0,0-1.632,1.513A1.563,1.563,0,0,0,41.82.136Z" transform="translate(588.02 81.616)" fill="#221914"/>
        </g>
      </g>
    </g>
  </g>
</svg>
