<svg xmlns="http://www.w3.org/2000/svg" width="374.144" height="394.997" viewBox="0 0 374.144 394.997">
  <g id="Grupo_170672" data-name="Grupo 170672" transform="translate(-919.361 -179.665)">
    <g id="Grupo_162308" data-name="Grupo 162308" transform="translate(1154.282 255.903) rotate(-20)">
      <path id="Trazado_118782" data-name="Trazado 118782" d="M-21.787,94.1c-4-4.479-10.332-5.793-15.951-6.674a275.642,275.642,0,0,0-53.044-3.1c-5.656.218-11.384.957-14.982,4.849-3.163,3.416-3.674,8.212-3.9,12.438a179.175,179.175,0,0,0,.02,19.768c.217,3.834.63,7.848,3.029,11.066,3.269,4.389,9.077,5.779,14.866,6.625a274.426,274.426,0,0,0,32.858,2.795,24.188,24.188,0,0,0,20.21,10.714,28.074,28.074,0,0,0,5.273-.511l3.217-.616-2.89-1.54a21.005,21.005,0,0,1-8.393-8.252c4.992-.39,10.842-1.479,15.262-5.217,6.356-5.378,7.586-14.126,8.3-22.626C-17.319,106.7-17.126,99.317-21.787,94.1Z" transform="translate(109.931 -84.122)" fill="#fff"/>
      <g id="Grupo_84976" data-name="Grupo 84976">
        <g id="Grupo_84972" data-name="Grupo 84972">
          <path id="Trazado_118783" data-name="Trazado 118783" d="M-21.787,94.1c-4-4.479-10.332-5.793-15.951-6.674a275.651,275.651,0,0,0-53.044-3.1c-5.656.218-11.384.957-14.982,4.849-3.163,3.416-3.674,8.212-3.9,12.438a179.621,179.621,0,0,0,.022,19.768c.217,3.834.63,7.848,3.029,11.066,3.268,4.389,9.077,5.779,14.866,6.625a274.394,274.394,0,0,0,32.858,2.795,24.188,24.188,0,0,0,20.21,10.714,28.074,28.074,0,0,0,5.273-.511l3.217-.616-2.892-1.54a21.005,21.005,0,0,1-8.393-8.252c4.993-.39,10.844-1.479,15.262-5.217,6.358-5.378,7.588-14.126,8.3-22.626C-17.319,106.7-17.126,99.317-21.787,94.1Zm-5.923,40.583c-4.423,3.742-10.689,4.526-15.654,4.789l-1.7.088.708,1.545a23.477,23.477,0,0,0,7.405,9.1A21.78,21.78,0,0,1-57.3,140.091l-.332-.507-.608-.014a271.948,271.948,0,0,1-33.176-2.786c-5.3-.774-10.581-2.006-13.348-5.717-2.015-2.706-2.376-6.335-2.574-9.819a177.2,177.2,0,0,1-.02-19.512c.208-3.824.652-8.142,3.291-10.994,3.027-3.273,8.218-3.908,13.375-4.109,3.47-.132,6.99-.2,10.467-.2A273.193,273.193,0,0,1-38.1,89.708a42.46,42.46,0,0,1,8.738,2.121L-41.125,99.8a.869.869,0,0,0-.233,1.208.87.87,0,0,0,.72.381.869.869,0,0,0,.487-.15l12.65-8.57a13.839,13.839,0,0,1,3.627,2.625,156.222,156.222,0,0,1-20.434,14.791.871.871,0,0,0-.292,1.193.872.872,0,0,0,.744.419.876.876,0,0,0,.451-.126A158.121,158.121,0,0,0-22.774,96.64a13.463,13.463,0,0,1,1.98,4.129l-11.5,8.7a.867.867,0,0,0-.168,1.217.865.865,0,0,0,.693.345.864.864,0,0,0,.524-.177l10.889-8.237a29.143,29.143,0,0,1,.422,5.3c-2.554,1.888-5.022,3.632-7.409,5.308-2.222,1.563-4.32,3.04-6.241,4.468a.869.869,0,0,0-.177,1.215.868.868,0,0,0,.7.35.874.874,0,0,0,.518-.172c1.906-1.419,3.993-2.887,6.2-4.439,2.051-1.441,4.176-2.95,6.353-4.54-.054,1.172-.13,2.349-.227,3.52-.038.437-.076.876-.116,1.312l-11.144,8.432a.867.867,0,0,0-.168,1.217.865.865,0,0,0,.693.345.862.862,0,0,0,.524-.175l9.851-7.454C-21.348,124.076-22.893,130.606-27.71,134.681Z" transform="translate(109.931 -84.122)" fill="#231f20"/>
        </g>
        <g id="Grupo_165573" data-name="Grupo 165573" transform="translate(4.915 4.107)">
          <rect id="Rectángulo_40935" data-name="Rectángulo 40935" width="80.239" height="45.183" rx="21" transform="translate(2.365 0) rotate(3)" fill="#fff"/>
          <path id="Trazado_150474" data-name="Trazado 150474" d="M.813,9.686q0-.992.046-1.893T.98,6q.076-.891.182-1.787T1.39,2.347a.826.826,0,0,1,.3-.607.917.917,0,0,1,.547-.182.716.716,0,0,1,.612.4,2.1,2.1,0,0,1,.248,1.1q0,.921-.025,1.969t-.056,2.1Q2.989,8.188,2.964,9.2t-.025,1.883q0,.638.02,1.164t.066.906a3.144,3.144,0,0,0,.116.592q.071.213.182.213.182,0,.359-.4a7.622,7.622,0,0,0,.354-1.048q.177-.648.369-1.483t.4-1.7q.208-.865.445-1.7a13.731,13.731,0,0,1,.506-1.483A4.6,4.6,0,0,1,6.335,5.1.856.856,0,0,1,7,4.7a.764.764,0,0,1,.643.43A4.418,4.418,0,0,1,8.106,6.26a14.08,14.08,0,0,1,.339,1.6q.142.9.258,1.837t.223,1.837q.106.9.243,1.6a6.45,6.45,0,0,0,.309,1.134q.172.43.415.43.182,0,.3-.238a2.469,2.469,0,0,0,.187-.653,7.989,7.989,0,0,0,.1-.967q.025-.552.035-1.179t.005-1.291q-.005-.663-.005-1.3,0-1.63.025-3.229t.025-3.219a2.32,2.32,0,0,1,.035-.359,1.889,1.889,0,0,1,.116-.415,1.022,1.022,0,0,1,.223-.339.481.481,0,0,1,.354-.142.844.844,0,0,1,.466.137,1.431,1.431,0,0,1,.369.344,2.122,2.122,0,0,1,.263.461,2.259,2.259,0,0,1,.147.486,10.376,10.376,0,0,1,.127,1.534q.015.876-.01,1.812t-.066,1.863q-.04.926-.04,1.675T12.51,11.3q-.035.865-.137,1.716a15.37,15.37,0,0,1-.283,1.64,6.108,6.108,0,0,1-.491,1.4,2.914,2.914,0,0,1-.754.967,1.747,1.747,0,0,1-2.1.02,2.836,2.836,0,0,1-.739-.9,5.629,5.629,0,0,1-.491-1.27,13.848,13.848,0,0,1-.3-1.453q-.111-.739-.162-1.453T6.973,10.7q-.035-.557-.061-.9t-.086-.339q-.061,0-.147.334t-.2.876q-.116.542-.273,1.24t-.369,1.422q-.213.724-.481,1.422A7.192,7.192,0,0,1,4.746,16,3.533,3.533,0,0,1,4,16.873a1.414,1.414,0,0,1-.916.334,1.247,1.247,0,0,1-.957-.425,3.349,3.349,0,0,1-.643-1.1,7.914,7.914,0,0,1-.39-1.513q-.137-.84-.2-1.675T.823,10.911Q.813,10.162.813,9.686ZM13.7,14.93q0-.223.005-.926t.015-1.7q.01-1,.03-2.207t.051-2.45q.03-1.24.081-2.419T13.993,3.1q.061-.946.142-1.569a1.925,1.925,0,0,1,.182-.744A.843.843,0,0,1,14.58.631a1.194,1.194,0,0,1,.5-.1.778.778,0,0,1,.638.258,1.461,1.461,0,0,1,.294.623,3.514,3.514,0,0,1,.081.764v.673q0,.466-.015,1.129t-.035,1.412q-.02.749-.046,1.529t-.035,1.493q-.01.714-.01,1.3t.03.952q.03.4.172.4t.294-.334q.152-.314.369-.769a5.624,5.624,0,0,1,.526-.881,3.2,3.2,0,0,1,.724-.724,1.6,1.6,0,0,1,.962-.3,1.694,1.694,0,0,1,.845.2,1.845,1.845,0,0,1,.6.531,2.248,2.248,0,0,1,.349.749,3.325,3.325,0,0,1,.111.855q0,.83-.035,1.589T20.811,13.5q-.046.749-.081,1.513t-.035,1.594q0,.314-.182.39a1.159,1.159,0,0,1-.445.076,1.45,1.45,0,0,1-.83-.192.966.966,0,0,1-.375-.531,2.566,2.566,0,0,1-.091-.79q.01-.45.01-.967,0-.375.015-.81t.035-.871q.02-.435.035-.84t.01-.714a4.252,4.252,0,0,0-.03-.491q-.025-.182-.1-.182a.688.688,0,0,0-.41.233,4.431,4.431,0,0,0-.537.633,10.2,10.2,0,0,0-.6.946q-.309.547-.6,1.169t-.542,1.291a13.106,13.106,0,0,0-.425,1.326,1.413,1.413,0,0,1-.273.516.646.646,0,0,1-.526.233.876.876,0,0,1-.623-.213,1.344,1.344,0,0,1-.344-.531,2.626,2.626,0,0,1-.147-.688Q13.7,15.233,13.7,14.93Zm14.87.688a2.353,2.353,0,0,1,.03.709,1.415,1.415,0,0,1-.147.5.742.742,0,0,1-.268.288.663.663,0,0,1-.344.1.6.6,0,0,1-.42-.162,1.393,1.393,0,0,1-.3-.4,2.935,2.935,0,0,1-.2-.516q-.081-.278-.142-.516t-.106-.4q-.046-.162-.106-.162a.407.407,0,0,0-.268.147,3.893,3.893,0,0,0-.319.369q-.172.223-.38.481a3.68,3.68,0,0,1-.466.481,2.478,2.478,0,0,1-.572.369,1.6,1.6,0,0,1-.688.147,1.661,1.661,0,0,1-.941-.283A2.534,2.534,0,0,1,22.2,16a3.92,3.92,0,0,1-.471-1.093,4.9,4.9,0,0,1-.167-1.286,6.39,6.39,0,0,1,.132-1.24,8.194,8.194,0,0,1,.38-1.316,7.3,7.3,0,0,1,.617-1.25,5.363,5.363,0,0,1,.85-1.058,3.94,3.94,0,0,1,1.068-.734,2.985,2.985,0,0,1,1.275-.273,2.3,2.3,0,0,1,.972.187,1.989,1.989,0,0,1,.683.511,2.56,2.56,0,0,1,.445.759,5.211,5.211,0,0,1,.258.936,8.474,8.474,0,0,1,.121,1.038q.03.537.03,1.063t.015,1.022q.015.506.035.957t.056.81Q28.539,15.4,28.57,15.618Zm-4.991-1.6a1.4,1.4,0,0,0,.167.749q.167.263.309.263a.916.916,0,0,0,.547-.2,2.943,2.943,0,0,0,.537-.531,5.3,5.3,0,0,0,.491-.739,8.04,8.04,0,0,0,.4-.825,6.642,6.642,0,0,0,.273-.785,2.433,2.433,0,0,0,.1-.623q0-.01-.005-.111t-.025-.248q-.02-.147-.061-.319a1.335,1.335,0,0,0-.121-.324.778.778,0,0,0-.2-.248.458.458,0,0,0-.294-.1.819.819,0,0,0-.521.213,2.559,2.559,0,0,0-.491.562,5.894,5.894,0,0,0-.435.785,7.909,7.909,0,0,0-.349.886,7.99,7.99,0,0,0-.233.871A3.686,3.686,0,0,0,23.579,14.019Zm8.3-9.05q-.01.121-.02.2a.252.252,0,0,0,.01.127.123.123,0,0,0,.081.071.661.661,0,0,0,.192.02h.106a1.132,1.132,0,0,0,.137-.01q.344-.02.673-.035t.673-.015q.364,0,.855.02a6.065,6.065,0,0,1,.926.106,2.465,2.465,0,0,1,.739.258.527.527,0,0,1,.3.476.624.624,0,0,1-.137.39,1.059,1.059,0,0,1-.43.3,3.153,3.153,0,0,1-.764.2,7.715,7.715,0,0,1-1.129.071q-.223,0-.476.02l-.5.04q-.248.02-.486.046t-.42.035a.414.414,0,0,0-.324.167.812.812,0,0,0-.121.4q-.071,1.1-.106,2.187t-.025,2.075q.01.992.076,1.858A14.57,14.57,0,0,0,31.9,15.5q.091.435.2.779a5.821,5.821,0,0,1,.157.607.906.906,0,0,1-.01.45.585.585,0,0,1-.3.319.88.88,0,0,1-.395.1.864.864,0,0,1-.5-.157,2.006,2.006,0,0,1-.4-.369,2.8,2.8,0,0,1-.294-.42q-.116-.208-.157-.3a4.266,4.266,0,0,1-.268-.987q-.106-.623-.167-1.392t-.086-1.62q-.025-.85-.025-1.675t.02-1.559q.02-.734.051-1.25a1.514,1.514,0,0,0,.01-.283q-.01-.051-.223-.051h-.243a1.406,1.406,0,0,1-.82-.213.619.619,0,0,1-.3-.516.528.528,0,0,1,.1-.314,1.179,1.179,0,0,1,.278-.268,2.637,2.637,0,0,1,.415-.238q.238-.111.511-.223a.864.864,0,0,0,.294-.187.6.6,0,0,0,.121-.369q.02-.385.061-.815t.1-.845q.056-.415.137-.79a5.573,5.573,0,0,1,.182-.663,1.586,1.586,0,0,1,.233-.456.367.367,0,0,1,.283-.167,1.094,1.094,0,0,1,.3.051,1.251,1.251,0,0,1,.334.157,1.029,1.029,0,0,1,.283.283.936.936,0,0,1,.152.42q.01.081.015.334t.005.592q0,.339-.015.734T31.88,4.969ZM44.928,15.618a2.353,2.353,0,0,1,.03.709,1.415,1.415,0,0,1-.147.5.742.742,0,0,1-.268.288.663.663,0,0,1-.344.1.6.6,0,0,1-.42-.162,1.393,1.393,0,0,1-.3-.4,2.936,2.936,0,0,1-.2-.516q-.081-.278-.142-.516t-.106-.4q-.046-.162-.106-.162a.407.407,0,0,0-.268.147,3.893,3.893,0,0,0-.319.369q-.172.223-.38.481a3.68,3.68,0,0,1-.466.481,2.478,2.478,0,0,1-.572.369,1.6,1.6,0,0,1-.688.147,1.661,1.661,0,0,1-.941-.283A2.534,2.534,0,0,1,38.561,16a3.92,3.92,0,0,1-.471-1.093,4.9,4.9,0,0,1-.167-1.286,6.39,6.39,0,0,1,.132-1.24,8.2,8.2,0,0,1,.38-1.316,7.3,7.3,0,0,1,.617-1.25A5.363,5.363,0,0,1,39.9,8.76a3.94,3.94,0,0,1,1.068-.734,2.985,2.985,0,0,1,1.275-.273,2.3,2.3,0,0,1,.972.187,1.989,1.989,0,0,1,.683.511,2.56,2.56,0,0,1,.445.759,5.211,5.211,0,0,1,.258.936,8.476,8.476,0,0,1,.121,1.038q.03.537.03,1.063t.015,1.022q.015.506.035.957t.056.81Q44.9,15.4,44.928,15.618Zm-4.991-1.6a1.4,1.4,0,0,0,.167.749q.167.263.309.263a.916.916,0,0,0,.547-.2A2.942,2.942,0,0,0,41.5,14.3a5.3,5.3,0,0,0,.491-.739,8.04,8.04,0,0,0,.4-.825,6.642,6.642,0,0,0,.273-.785,2.432,2.432,0,0,0,.1-.623q0-.01-.005-.111t-.025-.248q-.02-.147-.061-.319a1.335,1.335,0,0,0-.121-.324.778.778,0,0,0-.2-.248.458.458,0,0,0-.294-.1.819.819,0,0,0-.521.213,2.559,2.559,0,0,0-.491.562,5.894,5.894,0,0,0-.435.785,7.908,7.908,0,0,0-.349.886,7.99,7.99,0,0,0-.233.871A3.686,3.686,0,0,0,39.938,14.019Zm5.81,2.308a2.75,2.75,0,0,1-.071-.491q-.03-.359-.046-.85t-.02-1.058q-.005-.567-.005-1.1t.005-1q.005-.461.005-.734a5.868,5.868,0,0,1,.051-.719,3.376,3.376,0,0,1,.182-.759,1.911,1.911,0,0,1,.349-.6.713.713,0,0,1,.562-.248.542.542,0,0,1,.4.137,1.031,1.031,0,0,1,.213.3q.076.167.127.3t.152.137a.416.416,0,0,0,.243-.152q.142-.142.324-.309a3.049,3.049,0,0,1,.41-.314,2.521,2.521,0,0,1,.506-.248,1.78,1.78,0,0,1,.612-.1,1.862,1.862,0,0,1,.795.167,1.936,1.936,0,0,1,.612.44,2.051,2.051,0,0,1,.395.617,1.82,1.82,0,0,1,.142.7,2.275,2.275,0,0,1-.03.375,1.024,1.024,0,0,1-.111.329.641.641,0,0,1-.228.238.732.732,0,0,1-.39.091.659.659,0,0,1-.461-.137,1.417,1.417,0,0,1-.248-.3,2.327,2.327,0,0,0-.218-.3.446.446,0,0,0-.359-.137,1.05,1.05,0,0,0-.749.38,3.525,3.525,0,0,0-.643.992,7,7,0,0,0-.45,1.4,7.466,7.466,0,0,0-.172,1.6,4.81,4.81,0,0,1-.081.952,2.264,2.264,0,0,1-.223.648.965.965,0,0,1-.324.364.743.743,0,0,1-.395.111.715.715,0,0,1-.324-.071.946.946,0,0,1-.248-.177,1.063,1.063,0,0,1-.177-.233A1.635,1.635,0,0,1,45.748,16.327Zm12.431-5.76a3.277,3.277,0,0,1-.162,1.043,3.753,3.753,0,0,1-.43.891,3.829,3.829,0,0,1-.612.719,5.119,5.119,0,0,1-.693.537,3.745,3.745,0,0,1-.683.349,1.91,1.91,0,0,1-.587.137.483.483,0,0,0-.354.116.356.356,0,0,0-.091.238.623.623,0,0,0,.061.263,1.965,1.965,0,0,0,.111.213,1.189,1.189,0,0,0,.42.385,1.787,1.787,0,0,0,.845.152,4.816,4.816,0,0,0,.683-.061,3.857,3.857,0,0,0,.891-.258,4.891,4.891,0,0,0,2.03-1.6.4.4,0,0,1,.152-.121.424.424,0,0,1,.577.177,1.81,1.81,0,0,1-.03,1.61,2.6,2.6,0,0,1-.552.668,4.457,4.457,0,0,1-.81.562,6.129,6.129,0,0,1-.982.43,7.142,7.142,0,0,1-1.073.273,6.272,6.272,0,0,1-1.078.1,4.248,4.248,0,0,1-1.6-.288,3.211,3.211,0,0,1-1.2-.835,3.74,3.74,0,0,1-.754-1.336,5.653,5.653,0,0,1-.263-1.792,7.9,7.9,0,0,1,.1-1.25,7.674,7.674,0,0,1,.3-1.235,6.213,6.213,0,0,1,.506-1.129,4.144,4.144,0,0,1,.714-.921,3.171,3.171,0,0,1,.926-.623,2.778,2.778,0,0,1,1.134-.228,2.4,2.4,0,0,1,1.2.273,2.306,2.306,0,0,1,.769.688,2.786,2.786,0,0,1,.415.916A3.872,3.872,0,0,1,58.179,10.567ZM54.19,12.278q0,.04.005.111a.336.336,0,0,0,.04.137.3.3,0,0,0,.106.111.375.375,0,0,0,.2.046,1.122,1.122,0,0,0,.653-.258,3.171,3.171,0,0,0,.638-.638,4.042,4.042,0,0,0,.481-.815,1.961,1.961,0,0,0,.192-.779,1.333,1.333,0,0,0-.03-.268,1.222,1.222,0,0,0-.1-.283.634.634,0,0,0-.182-.228.47.47,0,0,0-.3-.091.858.858,0,0,0-.557.288,3.186,3.186,0,0,0-.557.729,5.186,5.186,0,0,0-.425.962A3.125,3.125,0,0,0,54.19,12.278ZM.742,25.789q0-.152.015-.39t.051-.516a4.62,4.62,0,0,1,.106-.557,2.869,2.869,0,0,1,.177-.506,1.181,1.181,0,0,1,.258-.369.5.5,0,0,1,.354-.142.7.7,0,0,1,.516.192,1.3,1.3,0,0,1,.3.486,2.671,2.671,0,0,1,.142.638,6.344,6.344,0,0,1,.035.648q0,.243-.01.638t-.005.835q.005.44.051.886a3.684,3.684,0,0,0,.167.8,1.638,1.638,0,0,0,.329.587.687.687,0,0,0,.531.228,1.145,1.145,0,0,0,.521-.137,1.811,1.811,0,0,0,.506-.395,2.981,2.981,0,0,0,.43-.617,2.947,2.947,0,0,0,.283-.8q.03-.152.061-.481t.066-.739q.035-.41.071-.855t.081-.825q.046-.38.1-.648A.568.568,0,0,1,6,23.431q.02-.02.061-.071a.716.716,0,0,1,.1-.1.74.74,0,0,1,.157-.1.667.667,0,0,1,.238-.056h.081a.7.7,0,0,1,.415.121,1.053,1.053,0,0,1,.288.309,1.341,1.341,0,0,1,.167.4,1.711,1.711,0,0,1,.051.395q0,.82-.005,1.7T7.54,27.7q-.005.79-.01,1.412t-.005.926A18.8,18.8,0,0,1,7.327,33a6.516,6.516,0,0,1-.6,1.974,2.588,2.588,0,0,1-1.007,1.1,2.9,2.9,0,0,1-1.437.339,3.253,3.253,0,0,1-1.027-.147,2.2,2.2,0,0,1-.734-.395,1.635,1.635,0,0,1-.44-.567,1.568,1.568,0,0,1-.147-.663.843.843,0,0,1,.167-.511.5.5,0,0,1,.42-.228.4.4,0,0,1,.339.172l.273.375a1.844,1.844,0,0,0,.369.375,1.006,1.006,0,0,0,.628.172,1.055,1.055,0,0,0,.83-.329,2.1,2.1,0,0,0,.435-.921,7.778,7.778,0,0,0,.182-1.407q.04-.815.061-1.8a1.161,1.161,0,0,0-.02-.218.114.114,0,0,0-.121-.106.553.553,0,0,0-.369.157q-.177.157-.415.349a2.753,2.753,0,0,1-.577.349,2.039,2.039,0,0,1-.855.157,2.022,2.022,0,0,1-1.027-.243,2.165,2.165,0,0,1-.7-.653,3.346,3.346,0,0,1-.445-.952,7.436,7.436,0,0,1-.243-1.149,12.352,12.352,0,0,1-.1-1.235Q.742,26.366.742,25.789ZM11.7,22.864a2.489,2.489,0,0,1,1.392.4,3.607,3.607,0,0,1,1.043,1.053,5.173,5.173,0,0,1,.658,1.473,6.212,6.212,0,0,1,.228,1.67,5.139,5.139,0,0,1-.324,1.863,4.657,4.657,0,0,1-.855,1.437,3.822,3.822,0,0,1-1.225.926,3.284,3.284,0,0,1-1.422.329,2.342,2.342,0,0,1-1.306-.349,2.745,2.745,0,0,1-.865-.9,4,4,0,0,1-.476-1.22,6.19,6.19,0,0,1-.147-1.321,6.927,6.927,0,0,1,.116-1.245,7.756,7.756,0,0,1,.329-1.23,7.173,7.173,0,0,1,.511-1.119,4.823,4.823,0,0,1,.668-.921,3.091,3.091,0,0,1,.795-.623A1.842,1.842,0,0,1,11.7,22.864Zm.172,1.923a.694.694,0,0,0-.5.319,3.383,3.383,0,0,0-.471.83,6.562,6.562,0,0,0-.349,1.154,6.19,6.19,0,0,0-.137,1.291q0,.1.01.395a3.026,3.026,0,0,0,.086.607,1.554,1.554,0,0,0,.253.557.584.584,0,0,0,.5.243.99.99,0,0,0,.638-.263,2.642,2.642,0,0,0,.562-.678,3.974,3.974,0,0,0,.4-.941,3.782,3.782,0,0,0,.152-1.053q0-.172-.01-.425a4.943,4.943,0,0,0-.051-.526,4.3,4.3,0,0,0-.116-.542,2.1,2.1,0,0,0-.2-.486,1.086,1.086,0,0,0-.314-.349A.763.763,0,0,0,11.867,24.787Zm6.1,7.238a1.945,1.945,0,0,1-.926-.208,1.97,1.97,0,0,1-.663-.577,3.018,3.018,0,0,1-.435-.865,6.9,6.9,0,0,1-.253-1.083,11.6,11.6,0,0,1-.121-1.235q-.03-.648-.03-1.306,0-.162.01-.5t.051-.744q.04-.41.121-.845a4.317,4.317,0,0,1,.223-.795,1.85,1.85,0,0,1,.359-.592.689.689,0,0,1,.521-.233.815.815,0,0,1,.359.086.994.994,0,0,1,.309.233,1.183,1.183,0,0,1,.213.344,1.1,1.1,0,0,1,.081.42q0,.435-.04.891t-.086.916q-.046.461-.086.926t-.04.921q0,.152.005.38t.035.486a4.6,4.6,0,0,0,.091.516,2.046,2.046,0,0,0,.167.466.986.986,0,0,0,.268.334.622.622,0,0,0,.395.127.9.9,0,0,0,.709-.329,2.622,2.622,0,0,0,.466-.84,6.205,6.205,0,0,0,.278-1.129q.1-.617.137-1.2t.046-1.053q.005-.471.005-.683a3.276,3.276,0,0,1,.051-.577,1.784,1.784,0,0,1,.162-.5.985.985,0,0,1,.288-.349.685.685,0,0,1,.42-.132.667.667,0,0,1,.44.147,1.1,1.1,0,0,1,.288.38,2.014,2.014,0,0,1,.162.511,3.025,3.025,0,0,1,.051.542q0,.82-.03,1.559t-.061,1.468q-.03.729-.061,1.473t-.03,1.574a2.1,2.1,0,0,1-.253,1.189.778.778,0,0,1-.658.349,1.238,1.238,0,0,1-.537-.091.567.567,0,0,1-.258-.233.732.732,0,0,1-.086-.3q-.01-.162-.01-.3a.65.65,0,0,0-.035-.233.149.149,0,0,0-.157-.091.428.428,0,0,0-.273.121q-.142.121-.344.273a2.274,2.274,0,0,1-.5.273A1.944,1.944,0,0,1,17.971,32.025ZM34.613,15.383a.547.547,0,0,1,.45.228,1.746,1.746,0,0,1,.278.542,3.205,3.205,0,0,1,.137.653,3.793,3.793,0,0,1,.025.552q-.061,2.014-.167,3.892t-.192,3.735q-.086,1.858-.111,3.74t.066,3.907a1.706,1.706,0,0,1-.02.248.883.883,0,0,1-.076.253.584.584,0,0,1-.152.2.357.357,0,0,1-.238.081.8.8,0,0,1-.592-.228,1.634,1.634,0,0,1-.359-.557,3.339,3.339,0,0,1-.192-.693q-.061-.364-.1-.648-.03-.223-.066-.43t-.071-.375a1.355,1.355,0,0,0-.081-.268q-.046-.1-.1-.1a.366.366,0,0,0-.243.132q-.132.132-.294.324t-.369.425a3.113,3.113,0,0,1-.466.425,2.581,2.581,0,0,1-.587.324,1.96,1.96,0,0,1-.734.132,2.581,2.581,0,0,1-1.159-.248,2.476,2.476,0,0,1-.84-.668A2.934,2.934,0,0,1,27.851,30a3.623,3.623,0,0,1-.172-1.114,7.376,7.376,0,0,1,.121-1.311,7.913,7.913,0,0,1,.354-1.311,7.558,7.558,0,0,1,.562-1.2,5.253,5.253,0,0,1,.734-.992,3.3,3.3,0,0,1,.891-.673,2.219,2.219,0,0,1,1.022-.248,1.566,1.566,0,0,1,.435.056q.192.056.354.116t.294.116a.649.649,0,0,0,.253.056.308.308,0,0,0,.228-.086.574.574,0,0,0,.132-.208,1.068,1.068,0,0,0,.061-.243q.015-.121.025-.182.061-.425.1-1.007t.076-1.235q.035-.653.076-1.331t.1-1.3q.056-.623.142-1.144a5.193,5.193,0,0,1,.208-.865.813.813,0,0,1,.288-.344A.787.787,0,0,1,34.613,15.383ZM29.693,29.17a.907.907,0,0,0,.051.324.7.7,0,0,0,.121.213.437.437,0,0,0,.152.116.38.38,0,0,0,.152.035.894.894,0,0,0,.542-.2,2.87,2.87,0,0,0,.516-.516,5.461,5.461,0,0,0,.466-.7,8.308,8.308,0,0,0,.38-.754A5.624,5.624,0,0,0,32.325,27a1.877,1.877,0,0,0,.091-.476,1.1,1.1,0,0,0-.04-.283.845.845,0,0,0-.132-.278.764.764,0,0,0-.238-.213.679.679,0,0,0-.349-.086.892.892,0,0,0-.552.2,2.248,2.248,0,0,0-.476.511,4.5,4.5,0,0,0-.395.7,6.109,6.109,0,0,0-.294.779,7.339,7.339,0,0,0-.182.739A3.219,3.219,0,0,0,29.693,29.17Zm9.647-6.306a2.489,2.489,0,0,1,1.392.4,3.607,3.607,0,0,1,1.043,1.053,5.173,5.173,0,0,1,.658,1.473,6.212,6.212,0,0,1,.228,1.67,5.139,5.139,0,0,1-.324,1.863,4.657,4.657,0,0,1-.855,1.437,3.822,3.822,0,0,1-1.225.926,3.284,3.284,0,0,1-1.422.329,2.342,2.342,0,0,1-1.306-.349,2.745,2.745,0,0,1-.865-.9,4,4,0,0,1-.476-1.22,6.189,6.189,0,0,1-.147-1.321,6.927,6.927,0,0,1,.116-1.245,7.756,7.756,0,0,1,.329-1.23A7.173,7.173,0,0,1,37,24.635a4.823,4.823,0,0,1,.668-.921,3.091,3.091,0,0,1,.795-.623A1.842,1.842,0,0,1,39.34,22.864Zm.172,1.923a.694.694,0,0,0-.5.319,3.382,3.382,0,0,0-.471.83,6.562,6.562,0,0,0-.349,1.154,6.19,6.19,0,0,0-.137,1.291q0,.1.01.395a3.026,3.026,0,0,0,.086.607,1.554,1.554,0,0,0,.253.557.584.584,0,0,0,.5.243.99.99,0,0,0,.638-.263,2.642,2.642,0,0,0,.562-.678,3.974,3.974,0,0,0,.4-.941,3.782,3.782,0,0,0,.152-1.053q0-.172-.01-.425A4.943,4.943,0,0,0,40.6,26.3a4.3,4.3,0,0,0-.116-.542,2.1,2.1,0,0,0-.2-.486,1.086,1.086,0,0,0-.314-.349A.763.763,0,0,0,39.512,24.787Zm4.009,4.191q0-.354-.015-.941t-.01-1.255q.005-.668.051-1.351A10.125,10.125,0,0,1,43.7,24.2a2.99,2.99,0,0,1,.3-.9.583.583,0,0,1,.511-.349,1.29,1.29,0,0,1,.6.116.744.744,0,0,1,.309.531,4.6,4.6,0,0,1,.066.511q.025.309.025.744,0,.233.01.79T45.54,26.9q.005.709.01,1.483t-.005,1.463q-.01.688-.04,1.194a3.456,3.456,0,0,1-.081.668.326.326,0,0,1-.162.187,1.2,1.2,0,0,1-.248.1,1.329,1.329,0,0,1-.243.046q-.116.01-.157.01a.608.608,0,0,1-.476-.238,1.933,1.933,0,0,1-.339-.658,5.367,5.367,0,0,1-.208-.982A9.6,9.6,0,0,1,43.521,28.978Zm.2-10.052a1.946,1.946,0,0,1,.076-.552,1.319,1.319,0,0,1,.228-.45,1.023,1.023,0,0,1,.385-.3,1.279,1.279,0,0,1,.537-.106,1.488,1.488,0,0,1,.42.061.967.967,0,0,1,.369.2,1.056,1.056,0,0,1,.263.364,1.346,1.346,0,0,1,.1.557,1.548,1.548,0,0,1-.111.607,1.2,1.2,0,0,1-.3.435,1.285,1.285,0,0,1-.44.258,1.549,1.549,0,0,1-.511.086,1.034,1.034,0,0,1-.511-.111.885.885,0,0,1-.309-.278,1.02,1.02,0,0,1-.152-.375A2.087,2.087,0,0,1,43.723,18.926Zm2.844,6.2a1.635,1.635,0,0,1,.081-.461,2.113,2.113,0,0,1,.233-.511,1.574,1.574,0,0,1,.375-.415.885.885,0,0,1,.926-.076.6.6,0,0,1,.238.278,1.354,1.354,0,0,1,.1.445q.02.263.02.587,0,.617.192.617.1,0,.2-.152l.425-.638a4.722,4.722,0,0,1,.567-.693,3.243,3.243,0,0,1,.744-.562,1.961,1.961,0,0,1,.967-.233,1.442,1.442,0,0,1,.881.248,1.545,1.545,0,0,1,.511.709,3.752,3.752,0,0,1,.218,1.108,10.4,10.4,0,0,1-.02,1.437q-.051.678-.061,1.731t.081,2.591a1.227,1.227,0,0,1-.015.288.968.968,0,0,1-.1.294.776.776,0,0,1-.182.233.418.418,0,0,1-.283.1,1.152,1.152,0,0,1-.835-.289,1.811,1.811,0,0,1-.445-.688,3.133,3.133,0,0,1-.182-.82q-.035-.42-.035-.673,0-.445.035-.8t.071-.688q.035-.334.071-.663a6.688,6.688,0,0,0,.035-.714,4.654,4.654,0,0,0-.025-.542,1.383,1.383,0,0,0-.071-.324.349.349,0,0,0-.1-.157.183.183,0,0,0-.106-.04.689.689,0,0,0-.4.233,5.216,5.216,0,0,0-.531.6q-.283.364-.577.8t-.537.845a2.344,2.344,0,0,0-.177.4q-.066.2-.086.294a3.335,3.335,0,0,0-.03.5v.653q0,.344-.015.693a3.474,3.474,0,0,1-.081.633,1.353,1.353,0,0,1-.187.461.393.393,0,0,1-.344.177h-.2a.937.937,0,0,1-.3-.056,1.561,1.561,0,0,1-.3-.142,1.493,1.493,0,0,1-.258-.2.739.739,0,0,1-.167-.223,2.989,2.989,0,0,1-.167-.673q-.066-.43-.106-.967t-.051-1.134q-.01-.6-.01-1.164,0-.709.01-1.311T46.568,25.121ZM57.5,23.087a3.091,3.091,0,0,1,.526.04q.233.04.425.091t.334.091a.933.933,0,0,0,.253.04.135.135,0,0,0,.091-.035l.1-.081a.677.677,0,0,1,.127-.081.494.494,0,0,1,.172-.046h.081a.7.7,0,0,1,.415.121,1.054,1.054,0,0,1,.288.309,1.341,1.341,0,0,1,.167.4,1.711,1.711,0,0,1,.051.395q0,.82-.005,1.7t-.01,1.655q-.005.779-.01,1.372t-.005.835a13.659,13.659,0,0,1-.288,3.042,6.132,6.132,0,0,1-.8,2.014,3.136,3.136,0,0,1-1.22,1.119,3.442,3.442,0,0,1-1.534.344,3.253,3.253,0,0,1-1.027-.147,2.2,2.2,0,0,1-.734-.395,1.635,1.635,0,0,1-.44-.567,1.568,1.568,0,0,1-.147-.663.843.843,0,0,1,.167-.511.5.5,0,0,1,.42-.228.4.4,0,0,1,.339.172l.273.375a1.844,1.844,0,0,0,.369.375,1.006,1.006,0,0,0,.628.172,1.409,1.409,0,0,0,.931-.329,2.488,2.488,0,0,0,.658-.921,5.717,5.717,0,0,0,.395-1.407,11.31,11.31,0,0,0,.132-1.8V30.41a1.037,1.037,0,0,0-.01-.147.532.532,0,0,0-.03-.121q-.02-.051-.061-.051a.679.679,0,0,0-.415.208q-.192.187-.43.4a3.066,3.066,0,0,1-.557.39,1.573,1.573,0,0,1-.774.177,1.83,1.83,0,0,1-1.048-.3,2.559,2.559,0,0,1-.754-.8,3.961,3.961,0,0,1-.461-1.144,5.614,5.614,0,0,1-.157-1.326,6.018,6.018,0,0,1,.238-1.675,4.965,4.965,0,0,1,.693-1.478,3.633,3.633,0,0,1,1.124-1.053A2.918,2.918,0,0,1,57.5,23.087Zm-1.194,6.165a1.09,1.09,0,0,0,.537-.147,2.285,2.285,0,0,0,.5-.385,3.538,3.538,0,0,0,.44-.542,4.492,4.492,0,0,0,.582-1.26,2.11,2.11,0,0,0,.086-.562q0-.01-.01-.172a1.173,1.173,0,0,0-.086-.354,1.075,1.075,0,0,0-.233-.354.6.6,0,0,0-.45-.162,1.043,1.043,0,0,0-.683.268,2.417,2.417,0,0,0-.552.688,4.139,4.139,0,0,0-.369.921,3.67,3.67,0,0,0-.137.967,2.259,2.259,0,0,0,.116.779Q56.164,29.251,56.306,29.251Zm5.051-11.125a2.644,2.644,0,0,1,.177-1.093,2.839,2.839,0,0,1,.542-.86,3.468,3.468,0,0,1,.8-.643,5.486,5.486,0,0,1,.936-.44,5.651,5.651,0,0,1,.957-.253,5.173,5.173,0,0,1,.86-.081A3.52,3.52,0,0,1,66.98,15,3.01,3.01,0,0,1,68,15.682a2.919,2.919,0,0,1,.643,1.017,3.538,3.538,0,0,1,.223,1.265,5.128,5.128,0,0,1-.177,1.3,11.164,11.164,0,0,1-.466,1.387q-.288.709-.663,1.422T66.8,23.476q-.385.693-.759,1.346t-.663,1.24a10.461,10.461,0,0,0-.466,1.083,2.641,2.641,0,0,0-.177.871.908.908,0,0,1-.076.38.954.954,0,0,1-.192.283.859.859,0,0,1-.268.182.758.758,0,0,1-.3.066.658.658,0,0,1-.476-.213.961.961,0,0,1-.213-.7A7.305,7.305,0,0,1,63.478,26a11.352,11.352,0,0,1,.673-1.782,17.171,17.171,0,0,1,.881-1.615q.476-.769.881-1.513a10.85,10.85,0,0,0,.673-1.483,4.389,4.389,0,0,0,.268-1.508,3.748,3.748,0,0,0-.025-.395,1.133,1.133,0,0,0-.152-.45,1.041,1.041,0,0,0-.385-.369,1.46,1.46,0,0,0-.734-.152,2.834,2.834,0,0,0-.648.081,2.207,2.207,0,0,0-.673.288,2.672,2.672,0,0,0-.617.552,2.863,2.863,0,0,0-.481.881.96.96,0,0,1-.172.3,1.187,1.187,0,0,1-.248.223,1.1,1.1,0,0,1-.283.137.912.912,0,0,1-.268.046.7.7,0,0,1-.547-.3A1.342,1.342,0,0,1,61.357,18.126ZM62.7,31.195a1.946,1.946,0,0,1,.076-.552,1.319,1.319,0,0,1,.228-.45,1.023,1.023,0,0,1,.385-.3,1.279,1.279,0,0,1,.537-.106,1.489,1.489,0,0,1,.42.061.967.967,0,0,1,.369.2,1.056,1.056,0,0,1,.263.364,1.346,1.346,0,0,1,.1.557,1.548,1.548,0,0,1-.111.607,1.2,1.2,0,0,1-.3.435,1.285,1.285,0,0,1-.44.258,1.549,1.549,0,0,1-.511.086,1.034,1.034,0,0,1-.511-.111.885.885,0,0,1-.309-.278,1.02,1.02,0,0,1-.152-.375A2.088,2.088,0,0,1,62.7,31.195Z" transform="translate(8.548 5.582)"/>
        </g>
      </g>
    </g>
    <g id="Grupo_157024" data-name="Grupo 157024" transform="matrix(0.951, -0.309, 0.309, 0.951, 192.058, -342.737)">
      <path id="Trazado_117323" data-name="Trazado 117323" d="M591.991,765.728c-17.174-11.6-42.038-10.357-58.121,2.562a41.352,41.352,0,0,0-6.161,6.313c-7.835,10.438-12.332,22.813-6.6,35.328,3.8,8.308,11.792,13.558,20.147,16.49a45.424,45.424,0,0,0,18.069,2.511c1.146,6.155,5.32,10.309,10.587,13.316.934.533,3.912,2.142,2.546-2.632-1.287-4.5-.6-9.288.749-13.871a47.941,47.941,0,0,0,19.051-14.11C603.14,798.393,608.592,776.938,591.991,765.728Z"/>
      <g id="Grupo_83560" data-name="Grupo 83560" transform="translate(531.462 775.958)">
        <path id="Trazado_117324" data-name="Trazado 117324" d="M608.281,864.167a74.524,74.524,0,0,0,2.666-9.3q.157-1.579-1.091-1.7-1.363-.1-2.658,3.425t-3.142,8.681q-.378,1.187-2.287,1.368a31.233,31.233,0,0,1-4.721.124,1.468,1.468,0,0,1-1.448-1.849,35.568,35.568,0,0,1,2.474-6.615,3.279,3.279,0,0,0,.2-.907.977.977,0,0,0-.811-1.175,11.251,11.251,0,0,0-1.162-.245q-.992-.1-1.248.617-.352.929-.59,1.462-1.226,2.993-2.235,6.082a5.9,5.9,0,0,1-1.239,2.2,3.121,3.121,0,0,1-2.234.649,6.293,6.293,0,0,0-1.925.161q-.369.168-.442.9a2.388,2.388,0,0,0,.409,1.857,3.481,3.481,0,0,0,1.946.564q1.138.114,1.037,1.142a9.985,9.985,0,0,1-.648,2.42,12.071,12.071,0,0,0-.714,3.081l-.05.885q-.013,1.631,2.263,1.856,1.322.132,1.406-.714a15.946,15.946,0,0,1-.072-3.011,16.774,16.774,0,0,1,.7-3.3,6.9,6.9,0,0,1,1.125-2.373,4.809,4.809,0,0,1,1.722-.533,17.334,17.334,0,0,1,5.038-.316q1.579.156,1.4,1.993a5.167,5.167,0,0,1-.208.98,47.9,47.9,0,0,0-1.232,7.555q-.171,2.468-.171,2.838a5.386,5.386,0,0,0,.536,2.445,1.959,1.959,0,0,0,1.629,1.145l.184.018q1.106.072,1.2-.846l.022-.22a28.41,28.41,0,0,1-.021-4.267Q604.453,875.469,608.281,864.167Z" transform="translate(-586.365 -853.159)" fill="#fff"/>
        <path id="Trazado_117325" data-name="Trazado 117325" d="M719.605,910.872a2.8,2.8,0,0,0-.868-.234,2,2,0,0,0-1.875.963q-1.776,2.567-2.96,4.416-1.981,3.141-2.461,3.13-.3-.029-.1-1.976.16-1.616.606-4.612a1.791,1.791,0,0,0-1.669-2.243l-.437-.08q-1.518-.051-2.43,7.506a3.524,3.524,0,0,0-1.166.7q-.76.556-2.493,1.57a7.556,7.556,0,0,1-4.107,1.409q-.992-.1-1.206-1.305a1.41,1.41,0,0,1-.03-.448q.051-.514,1.09-.894,2.923-1.045,6.544-5.395a4.215,4.215,0,0,0,.747-1.928,3.122,3.122,0,0,0-.221-1.506,3.738,3.738,0,0,0-3.226-2.619q-2.791-.277-5.732,4.326a14.5,14.5,0,0,0-2,4.251q-.369,1.67-.417,2.147-.514,5.177,5.068,5.732.661.065,1.44.068a6.534,6.534,0,0,0,3.208-1.128,11.733,11.733,0,0,0,2.355-1.8,3.409,3.409,0,0,0,1.949,2.342,3.055,3.055,0,0,0,1.01.286,3.63,3.63,0,0,0,3.061-1.328c.252-.3.4-.442.452-.437a6.75,6.75,0,0,1-.087,1.623q-.447,2.626-.6,4.131a10.3,10.3,0,0,0,.211,4.23,4.057,4.057,0,0,0,2.008,2.183,2.11,2.11,0,0,0,.863.271,1.579,1.579,0,0,0,1.119-.445.747.747,0,0,0,.309-.489,1.6,1.6,0,0,0-.332-.774q-.97-1.432-.664-4.517a46.542,46.542,0,0,1,2-8.961q1.194-3.812,1.972-5.664a2.793,2.793,0,0,0,.139-.654A1.742,1.742,0,0,0,719.605,910.872Zm-17.045-.134a.49.49,0,0,1,.422-.143c.244.024.358.134.338.33a10.274,10.274,0,0,1-1.621,2.88,6.482,6.482,0,0,1-2.066,2.131q-.36-.109-.33-.4A38.228,38.228,0,0,1,702.56,910.738Z" transform="translate(-674.401 -896.984)" fill="#fff"/>
        <path id="Trazado_117326" data-name="Trazado 117326" d="M845.331,873.392a2.645,2.645,0,0,0-.909-.357q-1.415-.263-2.406,1.844-.3.582-.615,1.086-4.407,7.178-5.322,12.112-.742,4.405.214,4.919a2.691,2.691,0,0,0,.7.279,1.5,1.5,0,0,0,.865-.214,1.98,1.98,0,0,0,.9-1.409,47.517,47.517,0,0,1,7.117-15.72,2.463,2.463,0,0,0,.343-.837A1.6,1.6,0,0,0,845.331,873.392Z" transform="translate(-788.183 -869.22)" fill="#fff"/>
        <path id="Trazado_117327" data-name="Trazado 117327" d="M827.932,997.621q-1.851-.344-2.456,2.922-.51,2.757.654,3.762a1.186,1.186,0,0,0,.481.239l.109.02q1.428.189,2.86-4.5a5.638,5.638,0,0,0,.227-.821Q829.957,998.033,827.932,997.621Z" transform="translate(-779.739 -970.038)" fill="#fff"/>
      </g>
      <g id="Grupo_83561" data-name="Grupo 83561" transform="translate(542.738 762.378)">
        <path id="Trazado_117328" data-name="Trazado 117328" d="M645.665,788.188c12.243-5.33,27.472-5.757,40.22-2.131.217.062.326-.262.134-.364-11.444-6.09-29.568-4.283-40.476,2.235-.139.082-.031.326.122.26Z" transform="translate(-645.479 -781.963)" fill="#fff"/>
      </g>
      <g id="Grupo_83562" data-name="Grupo 83562" transform="translate(584.732 766.83)">
        <path id="Trazado_117329" data-name="Trazado 117329" d="M865.641,805.514a2.132,2.132,0,0,0,1.228.943,7.172,7.172,0,0,0,2.23.859.182.182,0,0,0,.19-.271,2.627,2.627,0,0,0-1.556-1.162,4.368,4.368,0,0,0-1.953-.569c-.088.01-.181.1-.138.2Z" transform="translate(-865.631 -805.305)" fill="#fff"/>
      </g>
      <g id="Grupo_83563" data-name="Grupo 83563" transform="translate(530.22 815.313)">
        <path id="Trazado_117330" data-name="Trazado 117330" d="M579.879,1059.618c5.73,7.262,18.518,11.156,27.418,9.026a.257.257,0,0,0-.023-.492c-10.017-1.29-18.8-2.613-27.24-8.664-.086-.062-.234.03-.156.13Z" transform="translate(-579.857 -1059.469)" fill="#fff"/>
      </g>
    </g>
    <g id="Grupo_162322" data-name="Grupo 162322" transform="translate(1193.574 442.065)">
      <path id="Trazado_117337" data-name="Trazado 117337" d="M1399.811,1060.3c-1.314,0-2.585-1.589-4.2-3.6l-.473-.59a.455.455,0,0,1-.075-.142.411.411,0,0,1-.007-.383c4.615-9.457,9.763-18.976,14.227-27.155a.816.816,0,0,0-.716-1.207.792.792,0,0,0-.124.01c-1.489.228-2.936.416-4.3.557h0c-.361,0-.964-.871-1.254-1.29-.147-.213-.283-.407-.4-.556-1.055-1.307-1.979-2.513-2.823-3.69-.08-.111-.061-.141-.041-.174a.724.724,0,0,0,.079-.16.955.955,0,0,0,.143-.182c4.228-7.5,8.9-14.816,13.316-21.609a.816.816,0,0,0-.683-1.261.747.747,0,0,0-.122.01l-2.584.39c-.2.031-.442.083-.695.141a6.291,6.291,0,0,1-1.226.2.912.912,0,0,1-.248-.026c-.441-.12-1.087-1.052-1.472-1.608-.178-.256-.342-.491-.487-.672l-.16-.2c-.782-.976-1.59-1.985-2.289-3.023-.094-.137-.057-.183-.017-.235,6.34-10.83,11.886-22.247,17.249-33.288q2.1-4.314,4.2-8.607a.38.38,0,0,1,.266-.115c11.585-.062,23.354-.445,34.737-.814l.157-.005a.2.2,0,0,1,.208.1,1.163,1.163,0,0,0,.131.171,58.365,58.365,0,0,0,4.017,5.093.375.375,0,0,1-.013.564c-5.347,6.37-10.381,13.188-15.25,19.782q-1.785,2.419-3.574,4.83a.815.815,0,0,0,.654,1.3.806.806,0,0,0,.083,0l7.182-.739a.827.827,0,0,0,.18-.039.5.5,0,0,0,.091.015c.051.059.179.166.209.2,1.54,1.815,2.914,3.562,4.2,5.341a.46.46,0,0,1-.137.385c-6.484,7.556-13.248,15.094-19.789,22.382l-.149.166a.816.816,0,0,0,.607,1.361c.026,0,7.413-.711,7.413-.711a.655.655,0,0,0,.123-.021.606.606,0,0,0,.105.023c.04.029.1.067.1.073l.027.026a67.3,67.3,0,0,1,4.261,5.422.389.389,0,0,1-.062.313c-7.79,7.005-15.853,13.981-23.65,20.727q-4.567,3.951-9.126,7.911l-15.386,13.384a4,4,0,0,1-2.43,1.23Z" transform="translate(-1394.198 -950.189)" fill="#fff"/>
      <path id="Trazado_117338" data-name="Trazado 117338" d="M1461.507,954.225a1.182,1.182,0,0,0,0-1.627,58.53,58.53,0,0,1-4-5.074c-.017-.024-.037-.041-.054-.063a1,1,0,0,0-.939-.507c-11.619.377-23.245.757-34.871.819a1.14,1.14,0,0,0-.994.57c-6.883,13.986-13.489,28.287-21.358,41.75a.964.964,0,0,0-.019,1.2c.767,1.137,1.634,2.208,2.49,3.278.565.706,1.425,2.3,2.378,2.557a7.107,7.107,0,0,0,2.509-.291q1.291-.2,2.583-.39c-4.625,7.112-9.184,14.28-13.343,21.654a.85.85,0,0,0-.2.3.924.924,0,0,0,.066,1.088c.914,1.271,1.868,2.507,2.851,3.726.531.657,1.345,2.252,2.377,2.146,1.45-.151,2.9-.342,4.344-.563-4.9,8.983-9.761,18-14.244,27.188a1.17,1.17,0,0,0-.033,1,1.249,1.249,0,0,0,.213.4c2.969,3.685,4.647,6.224,8.271,3.066q7.689-6.7,15.385-13.385c10.946-9.524,22-18.944,32.786-28.645a1.139,1.139,0,0,0,.18-1.395,66.462,66.462,0,0,0-4.271-5.431,1.193,1.193,0,0,0-.076-.092l-.015-.017s-.008,0-.012-.009a1,1,0,0,0-.3-.225,1.015,1.015,0,0,0-.146-.072h-.008a.913.913,0,0,0-.528-.012q-3.666.351-7.335.706c6.7-7.472,13.412-14.943,19.95-22.562a1.157,1.157,0,0,0,.18-1.394c-1.342-1.857-2.757-3.645-4.239-5.391a.908.908,0,0,0-.463-.415.871.871,0,0,0-.1-.046l-.013,0a.9.9,0,0,0-.613,0q-3.591.369-7.183.739C1448.86,970.536,1454.891,962.108,1461.507,954.225ZM1435.662,977.3c.139.255.307.5.457.73.283.44.564.886.864,1.318-1.015.1-2.03.191-3.045.28Q1434.8,978.465,1435.662,977.3Zm2.312,1.957c-.391-.63-.873-1.214-1.313-1.812a5.75,5.75,0,0,0-.582-.712q.69-.936,1.377-1.875c.332.616.769,1.209,1.087,1.779a16.85,16.85,0,0,0,1.159,2.389c-.021.026-.039.052-.059.077C1439.087,979.158,1438.53,979.2,1437.974,979.257Zm13.169-22.7c.279.775.7,1.541.96,2.225.3.789.438,1.887.826,2.727-.429.562-.855,1.127-1.284,1.69-.234-.494-.535-.967-.7-1.29a20.637,20.637,0,0,0-1.407-3.275C1450.073,957.939,1450.6,957.244,1451.143,956.556Zm-2.271,2.945a20.631,20.631,0,0,0,1,2.4c.278.662.624,1.292.9,1.956.048.118.083.228.116.333q-.7.926-1.408,1.853c-.167-.46-.385-.908-.563-1.318a22.079,22.079,0,0,0-1.559-3.246C1447.859,960.819,1448.366,960.161,1448.871,959.5Zm-2.147,2.824c.193.589.5,1.164.735,1.694.345.784.734,1.536,1.025,2.344a6.473,6.473,0,0,1,.2.734c-.486.642-.976,1.28-1.46,1.921a15.047,15.047,0,0,0-.786-1.652c-.417-.856-.842-1.921-1.372-2.83Q1445.891,963.427,1446.725,962.324Zm-2.344,3.129c.23.57.533,1.122.771,1.616a20.116,20.116,0,0,1,.986,2.328c.1.309.151.54.236.744q-.838,1.112-1.674,2.229c-.386-.878-.778-1.754-1.214-2.607a19.972,19.972,0,0,0-.975-1.781Q1443.445,966.716,1444.38,965.453Zm-2.457,3.323c.355.777.772,1.543,1.108,2.272a9.456,9.456,0,0,0,.983,2.233q-.808,1.075-1.614,2.15a12.922,12.922,0,0,0-1.286-2.667,11.364,11.364,0,0,0-.99-1.541Q1441.022,970,1441.923,968.776Zm-2.373,3.229c.252.425.532.837.75,1.235.552,1.008.893,2.1,1.4,3.124l-1.349,1.8a13.978,13.978,0,0,0-.886-1.624,10.486,10.486,0,0,0-1.519-2.345Q1438.747,973.1,1439.551,972.005Zm14.289-11.7c-.245-.811-.657-1.631-.9-2.244a11.316,11.316,0,0,0-1.114-2.371q.909-1.155,1.825-2.3c.2.625.508,1.237.754,1.8a20.962,20.962,0,0,1,.827,2.195c.092.3.133.573.2.835q-.646.845-1.294,1.688C1454.041,960.041,1453.941,960.176,1453.84,960.308Zm1.953-9.533a16.443,16.443,0,0,0,.685,2.422,9.916,9.916,0,0,0,.961,2.446c-.385.492-.775.979-1.156,1.475-.179-.554-.448-1.1-.628-1.533a16.793,16.793,0,0,0-1.4-2.943C1454.762,952.015,1455.28,951.4,1455.793,950.775Zm3.465,2.634a.465.465,0,0,0-.156.129c-.388.476-.762.964-1.143,1.445-.176-.687-.535-1.381-.75-1.989-.326-.913-.586-1.859-.983-2.744.078-.093.155-.188.232-.281.628.848,1.269,1.686,1.934,2.51A6.44,6.44,0,0,0,1459.258,953.41Zm-38.449-.209q.906-1.826,1.805-3.655c-.117.238,11.512.332,12.9.3q9.253-.212,18.5-.52c-8.25,10.01-15.768,20.712-23.518,31.1a1.156,1.156,0,0,0,.993,1.732c5.3-.43,10.592-.984,15.882-1.534-8.455,9.783-17.129,19.384-25.792,28.982-.595.658-.266,2.1.813,1.964,5.625-.717,11.277-1.261,16.924-1.8-14.382,12.874-29.029,25.467-43.608,38.121,4.085-8.079,8.388-16.056,12.731-24l0-.005q1.863-3.411,3.724-6.819a1.163,1.163,0,0,0-1.3-1.69c-3.979.615-7.946,1.294-11.91,1.987,5.538-9.616,11.7-18.9,17.758-28.195a1.157,1.157,0,0,0-.993-1.732c-4.444.464-8.871,1.081-13.284,1.772C1409.112,977.526,1414.848,965.24,1420.809,953.2Zm28.438,30.566c.436,1.1.83,2.247,1.288,3.34-.409.47-.822.937-1.232,1.406a13.1,13.1,0,0,0-1.943-4.37q.722-.831,1.443-1.663A9.924,9.924,0,0,0,1449.247,983.766Zm-3.274,6a19.614,19.614,0,0,0-1.128-2.725c.7-.8,1.395-1.609,2.094-2.412.333,1.631,1.316,3.135,1.55,4.813-.6.688-1.2,1.378-1.81,2.063C1446.488,990.885,1446.182,990.274,1445.973,989.763Zm-3.285,2.407a10.013,10.013,0,0,0,.875,2.847c-.431.486-.865.969-1.3,1.454a15.5,15.5,0,0,0-.66-1.834c-.348-.829-.7-1.78-1.16-2.617q.9-1.018,1.8-2.036A14.562,14.562,0,0,0,1442.688,992.171Zm-5.441,9.928c-.317-.821-.652-1.634-.94-2.468-.234-.678-.393-1.481-.7-2.17.552-.616,1.106-1.23,1.657-1.848a16.512,16.512,0,0,0,.681,2.066,7.926,7.926,0,0,0,1.1,2.41Q1438.144,1001.093,1437.247,1002.1Zm-10.006,4.665c.139.37.327.733.439,1.033a5.781,5.781,0,0,0,.323.809c-.9.1-1.8.209-2.707.315Zm.561-.62q1.126-1.249,2.252-2.5c.216.837.675,1.721.9,2.441.2.638.331,1.439.576,2.146q-1.348.138-2.7.284A6.476,6.476,0,0,0,1427.8,1006.144Zm3.986-.729a7.348,7.348,0,0,0-1.135-2.434q.928-1.032,1.853-2.064a14.264,14.264,0,0,0,.572,1.479c.409,1,.751,2.062,1.17,3.067-.6.664-1.186,1.333-1.781,2C1432.286,1006.729,1431.983,1005.992,1431.788,1005.415Zm2.589-2.606a27.289,27.289,0,0,0-1.1-2.758q.786-.875,1.569-1.75c.12.557.322,1.111.478,1.6a22.077,22.077,0,0,0,1.18,3.027c-.491.549-.979,1.1-1.471,1.65A14.093,14.093,0,0,0,1434.378,1002.809Zm4.491-5.06c-.381-.877-.692-1.813-1.135-2.668.673-.754,1.34-1.514,2.011-2.269.138.442.322.875.489,1.294a18.679,18.679,0,0,1,1.143,3.364q-.922,1.037-1.848,2.071A7.825,7.825,0,0,0,1438.869,997.75Zm1.935,19.686c-.56-1.462-1.143-2.919-1.735-4.366.7-.628,1.413-1.252,2.115-1.881a13.664,13.664,0,0,0,.633,2.383,23.557,23.557,0,0,0,.7,2.36Q1441.663,1016.684,1440.8,1017.436Zm-5.19,4.543a26.243,26.243,0,0,1-1.107-2.512c-.193-.561-.367-1.2-.621-1.787.656-.581,1.308-1.166,1.963-1.747.256.8.621,1.616.877,2.337a11.335,11.335,0,0,0,.81,2.031Q1436.576,1021.141,1435.614,1021.978Zm-2.539,2.213a23.05,23.05,0,0,1-1.244-2.584c-.2-.5-.358-1.063-.584-1.581.653-.575,1.3-1.159,1.95-1.734.138.62.351,1.236.533,1.789a10.14,10.14,0,0,0,1.121,2.562Q1433.963,1023.419,1433.075,1024.191Zm-2.629,2.293c-.323-.866-.64-1.733-.995-2.586a10.312,10.312,0,0,0-.771-1.626c.646-.567,1.3-1.128,1.941-1.695.156.664.4,1.328.59,1.921a7.473,7.473,0,0,0,1.149,2.318Zm-5.033,4.389c-.257-.6-.558-1.181-.815-1.771a14.746,14.746,0,0,0-1.114-2.287l1.742-1.524c.159.513.388,1.017.551,1.443a12.322,12.322,0,0,0,1.23,2.75Zm-25.666,22.343a19.632,19.632,0,0,0-.891-1.976c-.352-.689-.611-1.484-.987-2.18q1-.865,1.994-1.729a15.471,15.471,0,0,0,.741,1.627c.364.754.654,1.754,1.121,2.535Zm-2.889.144a10.731,10.731,0,0,0-1.241-2.345l1.618-1.4a10.055,10.055,0,0,0,.521,1.338c.425.965.912,1.9,1.283,2.883q-.7.609-1.4,1.216C1397.428,1054.439,1397.074,1053.833,1396.858,1053.359Zm4.88-4.13a27.236,27.236,0,0,0-1.232-2.457q1.011-.877,2.023-1.754a16.4,16.4,0,0,0,.817,1.884,23.949,23.949,0,0,0,1.007,2.3l-1.811,1.576C1402.319,1050.236,1401.985,1049.708,1401.738,1049.229Zm2.6-2.42a16.646,16.646,0,0,0-1.138-2.369q.929-.806,1.857-1.61a18.061,18.061,0,0,0,.711,1.817,22.478,22.478,0,0,0,1.024,2.442l-1.62,1.41C1404.921,1047.918,1404.6,1047.355,1404.333,1046.809Zm2.436-1.761c-.4-.863-.753-1.8-1.223-2.649q.986-.853,1.97-1.707a15.6,15.6,0,0,0,.737,1.627c.332.709.652,1.42.914,2.159.057.16.093.3.127.429l-1.834,1.595C1407.262,1046,1406.992,1045.523,1406.77,1045.048Zm2.756-2.04a23.329,23.329,0,0,0-1.335-2.9l1.941-1.682a156.469,156.469,0,0,0,1.972,4.038l-2.012,1.75C1409.928,1043.78,1409.678,1043.35,1409.526,1043.008Zm2.238-2.824c-.372-.687-.7-1.5-1.119-2.2q1.011-.877,2.024-1.754c.168.418.377.825.553,1.2a18,18,0,0,0,1.361,2.877l-1.921,1.67A8.441,8.441,0,0,0,1411.764,1040.184Zm2.46-2.337c-.349-.666-.62-1.432-.945-2.15l1.729-1.5a11.855,11.855,0,0,0,.567,1.428,21.932,21.932,0,0,0,1.226,2.75l-1.6,1.395A12.147,12.147,0,0,0,1414.224,1037.847Zm2.391-1.862c-.354-.738-.635-1.555-1.012-2.3l1.764-1.53c.128.4.31.8.474,1.182.42.988.79,2.057,1.286,3.017l-1.634,1.422C1417.255,1037.153,1416.885,1036.549,1416.616,1035.985Zm2.3-2.313c-.29-.645-.554-1.4-.926-2.058.645-.56,1.286-1.124,1.931-1.685.207.7.565,1.4.823,2.039.3.746.53,1.521.8,2.278l-1.752,1.528A16.126,16.126,0,0,0,1418.915,1033.672Zm2.738-1.955a12.327,12.327,0,0,0-1.047-2.387q1.216-1.059,2.428-2.122a15.912,15.912,0,0,0,.643,1.844,26.249,26.249,0,0,0,1.006,2.458q-1.182,1.03-2.362,2.06C1422.124,1032.943,1421.885,1032.326,1421.653,1031.717Zm4.926-5.2c-.215-.539-.388-1.227-.649-1.836.691-.606,1.386-1.21,2.076-1.815.182.594.469,1.182.675,1.71.339.865.649,1.741.957,2.617l-1.953,1.7C1427.386,1028.081,1426.881,1027.268,1426.579,1026.513Zm11.516-7.142c-.328-.662-.558-1.371-.822-2.06a11.942,11.942,0,0,0-.829-1.908q.963-.853,1.922-1.708a37.991,37.991,0,0,0,1.706,4.383q-.908.8-1.816,1.594C1438.2,1019.572,1438.147,1019.474,1438.1,1019.371Zm-30.363,1.021a13.589,13.589,0,0,0-.684-1.424c-.094-.181-.188-.394-.29-.606q1.143-.189,2.287-.372Q1408.39,1019.19,1407.733,1020.391Zm-4.959.8a16.515,16.515,0,0,0-1.261-1.948c.565-.1,1.13-.2,1.695-.294a10.111,10.111,0,0,0,.909,1.909,13.239,13.239,0,0,0,.851,1.682c-.441.068-.882.134-1.325.192A9.092,9.092,0,0,0,1402.774,1021.191Zm8.659-29.33c-.119-.5-.207-1.053-.341-1.583.779-.1,1.56-.191,2.341-.282q-.88,1.349-1.761,2.7C1411.592,992.4,1411.492,992.107,1411.433,991.862Zm-9.164-.313c.787-.125,1.573-.25,2.363-.369a15.749,15.749,0,0,0,.611,2.082c.143.427.219.943.349,1.423l-.69.1C1403.991,993.745,1403.1,992.665,1402.27,991.548Zm4.24,3a11.656,11.656,0,0,0-.4-1.156,15.854,15.854,0,0,0-1.021-2.278q1.112-.167,2.228-.325c.107.7.247,1.4.4,2.1a9.643,9.643,0,0,0,.322,1.427Zm2.563-.389c-.1-.522-.386-1.084-.494-1.508a9.731,9.731,0,0,0-.637-1.953c.753-.105,1.508-.2,2.262-.3a12.03,12.03,0,0,0,.209,1.414,5.432,5.432,0,0,0,.563,1.951l-.078.119C1410.29,993.97,1409.682,994.066,1409.073,994.157Zm-8.356,28.019c-.669-.8-1.309-1.626-1.94-2.458l1.632-.283c.36.693.9,1.34,1.3,1.972.233.37.448.966.727,1.479-.248.03-.495.066-.742.094C1400.664,1023.1,1401.424,1023.025,1400.718,1022.176Zm5.2.2a9.052,9.052,0,0,0-.961-2.014,9.783,9.783,0,0,0-.871-1.57c.569-.1,1.139-.184,1.708-.279.093.3.232.588.325.841a8.437,8.437,0,0,0,.907,1.915.513.513,0,0,0,.148.139q-.226.417-.453.831C1406.455,1022.3,1406.186,1022.334,1405.919,1022.381Zm-12.321,30.384,1.382-1.2c.267.657.724,1.333.962,1.863.309.689.62,1.373.892,2.078.018.047.036.089.054.134C1395.585,1056.348,1394.654,1054.425,1393.6,1052.765Zm51.693-39.278q-.58.516-1.162,1.032c-.241.214-.485.425-.728.638-.164-.469-.383-.931-.528-1.356a30.769,30.769,0,0,0-1.068-3.165c.266-.239.536-.474.8-.714.622.716,1.226,1.449,1.787,2.216A15.433,15.433,0,0,1,1445.291,1013.487Zm-.935-19.359c-.137-.592-.4-1.182-.573-1.741a26.93,26.93,0,0,0-.982-3.026c.5-.564,1-1.125,1.494-1.69a11.889,11.889,0,0,0,.669,1.917c.255.673.5,1.345.713,2.034.084.276.128.547.189.81l-.188.214C1445.239,993.143,1444.795,993.633,1444.355,994.128Zm7.5-8.526c-.234.27-.472.536-.706.8a14.237,14.237,0,0,0-.706-1.832c-.3-.7-.573-1.409-.857-2.116a6.2,6.2,0,0,1-.2-.646c.25-.289.5-.574.75-.863.791.939,1.561,1.895,2.291,2.884C1453.375,985.086,1452.95,984.336,1451.854,985.6Zm-44.939.223a289.72,289.72,0,0,1,14.661-29.773c.034-.061.14-.019.115.049a256.149,256.149,0,0,1-14.513,29.834C1407.1,986.075,1406.852,985.978,1406.915,985.825Zm14.988-30.8a1.955,1.955,0,0,1,.285-1.124,1.223,1.223,0,0,1,.6-.734.128.128,0,0,1,.19.108c.012.556-.334,1.7-.966,1.813A.09.09,0,0,1,1421.9,955.03Zm4.756,46.54c3.473-5.576,8.11-10.571,12.739-15.2.091-.092.222.043.14.14-4.29,5.024-8.476,10.124-12.737,15.17C1426.733,1001.757,1426.605,1001.655,1426.659,1001.57Zm13.352-15.879c.178-.608.622-1.349,1.294-1.459a.128.128,0,0,1,.155.155c-.1.631-.784,1.095-1.29,1.425A.108.108,0,0,1,1440.011,985.69Zm-33.209,49.935a137.051,137.051,0,0,1,16.54-14.594c.161-.119.337.133.207.268-5.069,5.269-11.026,9.752-16.58,14.492C1406.854,1035.888,1406.7,1035.735,1406.8,1035.625Zm17.705-15.192a.121.121,0,0,1-.117-.117c-.056-.618.85-1.177,1.376-1.281.09-.018.207.062.166.167C1425.741,1019.688,1425.095,1020.5,1424.507,1020.433Z" transform="translate(-1390.953 -946.953)"/>
    </g>
    <g id="Grupo_162323" data-name="Grupo 162323" transform="matrix(0.326, 0.946, -0.946, 0.326, 973.274, 302.533)">
      <g id="Grupo_81059" data-name="Grupo 81059" transform="translate(0 0)">
        <g id="Grupo_81053" data-name="Grupo 81053" transform="translate(1.801 0)" style="mix-blend-mode: overlay;isolation: isolate">
          <path id="Trazado_114995" data-name="Trazado 114995" d="M38.913,40.863l6.227-25.4L0,0Z" transform="translate(0.759 0.759)" fill="#3c384f"/>
          <path id="Trazado_114996" data-name="Trazado 114996" d="M.76,0A.759.759,0,0,0,.21,1.283L39.122,42.146a.759.759,0,0,0,1.287-.343l6.228-25.4a.76.76,0,0,0-.491-.9L1.006.041A.75.75,0,0,0,.76,0ZM39.265,40.093,3.45,2.484,45,16.718Z" transform="translate(0 0)" fill="#3c384f"/>
          <path id="Trazado_114997" data-name="Trazado 114997" d="M43.587,37.046,0,0,60.391,24.736Z" transform="translate(0.759 0.759)" fill="#3c384f"/>
          <path id="Trazado_114998" data-name="Trazado 114998" d="M.76,0A.759.759,0,0,0,.268,1.338L43.854,38.384a.76.76,0,0,0,.941.034l16.8-12.31a.76.76,0,0,0-.161-1.315L1.048.057A.754.754,0,0,0,.76,0ZM44.381,36.838,4.887,3.271,59.607,25.685Z" transform="translate(0 0)" fill="#3c384f"/>
          <path id="Trazado_114999" data-name="Trazado 114999" d="M38.913,40.863,0,0,25.613,50.7Z" transform="translate(0.759 0.759)" fill="#3c384f"/>
          <path id="Trazado_115000" data-name="Trazado 115000" d="M.759,0A.76.76,0,0,0,.082,1.1l25.612,50.7a.76.76,0,0,0,1.13.268l13.3-9.84a.759.759,0,0,0,.1-1.134L1.31.235A.758.758,0,0,0,.759,0ZM26.644,50.317,3.757,5.008,38.529,41.523Z" transform="translate(0 0)" fill="#3c384f"/>
          <path id="Trazado_115001" data-name="Trazado 115001" d="M6.846,14.2Q3.648,7.581.1,1.141C-.371.284.94-.483,1.412.375Q4.959,6.812,8.157,13.432C8.581,14.309,7.272,15.08,6.846,14.2Z" transform="translate(16.483 27.169)" fill="#3c384f"/>
          <path id="Trazado_115002" data-name="Trazado 115002" d="M2.264,2.582a.773.773,0,0,1-.349.454.765.765,0,0,1-.585.077.749.749,0,0,1-.454-.349L.1,1.145A.812.812,0,0,1,.026.56.773.773,0,0,1,.375.106.765.765,0,0,1,.96.029a.747.747,0,0,1,.454.349L2.188,2A.812.812,0,0,1,2.264,2.582Z" transform="translate(19.695 28.266)" fill="#3c384f"/>
          <path id="Trazado_115003" data-name="Trazado 115003" d="M15.132,7.937Q7.729,4.738.394,1.388C-.494.982.277-.327,1.16.076Q8.5,3.427,15.9,6.625C16.794,7.012,16.02,8.321,15.132,7.937Z" transform="translate(34.504 17.292)" fill="#3c384f"/>
        </g>
        <g id="Grupo_81058" data-name="Grupo 81058" transform="translate(0 1.801)">
          <g id="Grupo_81057" data-name="Grupo 81057" transform="translate(0 0)">
            <g id="Grupo_81054" data-name="Grupo 81054" transform="translate(0 0)">
              <path id="Trazado_115004" data-name="Trazado 115004" d="M38.913,40.863l6.227-25.4L0,0Z" transform="translate(0.759 0.76)" fill="#fff"/>
              <path id="Trazado_115005" data-name="Trazado 115005" d="M.759,0a.76.76,0,0,0-.55,1.284L39.122,42.146A.759.759,0,0,0,40.41,41.8l6.228-25.4a.76.76,0,0,0-.491-.9L1.006.041A.772.772,0,0,0,.759,0ZM39.265,40.094,3.451,2.484,45,16.718Z" transform="translate(0 0)"/>
            </g>
            <g id="Grupo_81055" data-name="Grupo 81055" transform="translate(0 0)">
              <path id="Trazado_115006" data-name="Trazado 115006" d="M43.587,37.046,0,0,60.391,24.736Z" transform="translate(0.759 0.76)" fill="#fff"/>
              <path id="Trazado_115007" data-name="Trazado 115007" d="M.76,0A.759.759,0,0,0,.268,1.338L43.855,38.385a.76.76,0,0,0,.94.033L61.6,26.109a.759.759,0,0,0-.161-1.315L1.047.057A.75.75,0,0,0,.76,0ZM44.381,36.838,4.887,3.271,59.607,25.685Z" transform="translate(0 0)"/>
            </g>
            <g id="Grupo_81056" data-name="Grupo 81056" transform="translate(0 0)">
              <path id="Trazado_115008" data-name="Trazado 115008" d="M38.913,40.863,0,0,25.613,50.7Z" transform="translate(0.759 0.76)" fill="#fff"/>
              <path id="Trazado_115009" data-name="Trazado 115009" d="M.759,0A.76.76,0,0,0,.082,1.1l25.612,50.7a.758.758,0,0,0,1.129.268l13.3-9.84a.76.76,0,0,0,.1-1.135L1.31.236A.759.759,0,0,0,.759,0ZM26.644,50.317,3.757,5.008,38.529,41.523Z" transform="translate(0 0)"/>
            </g>
            <path id="Trazado_115010" data-name="Trazado 115010" d="M6.846,14.2Q3.648,7.582.1,1.141C-.371.284.94-.483,1.413.375Q4.959,6.812,8.157,13.432C8.581,14.309,7.271,15.08,6.846,14.2Z" transform="translate(16.483 27.169)"/>
            <path id="Trazado_115011" data-name="Trazado 115011" d="M2.264,2.582a.775.775,0,0,1-.349.453.767.767,0,0,1-.586.077.747.747,0,0,1-.453-.349Q.489,1.954.1,1.145A.812.812,0,0,1,.026.56.775.775,0,0,1,.374.106.767.767,0,0,1,.96.029a.751.751,0,0,1,.453.349L2.188,2A.818.818,0,0,1,2.264,2.582Z" transform="translate(19.695 28.266)"/>
            <path id="Trazado_115012" data-name="Trazado 115012" d="M15.132,7.936Q7.73,4.738.394,1.387C-.495.982.277-.328,1.16.076Q8.5,3.426,15.9,6.625C16.793,7.012,16.021,8.321,15.132,7.936Z" transform="translate(34.504 17.293)"/>
          </g>
        </g>
      </g>
      <g id="Grupo_81063" data-name="Grupo 81063" transform="translate(44.279 42.803)">
        <g id="Grupo_81060" data-name="Grupo 81060" transform="translate(0 0)">
          <path id="Trazado_115013" data-name="Trazado 115013" d="M.759,0A.76.76,0,0,0,.188,1.26,76.81,76.81,0,0,0,6.649,7.807.759.759,0,0,0,7.665,6.678,75.229,75.229,0,0,1,1.332.26.759.759,0,0,0,.759,0ZM13.045,11.276a.759.759,0,0,0-.45,1.371c1.64,1.208,3.347,2.365,5.076,3.442a.76.76,0,0,0,.8-1.29c-1.7-1.056-3.371-2.191-4.979-3.375A.757.757,0,0,0,13.045,11.276Zm87.28,3.351a.753.753,0,0,0-.4.116q-.69.432-1.388.85a.76.76,0,0,0,.779,1.3q.712-.426,1.416-.867a.76.76,0,0,0-.4-1.4ZM26.068,19.048a.759.759,0,0,0-.325,1.445c2.306,1.091,4.687,2.081,7.079,2.941a.759.759,0,1,0,.514-1.429c-2.346-.845-4.682-1.815-6.943-2.884A.75.75,0,0,0,26.068,19.048Zm66.153,0a.761.761,0,0,0-.322.072,77.357,77.357,0,0,1-8.376,3.346A.76.76,0,0,0,84,23.91,78.874,78.874,0,0,0,92.544,20.5a.76.76,0,0,0-.324-1.448ZM38.87,23.792a.759.759,0,0,0-.2,1.492,76.6,76.6,0,0,0,9,1.893.76.76,0,0,0,.222-1.5,75.2,75.2,0,0,1-8.824-1.854A.733.733,0,0,0,38.87,23.792Zm39.061.335a.731.731,0,0,0-.185.023c-2.425.605-4.906,1.1-7.374,1.469a.759.759,0,0,0,.225,1.5c2.515-.377,5.044-.88,7.516-1.5a.759.759,0,0,0-.183-1.5ZM55.339,26.395a.759.759,0,0,0-.034,1.518c2.031.093,4.094.108,6.133.041a.759.759,0,1,0-.049-1.518c-2,.065-4.023.052-6.014-.04Z" transform="translate(0 0)"/>
        </g>
      </g>
    </g>
    <g id="Grupo_162324" data-name="Grupo 162324" transform="translate(1063.189 518.149)">
      <g id="Grupo_81065" data-name="Grupo 81065" transform="translate(1.818 1.819)" style="mix-blend-mode: overlay;isolation: isolate">
        <path id="Trazado_115015" data-name="Trazado 115015" d="M185.738,213.809c-3.7,3.781-7.514,7.424-11.406,11,1.683-3.8,3.5-7.548,5.094-11.392,1.811-4.358,3.916-10.3,1.633-14.87-5.2-10.42-18.356-.2-23.2,5.049-.515.559-1.008,1.143-1.506,1.72,1.73-4.235,3.287-8.587,2.875-13.163-.565-6.292-6.333-7.8-11.3-4.877-5.332,3.139-9.615,8.57-13.191,13.5-3.037,4.189,3.912,8.178,6.926,4.048a54.48,54.48,0,0,1,5.414-6.333q-.431.79-.872,1.578a117.56,117.56,0,0,0-5.445,10.608c-3.031,6.994-7.514,16.678-3.7,24.035,1.922,3.708,6.429,4.084,9.822,2.576,4.561-2.028,7.721-6.5,10.766-10.294,3.179-3.956,5.979-8.157,8.922-12.285a59.785,59.785,0,0,1,3.866-5.061c.032-.037.066-.071.1-.107l-.035.111c-.782,2.43-1.786,4.762-2.8,7.1-1.893,4.35-4.335,8.928-5.028,13.66-.613,4.185,1.081,8.875,6.114,8.571,4.732-.285,8.524-4.843,11.687-7.886,3.83-3.686,7.592-7.445,11.355-11.2C195.758,215.979,189.62,209.839,185.738,213.809Z" transform="translate(-133.215 -185.074)" fill="#3c384f"/>
        <path id="Trazado_115016" data-name="Trazado 115016" d="M168.1,239.534a6.013,6.013,0,0,1-4.58-1.9,9.263,9.263,0,0,1-1.843-7.563c.573-3.911,2.279-7.657,3.928-11.279.4-.867.786-1.727,1.156-2.576.351-.806.719-1.653,1.085-2.529q-.336.468-.665.931l-.218.306c-.765,1.072-1.519,2.149-2.273,3.226-2.118,3.022-4.307,6.147-6.676,9.094-.346.43-.693.87-1.045,1.314-2.716,3.435-5.794,7.327-10.008,9.2-3.757,1.668-8.677,1.2-10.814-2.923-3.84-7.408.306-16.941,3.334-23.9l.344-.792c.89-2.056,1.889-4.064,2.948-6.062q-.368.48-.723.966a5.105,5.105,0,0,1-7.205,1,4.047,4.047,0,0,1-.962-5.953c3.817-5.265,8.086-10.572,13.423-13.713,2.962-1.743,6.2-2.026,8.675-.757a7.366,7.366,0,0,1,3.777,6.227,23.491,23.491,0,0,1-1.493,9.757c3.939-3.848,11.223-9.305,17.066-8.478,2.684.381,4.762,2.01,6.176,4.841,2.326,4.656.491,10.452-1.611,15.507-1,2.407-2.1,4.808-3.164,7.13l-.377.821c3.165-2.968,6-5.733,8.6-8.392h0a4.609,4.609,0,0,1,4.591-1.364,5.651,5.651,0,0,1,3.91,3.882,4.65,4.65,0,0,1-1.321,4.651l-.428.426c-3.563,3.556-7.247,7.233-10.937,10.783-.455.438-.922.907-1.4,1.39-2.865,2.872-6.431,6.448-10.769,6.71C168.43,239.529,168.265,239.534,168.1,239.534Zm2.2-30.957a.724.724,0,0,1,.371.1.746.746,0,0,1,.362.871l-.036.112c-.819,2.548-1.888,5-2.83,7.169-.374.858-.769,1.725-1.167,2.6-1.6,3.525-3.264,7.17-3.806,10.866a7.855,7.855,0,0,0,1.455,6.3,4.6,4.6,0,0,0,3.853,1.392c3.755-.227,6.954-3.433,9.775-6.262.489-.49.964-.966,1.426-1.411,3.681-3.541,7.36-7.213,10.918-10.764l.427-.426a3.119,3.119,0,0,0,.924-3.163,4.129,4.129,0,0,0-2.816-2.8,3.073,3.073,0,0,0-3.108.95h0c-3.357,3.434-7.1,7.042-11.437,11.029a.767.767,0,0,1-1.22-.875c.636-1.438,1.291-2.867,1.946-4.3,1.058-2.31,2.152-4.7,3.142-7.08,1.969-4.735,3.7-10.13,1.655-14.232-1.191-2.387-2.833-3.7-5.02-4.008-5.448-.772-13.109,5.1-16.927,9.235-.407.44-.8.9-1.192,1.355l-.3.346a.767.767,0,0,1-1.291-.791c1.647-4.034,3.221-8.346,2.821-12.806a5.82,5.82,0,0,0-2.95-5c-2-1.028-4.69-.76-7.2.714-5.094,3-9.239,8.161-12.959,13.292a2.543,2.543,0,0,0,.622,3.812,3.549,3.549,0,0,0,5.064-.666,55.546,55.546,0,0,1,5.49-6.423.767.767,0,0,1,1.217.909q-.434.794-.877,1.585a117.346,117.346,0,0,0-5.41,10.539l-.344.793c-2.905,6.678-6.883,15.825-3.379,22.584,1.7,3.283,5.73,3.6,8.83,2.227,3.868-1.719,6.694-5.293,9.427-8.75.354-.446.7-.89,1.053-1.323,2.336-2.908,4.511-6.012,6.615-9.014q1.134-1.62,2.28-3.236l.218-.305a57.067,57.067,0,0,1,3.7-4.82l.068-.074A.837.837,0,0,1,170.3,208.577Zm15.2,5h0Z" transform="translate(-132.979 -184.841)" fill="#3c384f"/>
        <path id="Trazado_115017" data-name="Trazado 115017" d="M141.83,223.156c-2.826,5.679-4.42,12.336-1.937,18.44.367.9,1.851.508,1.479-.408-2.33-5.731-.874-11.917,1.783-17.258C143.593,223.049,142.27,222.27,141.83,223.156Z" transform="translate(-134.303 -193.677)" fill="#3c384f"/>
        <path id="Trazado_115018" data-name="Trazado 115018" d="M145.113,243.119c-.013,0-.025-.005-.038-.008-.021-.041-.041-.087-.048-.1l0,0c0-.006,0,0,0-.011-.1-.343-.169-.69-.245-1.039q-.26-1.214-.521-2.428a.772.772,0,0,0-.943-.535.785.785,0,0,0-.536.943q.294,1.372.59,2.746c.163.762.425,1.761,1.338,1.914a.786.786,0,0,0,.943-.536A.776.776,0,0,0,145.113,243.119Z" transform="translate(-135.258 -197.452)" fill="#3c384f"/>
        <path id="Trazado_115019" data-name="Trazado 115019" d="M189.172,201.693c-.871-.465-1.646.859-.774,1.325a3.55,3.55,0,0,1,1.619,3.237,22.183,22.183,0,0,1-.346,4.4,29.184,29.184,0,0,1-2.662,8.239c-.438.881.884,1.659,1.325.774a30.7,30.7,0,0,0,2.977-9.7C191.673,207.2,192.105,203.259,189.172,201.693Z" transform="translate(-145.548 -188.745)" fill="#3c384f"/>
      </g>
      <g id="Grupo_81068" data-name="Grupo 81068" transform="translate(0 0)">
        <g id="Grupo_81067" data-name="Grupo 81067">
          <g id="Grupo_81066" data-name="Grupo 81066">
            <path id="Trazado_115020" data-name="Trazado 115020" d="M183.367,211.438c-3.7,3.781-7.514,7.424-11.407,11,1.683-3.8,3.5-7.548,5.1-11.391,1.811-4.358,3.915-10.3,1.633-14.87-5.2-10.42-18.356-.2-23.2,5.049-.516.558-1.008,1.142-1.506,1.72,1.729-4.235,3.286-8.587,2.875-13.163-.565-6.292-6.333-7.8-11.3-4.878-5.333,3.139-9.615,8.57-13.192,13.5-3.037,4.189,3.913,8.178,6.927,4.048a54.549,54.549,0,0,1,5.413-6.334q-.431.79-.871,1.578a117.662,117.662,0,0,0-5.445,10.608c-3.032,7-7.514,16.678-3.7,24.035,1.922,3.708,6.428,4.084,9.822,2.576,4.561-2.028,7.721-6.5,10.766-10.294,3.179-3.956,5.979-8.157,8.922-12.285a60.255,60.255,0,0,1,3.866-5.061c.032-.036.067-.07.1-.107l-.035.112c-.782,2.43-1.787,4.762-2.8,7.1-1.894,4.349-4.335,8.927-5.028,13.66-.614,4.185,1.081,8.875,6.114,8.571,4.731-.285,8.523-4.843,11.686-7.886,3.831-3.686,7.593-7.446,11.356-11.2C193.386,213.608,187.248,207.468,183.367,211.438Z" transform="translate(-130.844 -182.703)" fill="#ffd947"/>
            <path id="Trazado_115021" data-name="Trazado 115021" d="M165.729,237.162a6.01,6.01,0,0,1-4.579-1.9,9.264,9.264,0,0,1-1.843-7.563c.572-3.91,2.278-7.656,3.928-11.279.394-.867.785-1.726,1.156-2.576.35-.806.719-1.653,1.085-2.529-.224.311-.446.623-.665.931l-.218.305c-.765,1.072-1.519,2.15-2.274,3.226-2.117,3.023-4.307,6.148-6.675,9.094-.346.431-.693.871-1.045,1.315-2.716,3.434-5.794,7.326-10.008,9.2-3.758,1.668-8.677,1.2-10.814-2.924-3.84-7.408.306-16.941,3.333-23.9l.344-.791c.89-2.056,1.889-4.064,2.948-6.062q-.367.48-.723.966a5.1,5.1,0,0,1-7.2,1,4.047,4.047,0,0,1-.962-5.953c3.817-5.265,8.086-10.572,13.422-13.714,2.963-1.743,6.2-2.026,8.675-.756a7.366,7.366,0,0,1,3.777,6.227,23.477,23.477,0,0,1-1.493,9.757c3.939-3.847,11.223-9.3,17.066-8.478,2.684.381,4.763,2.01,6.177,4.841,2.325,4.656.49,10.451-1.611,15.507-1,2.406-2.1,4.808-3.164,7.129l-.377.821c3.165-2.968,6-5.733,8.6-8.391h0a4.608,4.608,0,0,1,4.591-1.363,5.649,5.649,0,0,1,3.909,3.882,4.647,4.647,0,0,1-1.32,4.65l-.428.427c-3.563,3.556-7.247,7.232-10.937,10.783-.455.438-.922.907-1.4,1.39-2.865,2.872-6.43,6.448-10.768,6.71C166.058,237.158,165.894,237.162,165.729,237.162Zm2.2-30.957a.723.723,0,0,1,.371.1.745.745,0,0,1,.363.871l-.036.112c-.819,2.547-1.888,5-2.83,7.169-.374.858-.769,1.724-1.167,2.6-1.605,3.525-3.265,7.17-3.807,10.865a7.854,7.854,0,0,0,1.456,6.3,4.606,4.606,0,0,0,3.853,1.392c3.755-.227,6.954-3.433,9.775-6.263.489-.491.965-.967,1.427-1.411,3.681-3.541,7.36-7.213,10.918-10.764l.427-.427a3.118,3.118,0,0,0,.923-3.163,4.126,4.126,0,0,0-2.816-2.8,3.072,3.072,0,0,0-3.107.95h0c-3.357,3.434-7.1,7.042-11.437,11.03a.767.767,0,0,1-1.22-.875c.636-1.438,1.291-2.867,1.945-4.3,1.058-2.309,2.152-4.7,3.142-7.079,1.968-4.735,3.7-10.13,1.655-14.233-1.192-2.386-2.834-3.7-5.02-4.008-5.448-.771-13.11,5.1-16.928,9.235-.406.441-.8.9-1.191,1.355l-.3.347a.767.767,0,0,1-1.291-.792c1.647-4.034,3.222-8.346,2.822-12.8a5.82,5.82,0,0,0-2.95-5c-2-1.027-4.69-.759-7.2.715-5.1,3-9.239,8.161-12.959,13.292a2.542,2.542,0,0,0,.622,3.811,3.548,3.548,0,0,0,5.064-.665,55.406,55.406,0,0,1,5.49-6.423.767.767,0,0,1,1.216.908q-.434.795-.876,1.585a117.354,117.354,0,0,0-5.41,10.539l-.344.793c-2.9,6.678-6.882,15.825-3.379,22.583,1.7,3.284,5.73,3.6,8.83,2.228,3.868-1.719,6.694-5.294,9.427-8.75q.53-.671,1.052-1.324c2.337-2.907,4.511-6.011,6.615-9.013.756-1.08,1.513-2.161,2.28-3.237l.218-.3a57.091,57.091,0,0,1,3.7-4.82l.069-.074A.836.836,0,0,1,167.93,206.205Zm15.2,5h0Z" transform="translate(-130.608 -182.47)"/>
          </g>
          <path id="Trazado_115022" data-name="Trazado 115022" d="M139.458,220.784c-2.826,5.679-4.42,12.336-1.938,18.44.367.9,1.852.508,1.48-.408-2.331-5.732-.875-11.917,1.783-17.258C141.221,220.677,139.9,219.9,139.458,220.784Z" transform="translate(-131.932 -191.306)"/>
          <path id="Trazado_115023" data-name="Trazado 115023" d="M142.742,240.748c-.013,0-.025-.005-.038-.008-.021-.042-.041-.087-.048-.1l0,0c0-.006,0,0,0-.011-.1-.342-.17-.69-.245-1.038q-.261-1.214-.521-2.428a.773.773,0,0,0-.944-.535.785.785,0,0,0-.535.943l.589,2.745c.164.762.426,1.762,1.338,1.914a.786.786,0,0,0,.943-.536A.776.776,0,0,0,142.742,240.748Z" transform="translate(-132.887 -195.081)"/>
          <path id="Trazado_115024" data-name="Trazado 115024" d="M186.8,199.322c-.871-.465-1.647.859-.774,1.325a3.551,3.551,0,0,1,1.619,3.236,22.19,22.19,0,0,1-.346,4.4,29.182,29.182,0,0,1-2.662,8.239c-.439.881.884,1.659,1.325.774a30.727,30.727,0,0,0,2.977-9.7C189.3,204.826,189.734,200.887,186.8,199.322Z" transform="translate(-143.177 -186.374)"/>
        </g>
      </g>
    </g>
    <g id="Grupo_170652" data-name="Grupo 170652" transform="translate(1266.612 307.734) rotate(-165)">
      <path id="Trazado_117335" data-name="Trazado 117335" d="M78.4,0a.32.32,0,0,0-.162.046c-.025.029-.314.232-.341.259Q71.5,6.8,65.071,13.266A5.316,5.316,0,0,1,61.184,14.9a13.83,13.83,0,0,1-4.709-1.174,25.01,25.01,0,0,0-3.011-.979c-1.6-.371-3.237-.786-4.9-1.208-5.775-1.464-11.747-2.978-17.411-2.978h0q-.533,0-1.063.018C14.566,9.129,11.7,20.138,8.08,34.074l-.314,1.2c-.646,2.479-1.539,5.268-2.485,8.221C1.591,55.027-3,69.377,2.653,78.627c2.816,4.607,9.162,6.868,14.376,8.322,4.246,1.185,8.468,2.45,12.692,3.716,4.5,1.349,9.15,2.743,13.747,4.009,1.349.371,2.832.8,4.416,1.266,7.5,2.187,17.766,5.183,26.571,5.183,5.462,0,9.808-1.165,12.917-3.464,7.84-5.8,10.126-16.843,12.142-26.589.376-1.813.742-3.584,1.133-5.273.237-1.023.484-2.06.734-3.1,2.613-10.938,5.316-22.249-.863-31.727C97.85,26.875,92.71,23.623,85.242,21.3a10.607,10.607,0,0,0-2.421-.469c-2.453-.225-2.546-1.351-2.794-4.359l-.043-.521c-.4-4.766-.708-9.743-.947-15.214-.017-.059-.032-.117-.043-.175a.472.472,0,0,0-.2-.375A.724.724,0,0,0,78.4,0Z" transform="translate(1.386 1.391)" fill="#fff"/>
      <path id="Trazado_117336" data-name="Trazado 117336" d="M103.387,67.5c-2.543,10.991-4.045,25.45-13.8,32.667-11.356,8.4-33.342.473-45.1-2.763-8.855-2.437-17.6-5.258-26.443-7.726-5.356-1.494-12.1-3.888-15.188-8.936C-4.639,68.49,4.634,48.478,7.807,36.316,11.62,21.7,14.4,9.183,31.427,8.585c7.824-.275,16.217,2.458,23.738,4.2,3.98.923,7.5,3.707,10.307.888Q71.9,7.219,78.289.72a1.708,1.708,0,0,1,.676-.51,1.776,1.776,0,0,1,1.964.2,1.82,1.82,0,0,1,.817,1.282,1.74,1.74,0,0,1,.05.2c0,.017.011.029.012.046.221,5.106.523,10.2.949,15.288.419,5,.083,2.83,4.286,4.136C92.932,23.2,99.568,26.227,103.068,31.6,110.194,42.529,106.1,55.774,103.387,67.5Zm-1.146-28.921c-2.483-9.538-13.3-12.593-21.534-15.037a2.033,2.033,0,0,1-1.441-1.893c-.552-4.908-.894-9.837-1.151-14.769C73.342,12.7,67.948,20.007,60.869,18.214,49.978,15.455,29.544,7.439,19.7,16.114c-5.266,4.639-6.405,14.872-8.107,21.245C9.541,45.044,7.663,52.779,5.778,60.505,4.445,65.971,2.994,71.916,5.35,77.3c3.175,7.26,14.066,8.641,20.769,10.61,12.868,3.78,25.659,7.9,38.875,10.312,6.467,1.183,13.555,1.771,19.931-.111,6.268-1.85,8.879-9.054,10.459-14.693,2.659-9.5,4.9-19.184,6.822-28.86C103.269,49.2,103.629,43.91,102.241,38.581ZM74.116,82.009a13.038,13.038,0,0,0,2.728,3.933,14.679,14.679,0,0,0,3.812,3.638.357.357,0,0,0,.519-.4,8.556,8.556,0,0,0-2.715-4.129,21.407,21.407,0,0,0-3.825-3.441A.356.356,0,0,0,74.116,82.009Zm6.872.642c-.08-1.033-.8-1.473-1.606-2.007a6.1,6.1,0,0,0-2.371-1.062.388.388,0,0,0-.432.563,6.362,6.362,0,0,0,2,2.1,2.5,2.5,0,0,0,2.116.79A.393.393,0,0,0,80.988,82.651ZM35.382,33.783a13.474,13.474,0,0,0-2.23-4.626c-.746-1.066-1.428-2.558-2.854-2.7a.255.255,0,0,0-.251.192c-.209,1.426,1.066,2.423,1.874,3.458,1.027,1.315,2.058,2.594,3.153,3.855C35.2,34.108,35.424,33.951,35.382,33.783Zm-5.019-.572a4.218,4.218,0,0,0,2.527,2.232.4.4,0,0,0,.491-.49,4.536,4.536,0,0,0-1.994-2.765A.754.754,0,0,0,30.363,33.21Zm8.243-.237a3.045,3.045,0,0,0,.151-2.173,7.194,7.194,0,0,0-.655-2.362c-.3-.481-1.223-.484-1.321.172a5.445,5.445,0,0,0,.451,2.609,3.789,3.789,0,0,0,.987,1.8A.25.25,0,0,0,38.606,32.974Zm47.222,8.131a.614.614,0,0,0-.577-.757c-1.323-.156-2.473,1.365-3.33,2.195A37.375,37.375,0,0,0,79,45.488a.17.17,0,0,0,.119.287,6.68,6.68,0,0,0,3.931-1.77C83.992,43.283,85.644,42.365,85.828,41.105Zm-4.856,6.279c-.187.08-.1.338.051.392,1.3.453,3.465.053,3.974-1.368a.246.246,0,0,0-.171-.3,2.581,2.581,0,0,0-1.717.4C82.4,46.809,81.68,47.08,80.972,47.384Zm-1.724-6.532a.7.7,0,0,0-.107-.837c-.046-.037-.092-.074-.14-.109a.7.7,0,0,0-.838.109,6.233,6.233,0,0,0-1.72,2.832.231.231,0,0,0,.283.283A4.589,4.589,0,0,0,79.248,40.853Zm-51.813,31.7a4.619,4.619,0,0,0,.677-1.362.277.277,0,0,0-.266-.35,3.215,3.215,0,0,0-1.768.5,17.919,17.919,0,0,0-1.585,1.242c-.976.83-2.133,1.517-2.428,2.848a.4.4,0,0,0,.278.491c1.432.3,2.415-.694,3.382-1.6A17.262,17.262,0,0,0,27.435,72.556Zm2.7.2a2.3,2.3,0,0,0-1.043.483,4.2,4.2,0,0,0-.894,1.2A4.954,4.954,0,0,0,27.275,77a.975.975,0,0,0,1.449.831A4.883,4.883,0,0,0,30.477,75.4a6.219,6.219,0,0,0,.478-1.383,2.244,2.244,0,0,0-.06-.691A.6.6,0,0,0,30.139,72.751ZM23.192,54.287c-1.4-.823-3.952-1.129-5.143.169a.33.33,0,0,0,0,.456c1.146,1.3,3.668,1.411,5.143.652A.746.746,0,0,0,23.192,54.287Zm26.663,29.9a5.533,5.533,0,0,0,.268,3.053.342.342,0,0,0,.462.121c1.916-.865,2.043-4.4.739-5.862a.244.244,0,0,0-.3-.038A3.7,3.7,0,0,0,49.855,84.184ZM89.173,67.093c-.572-1.663-3.645-2.077-5.074-1.415a.34.34,0,0,0-.068.53,6.665,6.665,0,0,0,2.181,1.235,3.664,3.664,0,0,0,2.425.593A.772.772,0,0,0,89.173,67.093ZM67.4,28.992a.359.359,0,0,0-.483-.127c-.97.489-1.089,1.316-1.542,2.229a10.726,10.726,0,0,0-.946,2.365.48.48,0,0,0,.7.537C66.624,33.225,68.356,30.629,67.4,28.992Zm6.185,45.053c-7.98,8.233-19.256.3-23.112-8.509C47.249,69.171,43.2,71.761,38,70.984c-5.324-.795-7.862-6.432-8.461-11.124C27.673,45.228,45.359,35.682,57.374,34.3a1.264,1.264,0,0,1,1.28.565C68.354,42.624,86.052,61.19,73.586,74.045ZM32.918,54.6c-.591,1.117-1.019,3.468.484,4.078.176.072.336-.078.4-.225a5.556,5.556,0,0,0,.229-1.8c.027-.579.13-1.137.12-1.717A.664.664,0,0,0,32.918,54.6Zm19.95-15.245c-4.182-.17-7.907,2.355-11.128,4.771-2.775,2.082-5.964,4.952-7.115,8.329a.093.093,0,0,0,.135.1c3.214-2.17,5.623-5.411,8.885-7.591,2.992-2,6.288-3.192,9.409-4.928A.371.371,0,0,0,52.868,39.351ZM66.053,72.732a.124.124,0,0,0,.03.224c4.53,1.419,11.389-6.461,8.143-10.437a.371.371,0,0,0-.579.075c-1.167,1.891-1.132,4.182-2.5,6.02C69.757,70.471,67.911,71.453,66.053,72.732Zm8.059-15.355a.3.3,0,0,0-.4.1c-.377.561-.148,1.047-.011,1.662.12.537.11,1.021.558,1.379a.286.286,0,0,0,.391,0C75.414,59.84,74.982,57.825,74.112,57.377Z"/>
    </g>
  </g>
</svg>
