<svg xmlns="http://www.w3.org/2000/svg" xmlns:xlink="http://www.w3.org/1999/xlink" width="494.594" height="143.43" viewBox="0 0 494.594 143.43">
  <defs>
    <clipPath id="clip-path">
      <rect id="Rectángulo_42712" data-name="Rectángulo 42712" width="20.724" height="70.955" fill="#c3474c"/>
    </clipPath>
    <clipPath id="clip-path-2">
      <rect id="Rectángulo_42713" data-name="Rectángulo 42713" width="20.723" height="70.955" fill="#c3474c"/>
    </clipPath>
    <clipPath id="clip-path-3">
      <rect id="Rectángulo_42714" data-name="Rectángulo 42714" width="176.149" height="26.033" fill="none"/>
    </clipPath>
    <clipPath id="clip-path-4">
      <rect id="Rectángulo_42715" data-name="Rectángulo 42715" width="137.894" height="23.489" fill="none"/>
    </clipPath>
    <clipPath id="clip-path-5">
      <rect id="Rectángulo_42716" data-name="Rectángulo 42716" width="59.699" height="23.76" fill="none"/>
    </clipPath>
    <clipPath id="clip-path-7">
      <rect id="Rectángulo_42718" data-name="Rectángulo 42718" width="148.983" height="39.535" fill="none"/>
    </clipPath>
    <clipPath id="clip-path-8">
      <rect id="Rectángulo_42719" data-name="Rectángulo 42719" width="7.602" height="15.337" fill="none"/>
    </clipPath>
    <clipPath id="clip-path-10">
      <rect id="Rectángulo_42721" data-name="Rectángulo 42721" width="184.793" height="30.184" fill="none"/>
    </clipPath>
    <clipPath id="clip-path-11">
      <rect id="Rectángulo_42722" data-name="Rectángulo 42722" width="183.379" height="13.933" fill="none"/>
    </clipPath>
    <clipPath id="clip-path-12">
      <rect id="Rectángulo_42723" data-name="Rectángulo 42723" width="16.017" height="23.921" fill="#c3474c"/>
    </clipPath>
    <clipPath id="clip-path-13">
      <rect id="Rectángulo_42724" data-name="Rectángulo 42724" width="16.018" height="23.921" fill="#c3474c"/>
    </clipPath>
  </defs>
  <g id="_4" data-name="4" transform="translate(6388 10170.882)">
    <path id="Trazado_156666" data-name="Trazado 156666" d="M0,0H494.594V143.429H0Z" transform="translate(-6388 -10170.882)" fill="#ffbfc1"/>
    <g id="Grupo_170482" data-name="Grupo 170482">
      <g id="Grupo_170475" data-name="Grupo 170475" transform="translate(-6280.197 -10053.332)">
        <g id="Grupo_170473" data-name="Grupo 170473" transform="translate(5.819 -117.549)">
          <g id="Grupo_170474" data-name="Grupo 170474">
            <rect id="Rectángulo_42695" data-name="Rectángulo 42695" width="13.718" height="4.165" transform="translate(210.635 135.476)" fill="#ebebeb"/>
            <g id="Grupo_170479" data-name="Grupo 170479" transform="translate(-82.622)">
              <rect id="Rectángulo_42687" data-name="Rectángulo 42687" width="13.718" height="4.165" transform="translate(13.298 77.896)" fill="#ff9fa3"/>
              <rect id="Rectángulo_42688" data-name="Rectángulo 42688" width="13.718" height="4.165" transform="translate(5.646 83.147)" fill="#ff9fa3"/>
              <rect id="Rectángulo_42689" data-name="Rectángulo 42689" width="13.718" height="4.165" transform="translate(20.95 83.147)" fill="#ff9fa3"/>
              <rect id="Rectángulo_42690" data-name="Rectángulo 42690" width="13.718" height="4.165" transform="translate(13.298 116.448)" fill="#ff9fa3"/>
              <rect id="Rectángulo_42691" data-name="Rectángulo 42691" width="13.718" height="4.165" transform="translate(337.762 83.147)" fill="#ff9fa3"/>
              <rect id="Rectángulo_42692" data-name="Rectángulo 42692" width="13.718" height="4.165" transform="translate(418.671 93.116)" fill="#ff9fa3"/>
              <rect id="Rectángulo_42693" data-name="Rectángulo 42693" width="13.718" height="4.165" transform="translate(426.323 98.368)" fill="#ff9fa3"/>
              <rect id="Rectángulo_42694" data-name="Rectángulo 42694" width="13.718" height="4.165" transform="translate(129.101 135.477)" fill="#ff9fa3"/>
              <rect id="Rectángulo_42696" data-name="Rectángulo 42696" width="443.74" height="2.809" transform="translate(0 70.836)" fill="#ff9fa3"/>
            </g>
            <g id="Grupo_169649" data-name="Grupo 169649" transform="translate(-102.313)">
              <g id="Grupo_170478" data-name="Grupo 170478" transform="translate(1.982 0)">
                <path id="Trazado_162032" data-name="Trazado 162032" d="M43.925,190.322a3.335,3.335,0,0,1,.28,1.4,3.3,3.3,0,0,1-.28,1.4,3.3,3.3,0,0,1-.28-1.4,3.335,3.335,0,0,1,.28-1.4" transform="translate(-29.383 -119.486)" fill="#fff0f1"/>
                <path id="Trazado_162033" data-name="Trazado 162033" d="M93.424,190.322a3.335,3.335,0,0,1,.28,1.4,3.3,3.3,0,0,1-.28,1.4,3.3,3.3,0,0,1-.28-1.4,3.336,3.336,0,0,1,.28-1.4" transform="translate(-60.458 -119.486)" fill="#fff0f1"/>
                <path id="Trazado_162034" data-name="Trazado 162034" d="M142.923,190.322a3.328,3.328,0,0,1,.28,1.4,3.3,3.3,0,0,1-.28,1.4,3.3,3.3,0,0,1-.28-1.4,3.335,3.335,0,0,1,.28-1.4" transform="translate(-41.615 -119.486)" fill="#fff0f1"/>
                <path id="Trazado_162035" data-name="Trazado 162035" d="M192.423,190.322a3.33,3.33,0,0,1,.28,1.4,3.3,3.3,0,0,1-.28,1.4,3.3,3.3,0,0,1-.28-1.4,3.329,3.329,0,0,1,.28-1.4" transform="translate(-54.697 -119.486)" fill="#fff0f1"/>
                <path id="Trazado_162036" data-name="Trazado 162036" d="M241.923,190.322a3.335,3.335,0,0,1,.28,1.4,3.3,3.3,0,0,1-.28,1.4,3.29,3.29,0,0,1-.28-1.4,3.329,3.329,0,0,1,.28-1.4" transform="translate(-67.778 -119.486)" fill="#fff0f1"/>
                <path id="Trazado_162037" data-name="Trazado 162037" d="M291.421,190.322a3.329,3.329,0,0,1,.28,1.4,3.3,3.3,0,0,1-.28,1.4,3.3,3.3,0,0,1-.28-1.4,3.335,3.335,0,0,1,.28-1.4" transform="translate(-80.859 -119.486)" fill="#fff0f1"/>
                <path id="Trazado_162038" data-name="Trazado 162038" d="M340.92,190.322a3.335,3.335,0,0,1,.28,1.4,3.3,3.3,0,0,1-.28,1.4,3.3,3.3,0,0,1-.28-1.4,3.335,3.335,0,0,1,.28-1.4" transform="translate(-93.94 -119.486)" fill="#fff0f1"/>
                <path id="Trazado_162039" data-name="Trazado 162039" d="M390.42,190.322a3.336,3.336,0,0,1,.28,1.4,3.3,3.3,0,0,1-.28,1.4,3.291,3.291,0,0,1-.28-1.4,3.329,3.329,0,0,1,.28-1.4" transform="translate(-107.022 -119.486)" fill="#fff0f1"/>
                <path id="Trazado_162040" data-name="Trazado 162040" d="M439.918,190.322a3.33,3.33,0,0,1,.28,1.4,3.3,3.3,0,0,1-.28,1.4,3.3,3.3,0,0,1-.28-1.4,3.329,3.329,0,0,1,.28-1.4" transform="translate(-120.104 -119.486)" fill="#fff0f1"/>
                <path id="Trazado_162041" data-name="Trazado 162041" d="M489.417,190.322a3.335,3.335,0,0,1,.28,1.4,3.3,3.3,0,0,1-.28,1.4,3.66,3.66,0,0,1,0-2.809" transform="translate(-133.185 -119.486)" fill="#fff0f1"/>
                <path id="Trazado_162042" data-name="Trazado 162042" d="M538.916,190.322a3.33,3.33,0,0,1,.28,1.4,3.3,3.3,0,0,1-.28,1.4,3.3,3.3,0,0,1-.28-1.4,3.334,3.334,0,0,1,.28-1.4" transform="translate(-112.405 -119.486)" fill="#fff0f1"/>
                <path id="Trazado_162043" data-name="Trazado 162043" d="M588.416,190.322a3.663,3.663,0,0,1,0,2.809,3.291,3.291,0,0,1-.28-1.4,3.335,3.335,0,0,1,.28-1.4" transform="translate(-143.482 -119.486)" fill="#fff0f1"/>
                <path id="Trazado_162044" data-name="Trazado 162044" d="M501.368,41.767c2.584,0,46.062.286,48.794.2.2-.006.3-.294.106-.391-1.723-.853-3.676-.682-5.466-1.285a5.805,5.805,0,0,1-2.431-1.833,5.04,5.04,0,0,0-2.262-1.477,4.784,4.784,0,0,0-2.463-.077,20.959,20.959,0,0,0-2.49,1.034,5.12,5.12,0,0,1-5.609-1.507,12.333,12.333,0,0,0-4.111-3.162,5.459,5.459,0,0,0-4.355-.06c-1.595.722-2.689,2.175-4.187,3.049-1.776,1.038-3.9.793-5.861,1.105s-3.467,1.965-5.187,2.916a3.675,3.675,0,0,1-1.875.581c-.384-.01-.762-.114-1.142-.162a1.563,1.563,0,0,0-1.553.438c-.1.121-.077.631.093.631" transform="translate(-88.913 -20.581)" fill="#fff0f1"/>
                <path id="Trazado_162045" data-name="Trazado 162045" d="M5.435,6.56c1.886,0,33.629.209,35.624.146.143,0,.22-.215.078-.286-1.258-.623-2.684-.5-3.991-.938a4.243,4.243,0,0,1-1.775-1.338A3.68,3.68,0,0,0,33.72,3.064a3.487,3.487,0,0,0-1.8-.056,15.274,15.274,0,0,0-1.818.755,3.738,3.738,0,0,1-4.1-1.1,9.01,9.01,0,0,0-3-2.308,3.985,3.985,0,0,0-3.18-.044C18.663.838,17.864,1.9,16.77,2.537c-1.3.758-2.847.579-4.279.807S9.96,4.779,8.7,5.473A2.686,2.686,0,0,1,7.335,5.9c-.281-.007-.556-.083-.834-.118a1.141,1.141,0,0,0-1.134.32c-.071.088-.056.461.068.461" transform="translate(-5.325 0)" fill="#fff0f1"/>
                <path id="Trazado_162046" data-name="Trazado 162046" d="M305.28,66.569c1.886,0,33.629.209,35.624.146.143,0,.22-.215.078-.286-1.258-.623-2.684-.5-3.991-.938a4.244,4.244,0,0,1-1.775-1.339,3.684,3.684,0,0,0-1.652-1.079,3.5,3.5,0,0,0-1.8-.056,15.337,15.337,0,0,0-1.818.755,3.738,3.738,0,0,1-4.1-1.1,9.013,9.013,0,0,0-3-2.309,3.985,3.985,0,0,0-3.18-.044c-1.164.527-1.963,1.589-3.057,2.226-1.3.758-2.847.579-4.279.807s-2.532,1.435-3.787,2.129a2.681,2.681,0,0,1-1.369.424,8.315,8.315,0,0,1-.834-.118,1.141,1.141,0,0,0-1.134.32c-.07.088-.056.46.068.46" transform="translate(-65.102 -37.674)" fill="#fff0f1"/>
                <path id="Trazado_162047" data-name="Trazado 162047" d="M81.146,107.773c1.886,0,33.629.209,35.624.146.143,0,.22-.215.078-.286-1.258-.623-2.684-.5-3.991-.938a4.24,4.24,0,0,1-1.775-1.339,3.681,3.681,0,0,0-1.652-1.078,3.489,3.489,0,0,0-1.8-.056,15.275,15.275,0,0,0-1.818.755,3.738,3.738,0,0,1-4.1-1.1,9,9,0,0,0-3-2.308,3.983,3.983,0,0,0-3.18-.044c-1.164.527-1.963,1.589-3.057,2.226-1.3.758-2.847.579-4.279.807s-2.532,1.435-3.787,2.129a2.685,2.685,0,0,1-1.369.424c-.281-.007-.556-.083-.834-.118a1.141,1.141,0,0,0-1.134.32c-.07.088-.056.461.068.461" transform="translate(-52.857 -63.542)" fill="#fff0f1"/>
                <path id="Trazado_162048" data-name="Trazado 162048" d="M184.258,30.048c.037.106,50.031,0,49.4,0-.288,0,.437-.43.155-.569a14.183,14.183,0,0,0-5.18-.993,7.975,7.975,0,0,1-3.027-.734,7.853,7.853,0,0,1-2.2-2.141,9.394,9.394,0,0,0-8.537-3.235c-3.555.557-6.357,3.265-9.918,3.762-2.139.3-4.162-.528-6.253-.82a7.653,7.653,0,0,0-4.695.858,8.957,8.957,0,0,1-3.445,1.118c-.979.069-1.962-.043-2.943-.053a6.593,6.593,0,0,0-4.33,1.731c-.159.14-.663,1.075.97,1.075" transform="translate(-34.559 -13.981)" fill="#fff0f1"/>
              </g>
            </g>
            <g id="Grupo_169651" data-name="Grupo 169651" transform="translate(0.011 115.86)">
              <g id="Grupo_170476" data-name="Grupo 170476">
                <path id="Trazado_162049" data-name="Trazado 162049" d="M10.23,348.663c-1.846.065-3.9.171-5.432-1.026-1.41-1.1-2.67-2.751-2.483-4.641.054-.539.178-.872.755-.642a6.9,6.9,0,0,1,2.168,2,18.656,18.656,0,0,0,2.56,2.428c.656.5,1.364.939,2.034,1.426.085.06.168.122.251.186.031.022.064.046.095.071h.053a.092.092,0,0,1,.076.04.083.083,0,0,1,.014.031.1.1,0,0,1-.091.122" transform="translate(-1.275 -334.079)" fill="#fc5f65"/>
                <path id="Trazado_162050" data-name="Trazado 162050" d="M11.877,350.613c-1.622-.028-3.373.046-4.671-1.055A7.532,7.532,0,0,1,5.7,347.727c-.188-.306-.75-1.215-.517-1.578.422-.655,2.355,2.016,2.622,2.272a7.919,7.919,0,0,0,3.583,1.861q.128.089.251.186a8.859,8.859,0,0,1-2.69-1.034,13.224,13.224,0,0,1-2.693-2.65c-.194-.206-.781-.895-1-.466-.146.283.4,1.174.514,1.365a7.489,7.489,0,0,0,1.424,1.74c1.294,1.13,3.037,1.09,4.671,1.158a.085.085,0,0,1,.014.032" transform="translate(-2.833 -336.15)" fill="#fff"/>
                <path id="Trazado_162051" data-name="Trazado 162051" d="M19.583,345.231c-.016.071-.03.142-.045.214a.011.011,0,0,1,0,.006.05.05,0,0,1-.033.038.078.078,0,0,1-.1-.037.056.056,0,0,1,0-.044c0-.01.005-.018.009-.029l.02-.063,0-.005c0-.006,0-.014-.005-.021-.327-1.221-.454-2.491-.8-3.713-.329-1.166-.738-2.31-.975-3.5-.149-.75-.671-4.516.988-4.046.735.208,1.239,1.273,1.518,1.909a7.765,7.765,0,0,1,.611,2.705c.121,2.3-.72,4.385-1.186,6.586" transform="translate(-9.612 -329.521)" fill="#fc5f65"/>
                <path id="Trazado_162052" data-name="Trazado 162052" d="M21.44,343.423a9.056,9.056,0,0,0-.266-2.555c-.074-.289-.435-1.674-.9-1.639-.3.02-.355.618-.38.815a7.975,7.975,0,0,0,.329,2.509,34.665,34.665,0,0,1,.609,5.029c-.014.106-.032.215-.043.32-.014.089-.023.177-.034.266,0,.032-.009.06-.011.092s-.006.045-.009.072a.078.078,0,0,0,.1.037c.009-.068.02-.137.028-.206,0,.057,0,.111.006.169,0,0,0,0,0-.006.012-.06.023-.118.035-.175,0-.014.005-.026.009-.04,0-.094,0-.189-.006-.28a37.668,37.668,0,0,0,.538-4.408m-.561,3.8c-.046-.987-.143-1.971-.283-2.949-.112-.79-.261-1.571-.426-2.349a8.054,8.054,0,0,1-.212-1.333c-.014-.343.034-1.613.689-.826a5.157,5.157,0,0,1,.644,2.489,12.794,12.794,0,0,1-.045,2.337c-.089.881-.235,1.756-.366,2.632" transform="translate(-10.936 -332.401)" fill="#fff"/>
                <path id="Trazado_162053" data-name="Trazado 162053" d="M15.6,363.517h0a.461.461,0,0,1-.068.008c-1.687-.085-3.935.073-5.339-1.043-1.037-.825-2.056-2.454-1.728-3.837.373-1.559,2.478.311,3.035.763a51.465,51.465,0,0,1,4.135,4.023c.007.011.015.02.022.031l0,.005c.015.027-.021.042-.059.05" transform="translate(-4.631 -342.743)" fill="#fc5f65"/>
                <path id="Trazado_162054" data-name="Trazado 162054" d="M17.191,365.409c-.1-.06-.195-.12-.292-.183-1.11-.7-2.191-1.445-3.23-2.243-.263-.2-2.162-1.891-2.449-1.287-.171.366.455,1.11.655,1.362a5.2,5.2,0,0,0,1.282,1.145,13.348,13.348,0,0,0,3.762,1.19c.06.012.12.029.18.046a.189.189,0,0,0,.032.02h0c.037-.009.072-.023.058-.049m-3.339-.961a5.236,5.236,0,0,1-1.456-.984c-.283-.269-1.282-1.279-1.015-1.694.14-.22.257-.1.526.029a3.4,3.4,0,0,1,.358.206c.283.186.543.4.807.612.463.372.933.729,1.413,1.078.784.573,1.591,1.11,2.414,1.622a25.476,25.476,0,0,1-3.046-.87" transform="translate(-6.166 -344.684)" fill="#fff"/>
                <path id="Trazado_162055" data-name="Trazado 162055" d="M27.543,355.755a9.979,9.979,0,0,1-2.892,5.051.074.074,0,0,1-.032.018.076.076,0,0,1-.086-.032.072.072,0,0,1,.009-.1c.029-.027.057-.057.086-.086.28-2.294.587-4.575.824-6.875.055-.542.48-3.993,1.54-3.431.654.348.7,1.761.754,2.4a10.056,10.056,0,0,1-.2,3.055" transform="translate(-13.495 -338.457)" fill="#fc5f65"/>
                <path id="Trazado_162056" data-name="Trazado 162056" d="M26.948,355.293c-.057-.192-.158-.389-.372-.255-.412.257-.575,1.88-.644,2.329-.283,1.851-.721,3.63-1.167,5.441-.037.152-.074.306-.112.461l-.1.137a.076.076,0,0,0,.086.031c.006-.014.009-.031.014-.046.045-.06.094-.123.137-.186v0a11.774,11.774,0,0,0,1.67-3.255,11.142,11.142,0,0,0,.492-2.269,6.49,6.49,0,0,0,0-2.386m-2.166,7.787c-.02.031-.043.06-.063.092.02-.063.04-.123.057-.186a33.291,33.291,0,0,0,1.033-4.211c.123-.724.2-1.453.349-2.171.063-.3.212-1.17.463-1.31s.246.2.272.392c.017.14.017.395.02.526a11.631,11.631,0,0,1-2.131,6.869" transform="translate(-13.513 -341.07)" fill="#fff"/>
                <path id="Trazado_162057" data-name="Trazado 162057" d="M13.987,355.986h-.338c-.006-.3-.011-.6-.02-.89-.04-1.2-.089-2.4-.16-3.6-.04-.684-.089-1.362-.16-2.034a.5.5,0,0,1-.006-.068c-.009-.054-.014-.109-.02-.166s-.014-.117-.023-.177a14.512,14.512,0,0,0-1.159-4.406c-.215-.466-.449-.921-.695-1.373-.023-.043-.049-.086-.072-.129a.227.227,0,0,0-.02-.034c-.023-.046-.049-.089-.074-.135s-.037-.066-.057-.1c-.781-1.373-1.674-2.686-2.52-4.008-.244-.378-.487-.758-.724-1.138a.475.475,0,0,1-.043-.069.859.859,0,0,1-.054-.083c-1.064-1.679-2.112-3.373-3.216-5.021-.043-.06.058-.114.1-.054.747,1.093,1.519,2.169,2.286,3.25.1.143.2.289.306.432.2.286.4.569.6.855.4.572.8,1.144,1.182,1.725a48.426,48.426,0,0,1,3.107,5.027c.066.131.129.263.192.4.04.083.08.166.114.249s.089.192.131.289a15.563,15.563,0,0,1,1.136,5.315c.009.125.018.255.023.383,0,.057.009.117.011.177,0,.032,0,.063.006.094s0,.08.006.123v0c0,.029,0,.06,0,.091.006.109.009.217.014.329.049,1.2.08,2.4.106,3.593.009.381.023.764.037,1.147" transform="translate(-2.551 -328.69)" fill="#fc5f65"/>
                <path id="Trazado_162058" data-name="Trazado 162058" d="M1.392,329.643c-.924-1.242-2.108-3.805-.746-5.138a1.45,1.45,0,0,1,1.93-.143,4.212,4.212,0,0,1,1.275,2.318c.624,2.173,1.038,4.388,1.817,6.518.014.013.066.182.085.229s-.054.063-.071.02c-.026-.069-.051-.139-.077-.208a18.585,18.585,0,0,1-4.212-3.6" transform="translate(-0.029 -324.061)" fill="#fc5f65"/>
                <path id="Trazado_162059" data-name="Trazado 162059" d="M7.55,335.508c-.008-.011-.014-.026-.023-.037a15.311,15.311,0,0,1-.864-1.608A30.854,30.854,0,0,1,5.336,330.3c-.149-.466-.812-2.749-1.628-1.84a2.047,2.047,0,0,0-.24,1.53,5.74,5.74,0,0,0,.709,2.14,10.465,10.465,0,0,0,3.067,3.2c.054.043.108.083.163.123.011.02.023.037.034.058a.275.275,0,0,0,.023.037.038.038,0,0,0,.02.017.051.051,0,0,0,.072-.032.036.036,0,0,0-.006-.034m-.36-.252a12.226,12.226,0,0,1-2.6-2.609,6.456,6.456,0,0,1-.847-1.728,5.247,5.247,0,0,1-.183-.838,3.673,3.673,0,0,1-.037-.641c.014-.469.209-.981.487-1.029.343-.063.457.137.684.532a3.774,3.774,0,0,1,.2.412,11.263,11.263,0,0,1,.383,1.081c.192.6.387,1.2.6,1.8.146.4.3.8.474,1.2A16.021,16.021,0,0,0,7.37,335.4c-.06-.046-.12-.095-.18-.143" transform="translate(-1.899 -326.366)" fill="#fff"/>
                <path id="Trazado_162060" data-name="Trazado 162060" d="M37.4,342.37c-.587,1.093-1.247,2.145-1.918,3.188-.379.592-.767,1.179-1.146,1.773a5.014,5.014,0,0,0-.993,2.083l0,0a.443.443,0,0,1-.031.1.043.043,0,0,1-.013.009.092.092,0,0,1-.139-.084c0-.018,0-.035.006-.052s0-.013-.005-.019a3.021,3.021,0,0,1-.017-.692,16.2,16.2,0,0,1,.072-1.881,15.371,15.371,0,0,1,.813-3.758,12.991,12.991,0,0,1,1.569-3.061,6.794,6.794,0,0,1,2.17-2.284c.787-.358.9.748.879,1.278A8.228,8.228,0,0,1,37.4,342.37" transform="translate(-18.233 -331.521)" fill="#fc5f65"/>
                <path id="Trazado_162061" data-name="Trazado 162061" d="M37.353,341.847c-.419-.163-1.247,1.073-1.622,1.6a12.514,12.514,0,0,0-1.449,2.679,16.18,16.18,0,0,0-1.071,5.34c0,.072-.008.148-.009.221,0,.007,0,.014,0,.02s0,.032,0,.051a.092.092,0,0,0,.139.084c.028-.152.061-.3.1-.446s.069-.265.109-.393a21.414,21.414,0,0,1,1.86-4.044c.823-1.522,2.5-4.893,1.942-5.11m-3.985,9.393c-.051.195-.093.39-.128.585.009-.15.018-.3.029-.448a17.894,17.894,0,0,1,.921-4.721,12.808,12.808,0,0,1,1.161-2.452,11.846,11.846,0,0,1,.837-1.195c.129-.158.871-1.172,1.108-1.015.166.11-.186,1.146-.192,1.168-.068.207-.147.412-.23.617-.169.419-.361.83-.558,1.235-.432.879-.914,1.735-1.375,2.6a16.894,16.894,0,0,0-1.574,3.627" transform="translate(-18.27 -333.833)" fill="#fff"/>
                <path id="Trazado_162062" data-name="Trazado 162062" d="M41.26,358.955a11.693,11.693,0,0,1-4.808,2.315c-.921.249-1.853.456-2.779.683a12.671,12.671,0,0,0-2.451.722c-.033.015-.068.032-.1.05a3.333,3.333,0,0,0-.6.388.049.049,0,0,1-.045.009.747.747,0,0,1-.051.056.016.016,0,0,1-.027-.018c.011-.023.026-.048.037-.071l0-.006a.051.051,0,0,1,.018-.059.138.138,0,0,1,.023-.018c.012-.023.024-.047.038-.07.9-1.669,2.81-2.965,4.369-3.913a9.993,9.993,0,0,1,5.14-1.643c.463,0,1.543-.071,1.825.415.258.444-.3.905-.591,1.16" transform="translate(-16.726 -342.381)" fill="#fc5f65"/>
                <path id="Trazado_162063" data-name="Trazado 162063" d="M40.117,359.6c-.224-.507-1.648-.022-2,.085a19.268,19.268,0,0,0-3.063,1.3A17.185,17.185,0,0,0,30.622,364v0l-.056.033c-.016.025-.027.048-.04.071a.1.1,0,0,0-.023.019.051.051,0,0,0-.018.061c.027-.014.051-.029.077-.041.2-.114.4-.219.605-.321.035-.017.069-.035.1-.049a37.12,37.12,0,0,1,4.464-1.649,17.764,17.764,0,0,0,3.048-1.3c.247-.138,1.523-.8,1.335-1.229m-.647.673a17.214,17.214,0,0,1-5.245,2.224,19.45,19.45,0,0,0-3.462,1.423,18.281,18.281,0,0,1,4.059-2.68,24.568,24.568,0,0,1,2.526-1.159,10.043,10.043,0,0,1,1.436-.453,3.948,3.948,0,0,1,.9-.113c.567.048.044.56-.211.759" transform="translate(-16.774 -343.478)" fill="#fff"/>
                <path id="Trazado_162064" data-name="Trazado 162064" d="M25.031,364.173a.1.1,0,0,1-.095.014c0,.013.006.023.009.035a.028.028,0,0,1-.019.036.027.027,0,0,1-.037-.015,16.251,16.251,0,0,1-1.516-6.473,8.484,8.484,0,0,1,.469-2.719c.212-.6.641-1.8,1.312-2.031,1.35-.47.857,3.554.78,4.16-.138,1.105-.37,2.2-.53,3.3-.174,1.206-.261,2.423-.348,3.638a.081.081,0,0,1-.025.058" transform="translate(-12.864 -339.964)" fill="#fc5f65"/>
                <path id="Trazado_162065" data-name="Trazado 162065" d="M25.792,365.99c-.02-.115-.037-.229-.05-.345a18.315,18.315,0,0,1,.077-5.633,16.859,16.859,0,0,0,.318-2.825c0-.235.045-1.115-.444-.85a6.412,6.412,0,0,0-.761,2.083,11.622,11.622,0,0,0-.151,2.838,19.131,19.131,0,0,0,.864,4.684c.013.045.026.09.041.132a.027.027,0,0,0,.02-.035.21.21,0,0,1-.008-.034.1.1,0,0,0,.095-.015m-.842-3.949a13.47,13.47,0,0,1-.03-2.822,9.54,9.54,0,0,1,.185-1.11,6.047,6.047,0,0,1,.248-.846c.265-.668.385-.82.507-.8.074.013.142.122.185.6a4.732,4.732,0,0,1-.03.924c-.049.435-.112.868-.182,1.3-.135.865-.284,1.731-.354,2.6a14.156,14.156,0,0,0,.17,3.75,21.85,21.85,0,0,1-.7-3.6" transform="translate(-13.626 -341.782)" fill="#fff"/>
                <path id="Trazado_162066" data-name="Trazado 162066" d="M32.16,371.787a5.392,5.392,0,0,1-1.683,1.577c-1.294.838-2.748,1.389-4.1,2.133-.2.111-.4.226-.6.348-.021.014-.221.216-.212.2,0,0,.054-.09.144-.235h0a22.053,22.053,0,0,1,2.9-3.813,11.027,11.027,0,0,1,2.162-1.585c.375-.194,1.237-.6,1.644-.277.439.343-.05,1.315-.265,1.657" transform="translate(-14.075 -349.328)" fill="#fc5f65"/>
                <path id="Trazado_162067" data-name="Trazado 162067" d="M31.592,372.157c-.375-.5-2.527,1.282-2.812,1.509a15.514,15.514,0,0,0-2.793,2.9c-.093.12-.18.243-.268.368-.09.146-.144.23-.146.235s.192-.18.214-.2l.1-.062c.164-.1.33-.194.494-.284.872-.613,1.758-1.212,2.619-1.845a14.283,14.283,0,0,0,1.759-1.491c.122-.125,1-.921.833-1.137m-.389.585c-1.467,1.705-3.5,2.708-5.276,4.04l-.086.065c.036-.045.069-.093.105-.137a17.67,17.67,0,0,1,2.278-2.437,16.9,16.9,0,0,1,1.607-1.249,8.487,8.487,0,0,1,.936-.61c.145-.073.55-.257.629-.167.114.124-.1.383-.192.5" transform="translate(-14.074 -350.46)" fill="#fff"/>
                <path id="Trazado_162068" data-name="Trazado 162068" d="M52.363,339.546c-2.771,2.8-7.226,2.88-10.152,5.482l-.014.013c-.089.079-.176.161-.263.246a.074.074,0,0,1-.118-.026.053.053,0,0,1,.015-.058c.02-.021.041-.041.063-.06a18.835,18.835,0,0,1,4.343-5.1,9.553,9.553,0,0,1,5.076-2.431c.472-.05,1.405-.18,1.717.326.331.535-.324,1.264-.666,1.608" transform="translate(-23.005 -331.483)" fill="#fc5f65"/>
                <path id="Trazado_162069" data-name="Trazado 162069" d="M50.991,340.97c-.133-.211-.481-.152-.673-.131a6.053,6.053,0,0,0-1.407.329,9.961,9.961,0,0,0-2.591,1.423,20.545,20.545,0,0,0-3.733,3.429c-.243.3-.474.6-.688.914-.027.039-.052.078-.079.117a.075.075,0,0,0,.118.027c.082-.085.166-.159.253-.239a.189.189,0,0,1,.023-.022A12.037,12.037,0,0,1,44,345.3a28.317,28.317,0,0,1,3.2-1.753c.427-.215,4.247-1.856,3.784-2.578m-.537.688a13.532,13.532,0,0,1-2.556,1.436c-.872.445-1.748.879-2.613,1.335a13.756,13.756,0,0,0-1.962,1.256A10.706,10.706,0,0,0,41.892,347a14.912,14.912,0,0,1,1.227-1.464.047.047,0,0,1,.018-.014,26.943,26.943,0,0,1,2.519-2.282l.032-.028a12.488,12.488,0,0,1,2.5-1.637,7.163,7.163,0,0,1,1.535-.534c.6-.125,1.1-.164,1.164.037.039.138-.208.4-.432.584" transform="translate(-23.008 -333.274)" fill="#fff"/>
                <path id="Trazado_162070" data-name="Trazado 162070" d="M36.444,346.247c-.808.779-1.6,1.579-2.392,2.383q-.56.566-1.11,1.132c-.009.009-.018.015-.024.022l-.4.409a32.276,32.276,0,0,0-3.485,3.89,14.752,14.752,0,0,0-1.333,2.4c-.036.087-.076.173-.115.259v0c-.018.048-.04.1-.059.143-.013.026-.023.052-.033.079-.313.729-.59,1.475-.855,2.2-.371,1.013-.672,2.044-.961,3.076a.486.486,0,0,0-.026.091c-.015.046-.027.094-.042.14-.007.025-.013.047-.019.073-.014.044-.025.088-.039.132-.092.333-.186.664-.285,1l-.307-.119a21.435,21.435,0,0,1,.778-3.11.493.493,0,0,1,.021-.063c.029-.1.062-.2.1-.3.039-.123.079-.243.123-.364q.151-.438.307-.866a22.63,22.63,0,0,1,2.276-4.831l.084-.121a.536.536,0,0,1,.035-.051c.018-.03.038-.059.059-.088l.1-.136c.059-.081.121-.162.182-.24l.055-.071a34.619,34.619,0,0,1,3.278-3.434c.206-.2.411-.4.619-.592l.347-.326.532-.487a.048.048,0,0,1,.018-.015c.836-.765,1.687-1.512,2.519-2.282.038-.035.1.029.06.066" transform="translate(-13.736 -336.219)" fill="#fc5f65"/>
              </g>
            </g>
            <g id="Grupo_170481" data-name="Grupo 170481" transform="translate(242.28 111.548)">
              <g id="Grupo_170476-2" data-name="Grupo 170476" transform="translate(0 0)">
                <path id="Trazado_162049-2" data-name="Trazado 162049" d="M2.4,349.666c2.135.076,4.517.2,6.285-1.188,1.632-1.278,3.089-3.183,2.873-5.37-.063-.624-.206-1.009-.874-.743a7.978,7.978,0,0,0-2.509,2.318,21.585,21.585,0,0,1-2.962,2.809c-.759.583-1.579,1.086-2.353,1.65-.1.069-.195.141-.291.216-.036.026-.074.054-.11.083-.02,0-.041,0-.061,0a.106.106,0,0,0-.088.046.1.1,0,0,0-.016.036.112.112,0,0,0,.105.141" transform="translate(22.082 -332.791)" fill="#fc5f65"/>
                <path id="Trazado_162050-2" data-name="Trazado 162050" d="M5.128,351.33c1.877-.032,3.9.053,5.4-1.221a8.715,8.715,0,0,0,1.743-2.118c.217-.354.868-1.406.6-1.826-.489-.758-2.725,2.333-3.034,2.629a9.163,9.163,0,0,1-4.145,2.153q-.148.1-.291.216a10.249,10.249,0,0,0,3.113-1.2,15.3,15.3,0,0,0,3.116-3.067c.225-.238.9-1.035,1.16-.539.169.327-.459,1.358-.595,1.579a8.665,8.665,0,0,1-1.648,2.013c-1.5,1.307-3.514,1.261-5.405,1.34a.1.1,0,0,0-.017.037" transform="translate(19.253 -334.595)" fill="#fff"/>
                <path id="Trazado_162051-2" data-name="Trazado 162051" d="M18.841,347c.019.082.034.164.052.247a.013.013,0,0,0,0,.007.058.058,0,0,0,.038.044.09.09,0,0,0,.112-.043.064.064,0,0,0,0-.051c0-.011-.006-.021-.011-.034l-.023-.072,0-.006c0-.007,0-.017.006-.024.378-1.413.526-2.882.924-4.3.38-1.349.854-2.672,1.128-4.05.173-.868.777-5.225-1.143-4.682-.851.241-1.434,1.472-1.756,2.209a8.985,8.985,0,0,0-.707,3.13c-.14,2.657.833,5.074,1.372,7.621" transform="translate(4.467 -328.819)" fill="#fc5f65"/>
                <path id="Trazado_162052-2" data-name="Trazado 162052" d="M19.869,344.082a10.479,10.479,0,0,1,.308-2.956c.086-.334.5-1.937,1.046-1.9.351.023.41.715.44.943a9.227,9.227,0,0,1-.381,2.9,40.112,40.112,0,0,0-.705,5.819c.017.123.036.248.05.371.017.1.026.205.04.308,0,.036.01.07.013.106s.007.053.01.083a.091.091,0,0,1-.113.043c-.01-.079-.023-.159-.033-.238,0,.066,0,.129-.007.2,0,0,0,0,0-.007-.014-.07-.027-.136-.04-.2,0-.017-.006-.03-.01-.046,0-.109,0-.218.007-.324a43.585,43.585,0,0,1-.622-5.1m.649,4.4c.053-1.142.166-2.281.328-3.413.129-.914.3-1.817.493-2.718a9.319,9.319,0,0,0,.245-1.543c.017-.4-.04-1.867-.8-.956a5.967,5.967,0,0,0-.745,2.88,14.8,14.8,0,0,0,.053,2.7c.1,1.02.272,2.032.424,3.045" transform="translate(2.824 -331.329)" fill="#fff"/>
                <path id="Trazado_162053-2" data-name="Trazado 162053" d="M8.47,364.378h0a.534.534,0,0,0,.079.009c1.952-.1,4.553.084,6.177-1.207,1.2-.955,2.379-2.84,2-4.44-.432-1.8-2.867.36-3.512.882a59.557,59.557,0,0,0-4.784,4.655c-.008.012-.018.023-.025.035l0,.006c-.017.031.024.048.068.058" transform="translate(13.688 -340.34)" fill="#fc5f65"/>
                <path id="Trazado_162054-2" data-name="Trazado 162054" d="M11.194,366.013c.113-.069.226-.139.338-.212,1.284-.808,2.535-1.672,3.737-2.6.3-.232,2.5-2.188,2.833-1.49.2.424-.526,1.284-.758,1.576a6.022,6.022,0,0,1-1.483,1.324,15.443,15.443,0,0,1-4.353,1.377c-.069.014-.139.033-.208.053a.217.217,0,0,1-.036.023h0c-.043-.01-.083-.026-.067-.056m3.863-1.112a6.059,6.059,0,0,0,1.685-1.139c.328-.311,1.483-1.48,1.175-1.96-.162-.255-.3-.119-.609.033a3.926,3.926,0,0,0-.414.238c-.328.215-.629.467-.933.708-.536.43-1.079.844-1.635,1.247-.907.662-1.841,1.284-2.794,1.877a29.484,29.484,0,0,0,3.525-1.006" transform="translate(10.896 -342.032)" fill="#fff"/>
                <path id="Trazado_162055-2" data-name="Trazado 162055" d="M24.8,356.621a11.547,11.547,0,0,0,3.346,5.844.086.086,0,0,0,.036.021.088.088,0,0,0,.1-.037.083.083,0,0,0-.01-.113c-.033-.032-.066-.066-.1-.1-.323-2.654-.68-5.293-.953-7.955-.064-.627-.555-4.62-1.782-3.97-.757.4-.808,2.038-.873,2.773a11.635,11.635,0,0,0,.234,3.535" transform="translate(-6.204 -336.605)" fill="#fc5f65"/>
                <path id="Trazado_162056-2" data-name="Trazado 162056" d="M24.686,355.34c.066-.222.182-.45.43-.295.477.3.666,2.175.745,2.695.328,2.141.834,4.2,1.351,6.3.043.176.086.354.129.533l.119.159a.088.088,0,0,1-.1.036c-.007-.017-.01-.036-.017-.053-.053-.07-.109-.142-.159-.215v0a13.623,13.623,0,0,1-1.933-3.767,12.892,12.892,0,0,1-.569-2.625,7.509,7.509,0,0,1,0-2.761m2.506,9.01c.023.036.049.069.073.106-.023-.073-.046-.143-.066-.216a38.522,38.522,0,0,1-1.2-4.873c-.142-.837-.232-1.681-.4-2.512-.073-.351-.245-1.354-.536-1.516s-.285.228-.315.454c-.02.162-.02.457-.023.609a13.458,13.458,0,0,0,2.466,7.948" transform="translate(-5.386 -338.883)" fill="#fff"/>
                <path id="Trazado_162057-2" data-name="Trazado 162057" d="M4.616,359.679h.391c.007-.344.013-.688.023-1.03.046-1.386.1-2.774.185-4.161.046-.791.1-1.576.185-2.354a.58.58,0,0,0,.007-.079c.01-.063.017-.126.023-.192s.016-.136.026-.205a16.792,16.792,0,0,1,1.341-5.1c.248-.54.52-1.066.8-1.589.027-.05.057-.1.083-.149a.263.263,0,0,1,.023-.04c.027-.053.056-.1.086-.156s.043-.076.066-.116c.9-1.589,1.936-3.108,2.916-4.638.282-.437.563-.877.838-1.317a.551.551,0,0,0,.05-.08,1,1,0,0,0,.062-.1c1.231-1.943,2.443-3.9,3.721-5.81.049-.069-.067-.132-.113-.063-.864,1.265-1.758,2.509-2.645,3.76-.119.166-.235.334-.354.5-.235.331-.467.659-.7.99-.464.662-.92,1.324-1.367,2a56.03,56.03,0,0,0-3.595,5.816c-.076.152-.149.3-.222.46-.046.1-.092.192-.132.288s-.1.222-.152.334a18.008,18.008,0,0,0-1.314,6.15c-.01.145-.02.295-.027.444,0,.066-.01.135-.013.205,0,.036,0,.072-.007.109s0,.093-.007.143v0c0,.033,0,.069,0,.106-.007.126-.01.252-.017.381-.056,1.387-.093,2.774-.122,4.157-.01.441-.027.884-.043,1.328" transform="translate(16.999 -328.095)" fill="#fc5f65"/>
                <path id="Trazado_162058-2" data-name="Trazado 162058" d="M5.076,330.52c1.069-1.438,2.439-4.4.864-5.945a1.678,1.678,0,0,0-2.233-.165,4.874,4.874,0,0,0-1.475,2.682c-.722,2.515-1.2,5.078-2.1,7.542-.016.015-.077.21-.1.265s.063.073.082.023c.03-.08.059-.16.089-.241a21.506,21.506,0,0,0,4.874-4.16" transform="translate(28.193 -324.061)" fill="#fc5f65"/>
                <path id="Trazado_162059-2" data-name="Trazado 162059" d="M3.438,336.648c.009-.013.016-.03.026-.043a17.717,17.717,0,0,0,1-1.86A35.7,35.7,0,0,0,6,330.627c.172-.54.94-3.181,1.884-2.129a2.368,2.368,0,0,1,.278,1.771,6.642,6.642,0,0,1-.821,2.476,12.109,12.109,0,0,1-3.548,3.707c-.063.049-.126.1-.189.142-.013.023-.027.043-.04.067a.318.318,0,0,1-.027.043.044.044,0,0,1-.023.02.059.059,0,0,1-.083-.037.041.041,0,0,1,.007-.04m.417-.291a14.146,14.146,0,0,0,3.009-3.019,7.47,7.47,0,0,0,.98-2,6.071,6.071,0,0,0,.212-.97,4.25,4.25,0,0,0,.043-.742c-.017-.543-.242-1.135-.563-1.191-.4-.073-.529.159-.791.615a4.368,4.368,0,0,0-.235.477,13.032,13.032,0,0,0-.443,1.251c-.222.7-.447,1.394-.7,2.082-.169.467-.351.93-.549,1.383a18.539,18.539,0,0,1-1.172,2.278c.069-.053.139-.109.208-.166" transform="translate(24.87 -326.07)" fill="#fff"/>
                <path id="Trazado_162060-2" data-name="Trazado 162060" d="M34.585,343.115c.679,1.265,1.443,2.482,2.219,3.689.439.685.888,1.365,1.327,2.052a5.8,5.8,0,0,1,1.149,2.411l0,0a.513.513,0,0,0,.035.118.049.049,0,0,0,.015.01.107.107,0,0,0,.16-.1c0-.021-.005-.041-.007-.06s0-.015.006-.022a3.5,3.5,0,0,0,.02-.8,18.748,18.748,0,0,0-.084-2.176,17.785,17.785,0,0,0-.941-4.349,15.032,15.032,0,0,0-1.816-3.542,7.861,7.861,0,0,0-2.51-2.642c-.91-.414-1.039.865-1.017,1.479a9.521,9.521,0,0,0,1.448,3.927" transform="translate(-21.917 -330.562)" fill="#fc5f65"/>
                <path id="Trazado_162061-2" data-name="Trazado 162061" d="M33.329,341.849c.484-.188,1.443,1.241,1.877,1.85a14.481,14.481,0,0,1,1.676,3.1,18.721,18.721,0,0,1,1.24,6.179c0,.084.009.171.01.255,0,.008,0,.016-.005.023s0,.037,0,.059a.107.107,0,0,1-.16.1c-.033-.176-.07-.345-.115-.516-.039-.155-.08-.306-.127-.455a24.779,24.779,0,0,0-2.153-4.679c-.952-1.762-2.888-5.662-2.247-5.913m4.61,10.869c.059.225.107.452.148.677-.01-.173-.02-.347-.034-.519a20.705,20.705,0,0,0-1.065-5.463,14.822,14.822,0,0,0-1.344-2.838,13.708,13.708,0,0,0-.968-1.382c-.149-.183-1.008-1.356-1.282-1.175-.192.128.216,1.326.222,1.352.079.24.17.477.266.714.2.485.418.96.646,1.429.5,1.017,1.058,2.007,1.591,3.008a19.549,19.549,0,0,1,1.821,4.2" transform="translate(-20.563 -332.576)" fill="#fff"/>
                <path id="Trazado_162062-2" data-name="Trazado 162062" d="M31.155,359.2a13.529,13.529,0,0,0,5.563,2.679c1.066.289,2.144.527,3.215.79a14.66,14.66,0,0,1,2.836.835c.039.017.079.036.118.058a3.856,3.856,0,0,1,.695.449.057.057,0,0,0,.052.011.862.862,0,0,0,.059.065.019.019,0,0,0,.031-.021c-.012-.027-.03-.055-.043-.082l0-.007a.059.059,0,0,0-.021-.069.161.161,0,0,0-.027-.021c-.014-.027-.028-.055-.044-.081-1.04-1.931-3.252-3.431-5.056-4.528a11.563,11.563,0,0,0-5.948-1.9c-.535,0-1.785-.082-2.112.48-.3.513.353,1.047.684,1.342" transform="translate(-24.696 -340.025)" fill="#fc5f65"/>
                <path id="Trazado_162063-2" data-name="Trazado 162063" d="M30.5,359.634c.259-.587,1.907-.025,2.314.1a22.3,22.3,0,0,1,3.544,1.506,19.883,19.883,0,0,1,5.129,3.484l0,0,.065.039c.018.029.032.055.046.082a.118.118,0,0,1,.026.022.059.059,0,0,1,.02.07c-.031-.016-.059-.034-.09-.047-.228-.132-.464-.254-.7-.371-.04-.02-.08-.04-.118-.057a42.957,42.957,0,0,0-5.165-1.908,20.553,20.553,0,0,1-3.527-1.5c-.285-.159-1.762-.929-1.545-1.422m.749.779c1.723,1.334,4.034,1.9,6.069,2.573a22.5,22.5,0,0,1,4.006,1.647,21.152,21.152,0,0,0-4.7-3.1,28.442,28.442,0,0,0-2.923-1.342,11.624,11.624,0,0,0-1.662-.524,4.569,4.569,0,0,0-1.038-.131c-.656.056-.051.648.244.878" transform="translate(-22.666 -340.98)" fill="#fff"/>
                <path id="Trazado_162064-2" data-name="Trazado 162064" d="M24.591,365.931a.114.114,0,0,0,.11.016c0,.015-.007.027-.01.041a.033.033,0,0,0,.022.041.031.031,0,0,0,.043-.017,18.8,18.8,0,0,0,1.754-7.49,9.817,9.817,0,0,0-.543-3.146c-.246-.69-.742-2.078-1.518-2.35-1.563-.544-.991,4.113-.9,4.814.16,1.279.428,2.541.613,3.815.2,1.4.3,2.8.4,4.209a.093.093,0,0,0,.029.067" transform="translate(-3.822 -337.919)" fill="#fc5f65"/>
                <path id="Trazado_162065-2" data-name="Trazado 162065" d="M25.156,367.514c.023-.133.043-.265.058-.4a21.193,21.193,0,0,0-.09-6.518,19.507,19.507,0,0,1-.368-3.269c0-.272-.052-1.29.514-.984a7.42,7.42,0,0,1,.88,2.41,13.447,13.447,0,0,1,.175,3.283,22.137,22.137,0,0,1-1,5.42c-.015.052-.03.1-.047.153a.032.032,0,0,1-.023-.041.242.242,0,0,0,.009-.04.115.115,0,0,1-.109-.018m.974-4.569a15.586,15.586,0,0,0,.035-3.265,11.039,11.039,0,0,0-.214-1.284,7,7,0,0,0-.286-.979c-.306-.772-.446-.949-.586-.927-.086.016-.165.142-.214.693a5.476,5.476,0,0,0,.034,1.069c.057.5.13,1,.21,1.505.157,1,.328,2,.41,3.012a16.38,16.38,0,0,1-.2,4.339,25.283,25.283,0,0,0,.808-4.164" transform="translate(-4.387 -339.503)" fill="#fff"/>
                <path id="Trazado_162066-2" data-name="Trazado 162066" d="M26.085,372.066a6.239,6.239,0,0,0,1.947,1.825c1.5.97,3.18,1.607,4.739,2.468.232.128.463.261.691.4.024.017.256.25.245.227,0-.005-.062-.1-.167-.272h0a25.518,25.518,0,0,0-3.355-4.412,12.76,12.76,0,0,0-2.5-1.834c-.434-.225-1.431-.689-1.9-.321-.508.4.057,1.521.306,1.918" transform="translate(-12.164 -346.078)" fill="#fc5f65"/>
                <path id="Trazado_162067-2" data-name="Trazado 162067" d="M25.6,372.171c.433-.577,2.925,1.483,3.254,1.746a17.951,17.951,0,0,1,3.232,3.359c.107.139.208.281.31.426.1.169.167.266.169.272s-.222-.208-.247-.227-.079-.048-.117-.072c-.19-.115-.382-.225-.571-.329-1.009-.709-2.034-1.4-3.031-2.134a16.527,16.527,0,0,1-2.035-1.725c-.141-.144-1.154-1.065-.964-1.316m.451.677c1.7,1.973,4.053,3.133,6.105,4.675l.1.075c-.041-.052-.08-.107-.122-.159a20.444,20.444,0,0,0-2.636-2.82,19.551,19.551,0,0,0-1.859-1.445,9.824,9.824,0,0,0-1.083-.706c-.168-.084-.636-.3-.728-.194-.132.144.111.443.222.574" transform="translate(-11.018 -347.065)" fill="#fff"/>
                <path id="Trazado_162068-2" data-name="Trazado 162068" d="M42.689,339.858c3.206,3.241,8.362,3.332,11.747,6.343l.017.016c.1.092.2.187.3.284a.085.085,0,0,0,.136-.03.061.061,0,0,0-.018-.067c-.023-.024-.048-.047-.073-.069a21.794,21.794,0,0,0-5.025-5.9A11.054,11.054,0,0,0,43.9,337.62c-.546-.058-1.626-.208-1.986.377-.383.619.375,1.462.771,1.861" transform="translate(-41.813 -330.529)" fill="#fc5f65"/>
                <path id="Trazado_162069-2" data-name="Trazado 162069" d="M41.864,340.994c.154-.244.556-.176.779-.152a7,7,0,0,1,1.628.381,11.525,11.525,0,0,1,3,1.646,23.773,23.773,0,0,1,4.32,3.968c.281.342.548.693.8,1.058.032.045.06.091.092.135a.087.087,0,0,1-.137.032c-.095-.1-.192-.184-.292-.277a.217.217,0,0,0-.027-.025,13.927,13.927,0,0,0-2.071-1.754,32.757,32.757,0,0,0-3.707-2.029c-.494-.249-4.914-2.147-4.379-2.983m.621.8a15.658,15.658,0,0,0,2.958,1.662c1.009.515,2.023,1.017,3.023,1.545a15.919,15.919,0,0,1,2.27,1.453,12.386,12.386,0,0,1,1.656,1.517,17.251,17.251,0,0,0-1.419-1.694.054.054,0,0,0-.02-.017,31.175,31.175,0,0,0-2.915-2.641L48,343.584a14.448,14.448,0,0,0-2.892-1.894,8.286,8.286,0,0,0-1.777-.618c-.7-.145-1.277-.19-1.346.043-.045.159.241.467.5.676" transform="translate(-39.396 -332.089)" fill="#fff"/>
                <path id="Trazado_162070-2" data-name="Trazado 162070" d="M24.97,346.259c.935.9,1.854,1.827,2.768,2.758q.648.655,1.284,1.309c.011.01.021.017.028.025.153.157.31.316.464.473a37.347,37.347,0,0,1,4.032,4.5,17.068,17.068,0,0,1,1.542,2.771c.042.1.088.2.133.3l0,0c.021.056.046.11.068.166.015.03.027.06.039.091.362.843.682,1.706.99,2.545.429,1.172.777,2.365,1.112,3.559a.563.563,0,0,1,.03.105c.017.054.031.109.048.162.008.029.015.055.022.084.016.051.029.1.045.153.106.385.216.768.33,1.154l.355-.137a24.8,24.8,0,0,0-.9-3.6.57.57,0,0,0-.024-.072c-.034-.115-.072-.231-.111-.344-.045-.143-.091-.281-.142-.421q-.175-.507-.356-1a26.184,26.184,0,0,0-2.633-5.59l-.1-.14a.619.619,0,0,0-.04-.059c-.021-.034-.044-.068-.068-.1l-.114-.158c-.069-.094-.14-.187-.21-.277l-.064-.082a40.054,40.054,0,0,0-3.793-3.973c-.239-.231-.476-.458-.716-.684l-.4-.377c-.2-.187-.412-.376-.616-.564a.055.055,0,0,0-.021-.017c-.968-.885-1.952-1.75-2.915-2.641-.044-.04-.115.034-.07.077" transform="translate(-16.399 -334.655)" fill="#fc5f65"/>
              </g>
            </g>
            <g id="Grupo_169730" data-name="Grupo 169730" transform="translate(10.505 -32.466)">
              <g id="Grupo_170480" data-name="Grupo 170480" transform="translate(24.873 36.584)">
                <path id="Trazado_162165" data-name="Trazado 162165" d="M93.019,161.481s-4.135-1.728-4.754-2.7-3.306-5.056-4.249-5.215c-3.543-.6-13.217-.235-16.466,1.512-1.778.956.1,8.026,1.729,9.685s13.3,2,15.179,1.622a6.337,6.337,0,0,0,3.275-2.316l4.641,1.292Z" transform="translate(-66.829 -126.628)" fill="#fc5f65"/>
                <path id="Trazado_162166" data-name="Trazado 162166" d="M115.872,159.435s-3.143.456-3.9,1.115-3.143,5.93-2.99,7.755,2.078,3.7,2.078,3.7Z" transform="translate(-88.538 -129.788)" fill="#c3474c"/>
                <path id="Trazado_162168" data-name="Trazado 162168" d="M439.521,161.481s4.135-1.728,4.754-2.7,3.306-5.056,4.249-5.215c3.543-.6,13.217-.235,16.466,1.512,1.778.956-.1,8.026-1.729,9.685s-13.3,2-15.179,1.622a6.337,6.337,0,0,1-3.275-2.316l-4.641,1.292Z" transform="translate(-258.809 -126.628)" fill="#fc5f65"/>
                <path id="Trazado_162169" data-name="Trazado 162169" d="M437.161,159.435s3.142.456,3.9,1.115,3.142,5.93,2.99,7.755-2.078,3.7-2.078,3.7Z" transform="translate(-257.594 -129.788)" fill="#c3474c"/>
                <path id="Trazado_162171" data-name="Trazado 162171" d="M95.9,319.481H77.079a5.457,5.457,0,0,1-5.457-5.457v-51.1a5.457,5.457,0,0,1,5.457-5.457H95.9a5.457,5.457,0,0,1,5.457,5.457v51.1a5.457,5.457,0,0,1-5.457,5.457" transform="translate(-69.298 -180.286)" fill="#263238"/>
                <path id="Trazado_162172" data-name="Trazado 162172" d="M82.086,220.513s-6.893,3.515-8.515,6.758,0,36.761,0,39.329,4.993,19.327,5.943,21.084,14.059,3.784,14.059,3.784Z" transform="translate(-69.931 -161.25)" fill="#ffc727"/>
                <g id="Grupo_169692" data-name="Grupo 169692" transform="translate(2.92 59.263)">
                  <g id="Grupo_169691" data-name="Grupo 169691">
                    <g id="Grupo_169690" data-name="Grupo 169690" clip-path="url(#clip-path)">
                      <path id="Trazado_162173" data-name="Trazado 162173" d="M82.086,220.513s-6.893,3.515-8.515,6.758,0,36.761,0,39.329,4.993,19.327,5.943,21.084,14.059,3.784,14.059,3.784Z" transform="translate(-72.851 -220.513)" fill="#c3474c"/>
                    </g>
                  </g>
                </g>
                <path id="Trazado_162174" data-name="Trazado 162174" d="M432.882,319.481H451.7a5.457,5.457,0,0,0,5.457-5.457v-51.1a5.457,5.457,0,0,0-5.457-5.457H432.882a5.457,5.457,0,0,0-5.457,5.457v51.1a5.457,5.457,0,0,0,5.457,5.457" transform="translate(-252.578 -180.286)" fill="#263238"/>
                <path id="Trazado_162175" data-name="Trazado 162175" d="M456.265,220.513s6.893,3.515,8.514,6.758,0,36.761,0,39.329-4.993,19.327-5.943,21.084-14.059,3.784-14.059,3.784Z" transform="translate(-261.517 -161.25)" fill="#ffc727"/>
                <g id="Grupo_169695" data-name="Grupo 169695" transform="translate(183.26 59.263)">
                  <g id="Grupo_169694" data-name="Grupo 169694">
                    <g id="Grupo_169693" data-name="Grupo 169693" clip-path="url(#clip-path-2)">
                      <path id="Trazado_162176" data-name="Trazado 162176" d="M456.265,220.513s6.893,3.515,8.514,6.758,0,36.761,0,39.329-4.993,19.327-5.943,21.084-14.059,3.784-14.059,3.784Z" transform="translate(-444.777 -220.513)" fill="#c3474c"/>
                    </g>
                  </g>
                </g>
                <path id="Trazado_162177" data-name="Trazado 162177" d="M274.32,213.306c-.067.878-3.042,13.449-4.261,14.729s-25.544,2.3-27.032,2.3S236.882,227.7,236,227.5s-49.691-.067-55.66-.067-54.782-.14-55.66.067-5.542,2.835-7.029,2.835-25.812-1.012-27.031-2.3-4.188-13.851-4.255-14.729.878-3.987.878-4.664-.726-47.759-.525-48.674,2.128-7.3,2.994-8.663,8.565-11.1,8.766-11.711c4.737-14.217,17.991-35.017,20.021-36.846a13.286,13.286,0,0,1,6.742-3.194c2.024-.25,29.445-1.262,55.1-1.262s53.075,1.012,55.1,1.262a13.309,13.309,0,0,1,6.742,3.194c2.024,1.829,15.278,22.629,20.021,36.846.2.61,7.907,10.34,8.767,11.711s2.786,7.754,2.987,8.663-.518,48-.518,48.674.945,3.785.878,4.664" transform="translate(-76.892 -98.292)" fill="#fc5f65"/>
                <g id="Grupo_169698" data-name="Grupo 169698" transform="translate(15.377 96.552)" opacity="0.1">
                  <g id="Grupo_169697" data-name="Grupo 169697">
                    <g id="Grupo_169696" data-name="Grupo 169696" clip-path="url(#clip-path-3)">
                      <path id="Trazado_162178" data-name="Trazado 162178" d="M274.692,307.5c0,.811-1.1,7.121-1.811,7.3-19.576,4.871-66.591,8.962-86.264,8.638-19.673.323-66.688-3.767-86.264-8.638-.713-.177-1.811-6.487-1.811-7.3s.811-9.8,1.811-10.065,21.709,3.45,39.12,5.761a368.171,368.171,0,0,0,47.144,2.92,368.212,368.212,0,0,0,47.143-2.92c17.4-2.311,38.114-6.036,39.12-5.761s1.811,9.254,1.811,10.065" transform="translate(-98.543 -297.417)"/>
                    </g>
                  </g>
                </g>
                <g id="Grupo_169701" data-name="Grupo 169701" transform="translate(34.506 99.097)" opacity="0.5">
                  <g id="Grupo_169700" data-name="Grupo 169700">
                    <g id="Grupo_169699" data-name="Grupo 169699" clip-path="url(#clip-path-4)">
                      <path id="Trazado_162179" data-name="Trazado 162179" d="M275.886,302.664l-6.663,18.96c-21.7,2.829-48.607,4.737-62.287,4.511-13.68.225-40.577-1.683-62.281-4.511l-6.663-18.96c6.73,1.061,14.552,2.268,21.8,3.231a368.167,368.167,0,0,0,47.144,2.92,368.208,368.208,0,0,0,47.143-2.92c7.249-.963,15.076-2.17,21.807-3.231" transform="translate(-137.992 -302.664)" fill="#fff"/>
                    </g>
                  </g>
                </g>
                <path id="Trazado_162180" data-name="Trazado 162180" d="M277.241,309.284c.1.451-3.646,7.889-6.468,12.315-.841,1.317-4.889,4.359-5.828,4.56s-12.613,3.365-34.847,3.365-33.9-3.164-34.847-3.365-4.987-3.243-5.828-4.56c-2.823-4.426-6.566-11.864-6.468-12.315s14.04,2.92,47.143,2.92,47.058-3.371,47.143-2.92" transform="translate(-126.647 -206.956)" fill="#263238"/>
                <path id="Trazado_162181" data-name="Trazado 162181" d="M119.67,313.639a4.105,4.105,0,1,1-4.105-4.105,4.105,4.105,0,0,1,4.105,4.105" transform="translate(-89.819 -207.106)" fill="#fff"/>
                <path id="Trazado_162182" data-name="Trazado 162182" d="M112.573,310.648a4.432,4.432,0,0,1,7.531,2.9,4.48,4.48,0,0,1-4.628,4.631,4.433,4.433,0,0,1-2.9-7.534m0,0a3.812,3.812,0,1,0,5.591.214,3.83,3.83,0,0,0-5.591-.214" transform="translate(-89.73 -207.018)" fill="#dbdbdb"/>
                <path id="Trazado_162183" data-name="Trazado 162183" d="M431.054,313.639a4.105,4.105,0,1,0,4.105-4.105,4.106,4.106,0,0,0-4.105,4.105" transform="translate(-254.448 -207.106)" fill="#fff"/>
                <path id="Trazado_162184" data-name="Trazado 162184" d="M437.5,310.648a3.812,3.812,0,1,0-.217,5.589,3.832,3.832,0,0,0,.217-5.589m0,0a4.433,4.433,0,0,1-2.9,7.534,4.479,4.479,0,0,1-4.628-4.631,4.432,4.432,0,0,1,7.531-2.9" transform="translate(-253.882 -207.018)" fill="#dbdbdb"/>
                <path id="Trazado_162185" data-name="Trazado 162185" d="M275.309,141.7s-36.627,1.6-78.162,1.6-78.162-1.6-78.162-1.6c7.5-18.789,17.3-33.317,18.381-34.127a28.27,28.27,0,0,1,6.011-2.5c4.6-1.152,37.505-1.353,53.77-1.353s49.161.2,53.764,1.353a28.2,28.2,0,0,1,6.017,2.5c1.079.811,10.882,15.338,18.38,34.127" transform="translate(-93.696 -101.09)" fill="#455a64"/>
                <path id="Trazado_162186" data-name="Trazado 162186" d="M275.309,176.548s-36.627,1.6-78.162,1.6-78.162-1.6-78.162-1.6c.707-1.768,1.433-3.5,2.165-5.182,8.431.336,40.413,1.512,76,1.512s67.566-1.176,76-1.512c.731,1.682,1.457,3.414,2.164,5.182" transform="translate(-93.696 -135.934)" fill="#263238"/>
                <g id="Grupo_169704" data-name="Grupo 169704" transform="translate(35.927 15.608)" opacity="0.7">
                  <g id="Grupo_169703" data-name="Grupo 169703">
                    <g id="Grupo_169702" data-name="Grupo 169702" clip-path="url(#clip-path-5)">
                      <path id="Trazado_162187" data-name="Trazado 162187" d="M196.343,150.215H145.2a2.97,2.97,0,0,0-2.933,2.5l-1.309,8.252a2.97,2.97,0,0,0,2.933,3.435h53.758a2.97,2.97,0,0,0,2.933-3.435l-1.309-8.252a2.97,2.97,0,0,0-2.933-2.5" transform="translate(-140.923 -140.647)" fill="#263238"/>
                      <path id="Trazado_162188" data-name="Trazado 162188" d="M199.486,143.252h-32.5a1.868,1.868,0,0,1-1.868-1.868v-9.035a1.868,1.868,0,0,1,1.868-1.868h32.5a1.868,1.868,0,0,1,1.868,1.868v9.035a1.868,1.868,0,0,1-1.868,1.868" transform="translate(-153.387 -130.482)" fill="#263238"/>
                    </g>
                  </g>
                </g>
                <g id="Grupo_169707" data-name="Grupo 169707" transform="translate(111.276 15.608)" opacity="0.7">
                  <g id="Grupo_169706" data-name="Grupo 169706">
                    <g id="Grupo_169705" data-name="Grupo 169705" clip-path="url(#clip-path-5)">
                      <path id="Trazado_162189" data-name="Trazado 162189" d="M351.739,150.215H300.6a2.97,2.97,0,0,0-2.933,2.5l-1.309,8.252a2.97,2.97,0,0,0,2.933,3.435h53.759a2.97,2.97,0,0,0,2.933-3.435l-1.309-8.252a2.97,2.97,0,0,0-2.933-2.5" transform="translate(-296.32 -140.647)" fill="#263238"/>
                      <path id="Trazado_162190" data-name="Trazado 162190" d="M354.883,143.252h-32.5a1.868,1.868,0,0,1-1.868-1.868v-9.035a1.868,1.868,0,0,1,1.868-1.868h32.5a1.868,1.868,0,0,1,1.868,1.868v9.035a1.868,1.868,0,0,1-1.868,1.868" transform="translate(-308.784 -130.482)" fill="#263238"/>
                    </g>
                  </g>
                </g>
                <path id="Trazado_162191" data-name="Trazado 162191" d="M356.3,169.881H305.617l4.851-6.9,20.49-1.089,20.49,1.089Z" transform="translate(-189.833 -131.053)" fill="#263238"/>
                <path id="Trazado_162192" data-name="Trazado 162192" d="M345.3,142.511a11.841,11.841,0,0,0-11.352,15.2,11.736,11.736,0,0,0,3.189,5.206c1.39-.024,2.749-.055,4.09-.085a9.472,9.472,0,0,1-4.725-5.17,9.37,9.37,0,0,1,.89-8.382,9.237,9.237,0,0,1,1.573-1.872,9.4,9.4,0,1,1,10.791,15.229c1.408-.037,2.78-.073,4.1-.11a11.836,11.836,0,0,0-8.559-20.02" transform="translate(-204.173 -121.07)" fill="#263238"/>
                <path id="Trazado_162193" data-name="Trazado 162193" d="M348.951,160.3l-8.877-7.038,1.515-1.911,7.362,5.837,7.362-5.837,1.515,1.911Z" transform="translate(-207.583 -125.623)" fill="#263238"/>
                <g id="Grupo_169710" data-name="Grupo 169710" transform="translate(29.848 2.67)" opacity="0.1">
                  <g id="Grupo_169709" data-name="Grupo 169709">
                    <g id="Grupo_169708" data-name="Grupo 169708" clip-path="url(#clip-path-7)">
                      <path id="Trazado_162194" data-name="Trazado 162194" d="M202.177,103.8l-38.815,38.816c-3.39-.085-6.523-.177-9.364-.262l38.468-38.468c3.286-.036,6.566-.067,9.712-.085" transform="translate(-141.58 -103.799)" fill="#fff"/>
                      <path id="Trazado_162195" data-name="Trazado 162195" d="M359.654,111.028,325.7,144.978c-3.17.043-6.432.085-9.754.122L353.68,107.37a24,24,0,0,1,4.706,2.085,11.1,11.1,0,0,1,1.268,1.573" transform="translate(-225.003 -105.638)" fill="#fff"/>
                      <path id="Trazado_162196" data-name="Trazado 162196" d="M417.7,161.55l-6.944,6.944c-2.81.1-6.157.208-9.949.317l13.8-13.8c1.03,2.079,2.066,4.262,3.091,6.542" transform="translate(-268.713 -130.178)" fill="#fff"/>
                      <path id="Trazado_162197" data-name="Trazado 162197" d="M184.743,104.051l-38.334,38.334c-.494-.012-.969-.031-1.439-.043l38.273-38.273Z" transform="translate(-136.929 -103.929)" fill="#fff"/>
                      <path id="Trazado_162198" data-name="Trazado 162198" d="M279.3,103.918l-39.383,39.376-1.463-.018L277.826,103.9c.488.006.976.006,1.469.018" transform="translate(-185.082 -103.851)" fill="#fff"/>
                      <path id="Trazado_162199" data-name="Trazado 162199" d="M405.2,146.535l-17.57,17.57c-.5.013-1.012.024-1.524.043l18.582-18.582q.256.476.512.969" transform="translate(-261.143 -125.314)" fill="#fff"/>
                      <path id="Trazado_162200" data-name="Trazado 162200" d="M155.241,105.182l-26.855,26.855c1.11-2.335,2.225-4.548,3.31-6.621l20.021-20.02c1.018-.079,2.2-.152,3.524-.213" transform="translate(-128.387 -104.511)" fill="#fff"/>
                      <path id="Trazado_162201" data-name="Trazado 162201" d="M304.135,104.25,264.85,143.535c-1.1,0-2.2-.006-3.292-.013l39.328-39.334c1.1.018,2.188.043,3.249.061" transform="translate(-196.986 -104)" fill="#fff"/>
                    </g>
                  </g>
                </g>
                <g id="Grupo_169713" data-name="Grupo 169713" transform="translate(17.688 40.614)" opacity="0.1">
                  <g id="Grupo_169712" data-name="Grupo 169712">
                    <g id="Grupo_169711" data-name="Grupo 169711" clip-path="url(#clip-path-8)">
                      <path id="Trazado_162202" data-name="Trazado 162202" d="M110.91,182.053a74.5,74.5,0,0,1-6.414,11.315c-.065.1-.192.288-.252.386-.128.416.352,1.279.606,1.725.361.647.787,1.27,1.2,1.911-1.023-.812-3.4-2.812-2.574-4.269a60.585,60.585,0,0,1,7.43-11.068" transform="translate(-103.309 -182.053)"/>
                    </g>
                  </g>
                </g>
                <g id="Grupo_169716" data-name="Grupo 169716" transform="translate(181.613 40.614)" opacity="0.1">
                  <g id="Grupo_169715" data-name="Grupo 169715">
                    <g id="Grupo_169714" data-name="Grupo 169714" clip-path="url(#clip-path-8)">
                      <path id="Trazado_162203" data-name="Trazado 162203" d="M441.38,182.053a60.569,60.569,0,0,1,7.43,11.068c.827,1.46-1.547,3.452-2.574,4.269.418-.64.844-1.264,1.2-1.911.253-.443.735-1.31.607-1.725-.061-.1-.188-.289-.253-.386a74.513,74.513,0,0,1-6.414-11.315" transform="translate(-441.38 -182.053)"/>
                    </g>
                  </g>
                </g>
                <g id="Grupo_169719" data-name="Grupo 169719" transform="translate(11.055 58.644)" opacity="0.1">
                  <g id="Grupo_169718" data-name="Grupo 169718">
                    <g id="Grupo_169717" data-name="Grupo 169717" clip-path="url(#clip-path-10)">
                      <path id="Trazado_162204" data-name="Trazado 162204" d="M274.422,231.854c0,.86-.037,5.786-.707,6.188-1.872,1.122-10.133,3.737-15.284,4.688-24.117,4.45-59.177,6.956-76.406,6.67-17.228.287-52.288-2.219-76.406-6.67-5.151-.951-13.412-3.566-15.284-4.688-.671-.4-.707-5.328-.707-6.188s5.737-12.321,6.8-12.607,12.973,6.487,32.926,10.077c20.46,3.682,52.667,3.78,52.667,3.78s32.207-.1,52.667-3.78c19.953-3.591,31.859-9.76,32.926-9.467s6.8,11.138,6.8,12" transform="translate(-89.629 -219.237)"/>
                    </g>
                  </g>
                </g>
                <g id="Grupo_169722" data-name="Grupo 169722" transform="translate(11.762 77.448)" opacity="0.5">
                  <g id="Grupo_169721" data-name="Grupo 169721">
                    <g id="Grupo_169720" data-name="Grupo 169720" clip-path="url(#clip-path-11)">
                      <path id="Trazado_162205" data-name="Trazado 162205" d="M274.466,258.018c-6.882,3.671-14.538,5.588-22.185,6.9q-11.459,2.09-23.018,3.562c-15.42,1.931-30.92,3.491-46.487,3.468-25.258-.213-50.447-3.37-75.22-8.146a63.662,63.662,0,0,1-16.469-5.787,68.641,68.641,0,0,0,16.631,4.885c24.844,3.586,49.941,6.476,75.058,6.61,15.449.088,30.892-1.39,46.266-2.912,7.7-.826,15.385-1.743,23.047-2.849a98.753,98.753,0,0,0,11.4-2,71.319,71.319,0,0,0,10.974-3.733" transform="translate(-91.087 -258.018)" fill="#fff"/>
                    </g>
                  </g>
                </g>
                <path id="Trazado_162206" data-name="Trazado 162206" d="M100.806,214.534c4.158.385,23.905,12.647,24.737,13.656s2.834,11.149,1.59,12.143-16.168.486-20.663-.237-13.786-3.24-15.877-4.849-.487-12.945,1.566-15.215c2.639-2.918,5.98-5.744,8.647-5.5" transform="translate(-78.566 -158.163)" fill="#fff"/>
                <path id="Trazado_162207" data-name="Trazado 162207" d="M100.535,214.55a13.517,13.517,0,0,1,3.1,1.021c3,1.308,5.874,2.886,8.743,4.456,4.286,2.4,8.584,4.8,12.668,7.558a2.5,2.5,0,0,1,1,1.494,31.079,31.079,0,0,1,.86,3.2,31.4,31.4,0,0,1,.87,6.589c-.033,1.27-.244,2.112-1.636,2.283a65.8,65.8,0,0,1-10.737.264,77.547,77.547,0,0,1-9.85-.848,67.622,67.622,0,0,1-14.165-4.312,5.454,5.454,0,0,1-1.47-.96c-1.211-1.947-.778-4.452-.641-6.611.433-2.934.826-6.1,2.515-8.609,2.3-2.341,5.225-5.57,8.746-5.525m0,0c-3.352,0-5.918,2.77-8.113,4.993a6.386,6.386,0,0,0-1.588,2.786,28.723,28.723,0,0,0-1.176,6.391,18.082,18.082,0,0,0,.157,4.818,2.185,2.185,0,0,0,1.149,1.763c3.65,1.754,7.678,2.608,11.6,3.538a64.905,64.905,0,0,0,12.881,1.359c2.17.084,4.344.133,6.509.1a20.142,20.142,0,0,0,4.56-.375c-.014.063.1-.146.134-.369a25.861,25.861,0,0,0-.559-7.114,21.172,21.172,0,0,0-.99-3.86c-.065-.192-.27-.3-.452-.472-3.96-2.866-8.15-5.427-12.351-7.94a90.149,90.149,0,0,0-8.669-4.581,13.392,13.392,0,0,0-3.09-1.042" transform="translate(-78.294 -158.178)" fill="#dbdbdb"/>
                <path id="Trazado_162208" data-name="Trazado 162208" d="M121.687,239.651a5.733,5.733,0,1,1-9.631-4.207,5.749,5.749,0,0,1,9.631,4.207m0,0a5.119,5.119,0,1,0-8.889,3.465,5.131,5.131,0,0,0,8.889-3.465" transform="translate(-89.197 -168.155)" fill="#dbdbdb"/>
                <path id="Trazado_162209" data-name="Trazado 162209" d="M146.215,247.943a4.912,4.912,0,1,1-8.227-3.625,4.93,4.93,0,0,1,8.227,3.625m0,0a4.3,4.3,0,1,0-4.6,4.3,4.3,4.3,0,0,0,4.6-4.3" transform="translate(-102.678 -172.849)" fill="#dbdbdb"/>
                <path id="Trazado_162210" data-name="Trazado 162210" d="M98.993,224.583c-.637,1.845-1.314,10.834-.976,12.019a6.466,6.466,0,0,0,1.174,1.84c-3.726-1.011-7.382-2.254-8.6-3.194C88.5,233.641,90.1,222.3,92.16,220.033c2.634-2.92,5.98-5.747,8.644-5.5a18.213,18.213,0,0,1,4.824,1.822s-6,6.378-6.635,8.223" transform="translate(-78.564 -158.164)" fill="#ffc727"/>
                <g id="Grupo_169725" data-name="Grupo 169725" transform="translate(11.046 56.356)">
                  <g id="Grupo_169724" data-name="Grupo 169724">
                    <g id="Grupo_169723" data-name="Grupo 169723" clip-path="url(#clip-path-12)">
                      <path id="Trazado_162211" data-name="Trazado 162211" d="M98.993,224.58c-.637,1.846-1.314,10.834-.976,12.02a6.473,6.473,0,0,0,1.174,1.84c-3.726-1.01-7.382-2.255-8.6-3.195C88.5,233.639,90.1,222.3,92.16,220.031c2.634-2.92,5.98-5.747,8.644-5.5a18.216,18.216,0,0,1,4.824,1.822s-6,6.378-6.635,8.224" transform="translate(-89.61 -214.519)" fill="#c3474c"/>
                    </g>
                  </g>
                </g>
                <path id="Trazado_162212" data-name="Trazado 162212" d="M419.279,214.534c-4.158.385-23.905,12.647-24.737,13.656s-2.834,11.149-1.59,12.143,16.168.486,20.663-.237,13.786-3.24,15.878-4.849.486-12.945-1.567-15.215c-2.639-2.918-5.98-5.744-8.647-5.5" transform="translate(-234.616 -158.163)" fill="#fff"/>
                <path id="Trazado_162213" data-name="Trazado 162213" d="M418.74,214.55a13.492,13.492,0,0,0-3.09,1.042,90.107,90.107,0,0,0-8.669,4.581c-4.2,2.514-8.392,5.075-12.352,7.94-.183.17-.387.279-.452.472a21.215,21.215,0,0,0-.99,3.86,25.859,25.859,0,0,0-.559,7.114c.031.223.147.432.134.369a2.593,2.593,0,0,0,.572.145,74.03,74.03,0,0,0,10.5.125,64.892,64.892,0,0,0,12.881-1.359c3.923-.929,7.951-1.784,11.6-3.538a2.18,2.18,0,0,0,1.149-1.763,18.1,18.1,0,0,0,.157-4.818,28.751,28.751,0,0,0-1.176-6.391,6.384,6.384,0,0,0-1.588-2.785c-2.193-2.225-4.762-5-8.113-4.994m0,0c3.525-.046,6.445,3.184,8.746,5.524,1.69,2.506,2.08,5.677,2.515,8.61.138,2.174.57,4.645-.641,6.611a5.443,5.443,0,0,1-1.47.96,67.569,67.569,0,0,1-14.165,4.313,100.024,100.024,0,0,1-16.423.907,29.265,29.265,0,0,1-4.164-.322,2.8,2.8,0,0,1-.983-.331,1.554,1.554,0,0,1-.57-1.057,24.594,24.594,0,0,1,.786-7.484,30.957,30.957,0,0,1,.86-3.2,2.5,2.5,0,0,1,1-1.494c4.083-2.757,8.382-5.156,12.667-7.558,2.87-1.57,5.743-3.147,8.743-4.456a13.415,13.415,0,0,1,3.1-1.021" transform="translate(-234.077 -158.178)" fill="#dbdbdb"/>
                <path id="Trazado_162214" data-name="Trazado 162214" d="M426.532,239.651a5.119,5.119,0,1,0,8.887-3.464,5.132,5.132,0,0,0-8.887,3.464m0,0a5.733,5.733,0,1,1,9.629,4.2,5.75,5.75,0,0,1-9.629-4.2" transform="translate(-252.118 -168.155)" fill="#dbdbdb"/>
                <path id="Trazado_162215" data-name="Trazado 162215" d="M403.748,247.943a4.307,4.307,0,1,0,4.6-4.3,4.33,4.33,0,0,0-4.6,4.3m0,0a4.912,4.912,0,1,1,8.225,3.624,4.931,4.931,0,0,1-8.225-3.624" transform="translate(-240.381 -172.848)" fill="#dbdbdb"/>
                <path id="Trazado_162216" data-name="Trazado 162216" d="M444.358,224.583c.637,1.845,1.314,10.834.975,12.019a6.459,6.459,0,0,1-1.173,1.84c3.726-1.011,7.382-2.254,8.6-3.194,2.091-1.606.485-12.943-1.571-15.214-2.634-2.92-5.98-5.747-8.643-5.5a18.215,18.215,0,0,0-4.824,1.822s6,6.378,6.635,8.223" transform="translate(-257.883 -158.164)" fill="#ffc727"/>
                <g id="Grupo_169728" data-name="Grupo 169728" transform="translate(179.84 56.356)">
                  <g id="Grupo_169727" data-name="Grupo 169727">
                    <g id="Grupo_169726" data-name="Grupo 169726" clip-path="url(#clip-path-13)">
                      <path id="Trazado_162217" data-name="Trazado 162217" d="M444.358,224.58c.637,1.846,1.314,10.834.975,12.02a6.466,6.466,0,0,1-1.173,1.84c3.726-1.01,7.382-2.255,8.6-3.195,2.091-1.606.485-12.943-1.571-15.215-2.634-2.92-5.98-5.747-8.643-5.5a18.218,18.218,0,0,0-4.824,1.822s6,6.378,6.635,8.224" transform="translate(-437.723 -214.519)" fill="#c3474c"/>
                    </g>
                  </g>
                </g>
                <path id="Trazado_162218" data-name="Trazado 162218" d="M276.9,239.989c.1.451-4.914,11.242-5.829,12.565s-5.267,3.6-6.285,3.8-16.619,3.365-40.553,3.365-39.541-3.164-40.56-3.365-5.371-2.482-6.279-3.8-5.932-12.114-5.828-12.565,15.1,2.475,24.172,2.829c4.463.177,18.448.951,28.495.951s24.031-.774,28.494-.951c9.072-.353,24.075-3.28,24.173-2.829" transform="translate(-120.78 -171.258)" fill="#37474f"/>
                <path id="Trazado_162219" data-name="Trazado 162219" d="M181.916,242.679c2.042.292,4.231.6,6.4.853H172.863c-.14-.311-.262-.6-.366-.853Zm85.593,0c-2.042.292-4.231.6-6.4.853h15.454c.14-.311.262-.6.366-.853Zm-33.475,2.341c-3.219.091-6.431.159-9.321.159s-6.1-.067-9.321-.159H173.515c.122.274.25.555.384.848H275.525c.134-.293.262-.573.384-.848Zm-59.452,2.335c.128.287.262.567.4.848h99.468c.134-.28.268-.561.4-.848Zm1.1,2.335c.14.292.28.579.415.853h97.237c.134-.274.275-.561.415-.853Zm1.14,2.335c.159.311.311.6.439.853h94.909c.128-.256.28-.543.439-.853Zm1.4,2.335a8.489,8.489,0,0,0,1.055.853h90.885a8.485,8.485,0,0,0,1.055-.853Zm3.53,2.341a18.4,18.4,0,0,0,1.774.847H265.9a18.416,18.416,0,0,0,1.78-.847Zm10.272,2.335c2.042.28,4.45.573,7.2.848h50.99c2.75-.274,5.158-.567,7.2-.848Z" transform="translate(-121.261 -172.668)" fill="#455a64"/>
                <rect id="Rectángulo_42725" data-name="Rectángulo 42725" width="39.965" height="10.677" transform="translate(83.47 95.855)" fill="#fff"/>
              </g>
            </g>
          </g>
        </g>
      </g>
    </g>
  </g>
</svg>
